<?xml version="1.0" encoding="UTF-8" standalone="no"?>
<!DOCTYPE svg PUBLIC "-//W3C//DTD SVG 1.1//EN" "http://www.w3.org/Graphics/SVG/1.1/DTD/svg11.dtd">
<svg width="100%" height="100%" viewBox="0 0 1100 650" version="1.1" xmlns="http://www.w3.org/2000/svg" xmlns:xlink="http://www.w3.org/1999/xlink" xml:space="preserve" xmlns:serif="http://www.serif.com/" style="fill-rule:evenodd;clip-rule:evenodd;stroke-linecap:round;stroke-miterlimit:1.5;">
    <g>
        <g id="lines" class="dark:hidden block" style="stroke:rgb(109,51,232);" transform="matrix(-1,0,0,1,1242.29,-104.443)">
            <path d="M559.751,428L935.533,427.99L1088.6,217.316L1183.21,347.526L935.533,427.99L1183.21,514.2L1088.6,638.684L935.533,427.99L935.533,688.42L779.792,635.01L935.533,427.99L935.533,167.58L782.462,217.316L935.533,427.99" style="fill:none;stroke-opacity:0.75;stroke-width:1.5px;stroke-dasharray:15,15,0,0,0,0;stroke-dashoffset:6;"/>
            <path d="M935.533,167.58L1088.6,217.316" style="fill:none;stroke-opacity:0.75;stroke-width:1.5px;stroke-dasharray:15,15,0,0,0,0;stroke-dashoffset:6;"/>
            <path d="M1183.21,514.2L1183.21,347.526" style="fill:none;stroke-opacity:0.75;stroke-width:1.5px;stroke-dasharray:15,15,0,0,0,0;stroke-dashoffset:6;"/>
            <path d="M935.533,688.42L1088.6,638.684" style="fill:none;stroke-opacity:0.75;stroke-width:1.5px;stroke-dasharray:15,15,0,0,0,0;stroke-dashoffset:6;"/>
            <g id="center-circle" serif:id="center circle" transform="matrix(0.292224,0,0,0.292224,665.323,305.019)">
                <circle cx="924.394" cy="420.844" r="34.22" style="fill:rgb(109,51,232);"/>
            </g>
            <g transform="matrix(1.11158,1.43767e-16,1.46976e-16,0.944026,-45.6846,23.9571)">
                <path d="M463.561,428L356.076,428" style="fill:none;stroke-opacity:0.75;stroke-width:1.45px;stroke-dasharray:14.55,14.55,0,0,0,0;stroke-dashoffset:5.82;"/>
            </g>
        </g>
        <g id="lines-dark" class="dark:block hidden" style="stroke:rgb(255,255,255);" transform="matrix(-1,0,0,1,1242.29,-104.443)">
            <path d="M559.751,428L935.533,427.99L1088.6,217.316L1183.21,347.526L935.533,427.99L1183.21,514.2L1088.6,638.684L935.533,427.99L935.533,688.42L779.792,635.01L935.533,427.99L935.533,167.58L782.462,217.316L935.533,427.99" style="fill:none;stroke-opacity:0.75;stroke-width:1.5px;stroke-dasharray:15,15,0,0,0,0;stroke-dashoffset:6;"/>
            <path d="M935.533,167.58L1088.6,217.316" style="fill:none;stroke-opacity:0.75;stroke-width:1.5px;stroke-dasharray:15,15,0,0,0,0;stroke-dashoffset:6;"/>
            <path d="M1183.21,514.2L1183.21,347.526" style="fill:none;stroke-opacity:0.75;stroke-width:1.5px;stroke-dasharray:15,15,0,0,0,0;stroke-dashoffset:6;"/>
            <path d="M935.533,688.42L1088.6,638.684" style="fill:none;stroke-opacity:0.75;stroke-width:1.5px;stroke-dasharray:15,15,0,0,0,0;stroke-dashoffset:6;"/>
            <g id="center-circle" serif:id="center circle" transform="matrix(0.292224,0,0,0.292224,665.323,305.019)">
                <circle cx="924.394" cy="420.844" r="34.22" style="fill:rgb(109,51,232);"/>
            </g>
            <g transform="matrix(1.11158,1.43767e-16,1.46976e-16,0.944026,-45.6846,23.9571)">
                <path d="M463.561,428L356.076,428" style="fill:none;stroke-opacity:0.75;stroke-width:1.45px;stroke-dasharray:14.55,14.55,0,0,0,0;stroke-dashoffset:5.82;"/>
            </g>
        </g>
        <g class="dark:hidden block" filter="url(#shadow)">
            <g id="Logo" transform="matrix(0.350985,0,0,0.350985,869.7,236.004)">
                <g id="Sol">
                    <g transform="matrix(1,0,0,1,-64,-77.1015)">
                        <path d="M339.334,181.528C402.494,202.939 448,262.748 448,333.102C448,421.408 376.306,493.102 288,493.102C199.694,493.102 128,421.408 128,333.102C128,313.886 131.395,295.457 137.618,278.378L137.592,278.368L192.316,128.017L339.334,181.528Z" style="fill:url(#_Linear1);"/>
                        <clipPath id="_clip2">
                            <path d="M339.334,181.528C402.494,202.939 448,262.748 448,333.102C448,421.408 376.306,493.102 288,493.102C199.694,493.102 128,421.408 128,333.102C128,313.886 131.395,295.457 137.618,278.378L137.592,278.368L192.316,128.017L339.334,181.528Z"/>
                        </clipPath>
                        <g clip-path="url(#_clip2)">
                            <g transform="matrix(0.838433,0,0,1.09308,144.034,38.9693)">
                                <path d="M329.429,309.399L374.858,380.076L329.429,450.753L284,380.076L329.429,309.399Z" style="fill-opacity:0.11;"/>
                            </g>
                        </g>
                    </g>
                    <g transform="matrix(1.21212,0,0,1.21212,-49.9394,-44.1318)">
                        <circle cx="226" cy="250" r="66" style="fill:white;"/>
                    </g>
                    <g transform="matrix(2.77778,0,0,2.77778,-581.556,-657.768)">
                        <circle cx="290" cy="330" r="18" style="fill:rgb(128,68,253);"/>
                    </g>
                    <g transform="matrix(0.800694,0,0,0.7923,-5.70686,-7.10906)">
                        <ellipse cx="326.85" cy="295.352" rx="19.983" ry="20.194" style="fill:white;"/>
                    </g>
                </g>
                <g id="Sag" transform="matrix(1,0,0,1,-64,7.10543e-14)">
                    <g transform="matrix(1,0,0,1,0,-77.1015)">
                        <path d="M693.336,275.591L639.618,128L489.267,182.723L489.267,182.723C427.876,205.104 384,264.019 384,333.102C384,421.408 455.694,493.102 544,493.102C632.306,493.102 704,421.408 704,333.102C704,312.835 700.224,293.444 693.336,275.591Z" style="fill:rgb(128,68,253);"/>
                        <clipPath id="_clip3">
                            <path d="M693.336,275.591L639.618,128L489.267,182.723L489.267,182.723C427.876,205.104 384,264.019 384,333.102C384,421.408 455.694,493.102 544,493.102C632.306,493.102 704,421.408 704,333.102C704,312.835 700.224,293.444 693.336,275.591Z"/>
                        </clipPath>
                        <g clip-path="url(#_clip3)">
                            <g transform="matrix(0.727883,0,0,0.91085,175.43,109.714)">
                                <path d="M329.429,309.399L374.858,380.076L329.429,450.753L284,380.076L329.429,309.399Z" style="fill-opacity:0.2;"/>
                            </g>
                        </g>
                    </g>
                    <g transform="matrix(1.21212,0,0,1.21212,270.061,-44.1318)">
                        <circle cx="226" cy="250" r="66" style="fill:white;"/>
                    </g>
                    <g transform="matrix(2.77778,0,0,2.77778,-261.556,-657.768)">
                        <circle cx="290" cy="330" r="18" style="fill:rgb(128,68,253);"/>
                    </g>
                    <g transform="matrix(0.800694,0,0,0.7923,314.293,-7.10906)">
                        <ellipse cx="326.85" cy="295.352" rx="19.983" ry="20.194" style="fill:white;"/>
                    </g>
                </g>
                <g transform="matrix(0.704758,0,0,0.90553,119.816,39.8296)">
                    <g id="Burun">
                        <path d="M329.429,309.399L374.858,380.076L329.429,450.753L284,380.076L329.429,309.399Z" style="fill:rgb(128,68,253);"/>
                    </g>
                </g>
            </g>
        </g>
        <g class="dark:block hidden" filter="url(#shadow)">
            <g id="LogoWhite" transform="matrix(0.350985,0,0,0.350985,869.7,236.004)">
                <g transform="matrix(1,0,0,1,-64,-730.102)">
                    <g id="Sol1" serif:id="Sol">
                        <path d="M339.334,834.528C402.494,855.939 448,915.748 448,986.102C448,1074.41 376.306,1146.1 288,1146.1C199.694,1146.1 128,1074.41 128,986.102C128,966.886 131.395,948.457 137.618,931.378L137.592,931.368L192.316,781.017L339.334,834.528ZM288,909C243.847,909 208,944.847 208,989C208,1033.15 243.847,1069 288,1069C332.153,1069 368,1033.15 368,989C368,944.847 332.153,909 288,909ZM332.743,966.672C336.107,973.394 338,980.978 338,989C338,1016.6 315.596,1039 288,1039C260.404,1039 238,1016.6 238,989C238,961.404 260.404,939 288,939C296.022,939 303.606,940.893 310.328,944.257C306.484,947.181 304,951.803 304,957C304,965.831 311.169,973 320,973C325.197,973 329.819,970.516 332.743,966.672Z" style="fill:url(#_Linear4);"/>
                        <clipPath id="_clip5">
                            <path d="M339.334,834.528C402.494,855.939 448,915.748 448,986.102C448,1074.41 376.306,1146.1 288,1146.1C199.694,1146.1 128,1074.41 128,986.102C128,966.886 131.395,948.457 137.618,931.378L137.592,931.368L192.316,781.017L339.334,834.528ZM288,909C243.847,909 208,944.847 208,989C208,1033.15 243.847,1069 288,1069C332.153,1069 368,1033.15 368,989C368,944.847 332.153,909 288,909ZM332.743,966.672C336.107,973.394 338,980.978 338,989C338,1016.6 315.596,1039 288,1039C260.404,1039 238,1016.6 238,989C238,961.404 260.404,939 288,939C296.022,939 303.606,940.893 310.328,944.257C306.484,947.181 304,951.803 304,957C304,965.831 311.169,973 320,973C325.197,973 329.819,970.516 332.743,966.672Z"/>
                        </clipPath>
                        <g clip-path="url(#_clip5)">
                            <g transform="matrix(0.838433,0,0,1.09308,144.034,691.969)">
                                <path d="M329.429,309.399L374.858,380.076L329.429,450.753L284,380.076L329.429,309.399Z" style="fill-opacity:0.2;"/>
                            </g>
                        </g>
                    </g>
                </g>
                <g transform="matrix(1,0,0,1,-64,-730.102)">
                    <g id="Sag1" serif:id="Sag">
                        <path d="M693.336,928.591C700.224,946.444 704,965.835 704,986.102C704,1074.41 632.306,1146.1 544,1146.1C455.694,1146.1 384,1074.41 384,986.102C384,917.019 427.876,858.104 489.267,835.723L639.618,781L693.336,928.591ZM544,909C499.847,909 464,944.847 464,989C464,1033.15 499.847,1069 544,1069C588.153,1069 624,1033.15 624,989C624,944.847 588.153,909 544,909ZM588.743,966.672C592.107,973.394 594,980.978 594,989C594,1016.6 571.596,1039 544,1039C516.404,1039 494,1016.6 494,989C494,961.404 516.404,939 544,939C552.022,939 559.606,940.893 566.328,944.257C562.484,947.181 560,951.803 560,957C560,965.831 567.169,973 576,973C581.197,973 585.819,970.516 588.743,966.672Z" style="fill:white;"/>
                        <clipPath id="_clip6">
                            <path d="M693.336,928.591C700.224,946.444 704,965.835 704,986.102C704,1074.41 632.306,1146.1 544,1146.1C455.694,1146.1 384,1074.41 384,986.102C384,917.019 427.876,858.104 489.267,835.723L639.618,781L693.336,928.591ZM544,909C499.847,909 464,944.847 464,989C464,1033.15 499.847,1069 544,1069C588.153,1069 624,1033.15 624,989C624,944.847 588.153,909 544,909ZM588.743,966.672C592.107,973.394 594,980.978 594,989C594,1016.6 571.596,1039 544,1039C516.404,1039 494,1016.6 494,989C494,961.404 516.404,939 544,939C552.022,939 559.606,940.893 566.328,944.257C562.484,947.181 560,951.803 560,957C560,965.831 567.169,973 576,973C581.197,973 585.819,970.516 588.743,966.672Z"/>
                        </clipPath>
                        <g clip-path="url(#_clip6)">
                            <g transform="matrix(0.727883,0,0,0.91085,175.43,762.714)">
                                <path d="M329.429,309.399L374.858,380.076L329.429,450.753L284,380.076L329.429,309.399Z" style="fill-opacity:0.2;"/>
                            </g>
                        </g>
                    </g>
                </g>
                <g transform="matrix(0.704758,0,0,0.90553,119.816,39.8296)">
                    <g id="Burun1" serif:id="Burun">
                        <path d="M329.429,309.399L374.858,380.076L329.429,450.753L284,380.076L329.429,309.399Z" style="fill:white;"/>
                    </g>
                </g>
            </g>
        </g>
        <g id="Chrome-Logo" serif:id="Chrome Logo" transform="matrix(2.51164,0,0,2.51164,686.486,323.557)" filter="url(#shadow)">
            <g transform="matrix(1,0,0,1,-175,-395)">
                <g id="Chrome-Logo1" serif:id="Chrome Logo">
                    <g>
                        <g>
                            <g transform="matrix(1.43006,0,0,1.43006,140.051,360.053)">
                                <circle cx="24" cy="23.995" r="12" style="fill:white;"/>
                            </g>
                            <g transform="matrix(1.43006,0,0,1.43006,140.051,360.053)">
                                <path d="M3.215,36C7.497,43.416 15.436,48 24,48C37.166,48 48,37.166 48,24C48,10.834 37.166,0 24,0C19.787,0 15.648,1.109 12,3.215C0.598,9.798 -3.368,24.598 3.215,36ZM34.392,18C35.445,19.824 36,21.894 36,24C36,30.583 30.583,36 24,36C17.417,36 12,30.583 12,24C12,19.718 14.292,15.749 18,13.608C23.701,10.316 31.101,12.299 34.392,18Z" style="fill:none;fill-rule:nonzero;"/>
                            </g>
                            <g transform="matrix(1.43006,0,0,1.43006,140.051,360.053)">
                                <path d="M24,12L44.781,12C40.501,4.584 32.563,-0 24,-0C15.436,-0 7.497,4.585 3.217,12.003L13.608,30L13.617,29.998C12.558,28.171 12,26.097 12,23.985C12,17.41 17.41,12 23.985,12C23.99,12 23.995,12 24,12Z" style="fill:url(#_Linear10);fill-rule:nonzero;"/>
                            </g>
                            <g transform="matrix(1.43006,0,0,1.43006,140.051,360.053)">
                                <circle cx="24" cy="24" r="9.5" style="fill:rgb(26,115,232);"/>
                            </g>
                            <g transform="matrix(1.43006,0,0,1.43006,140.051,360.053)">
                                <path d="M34.391,30.003L24.001,48C24.002,48 24.003,48 24.004,48C37.167,48 47.998,37.169 47.998,24.006C47.998,19.792 46.888,15.652 44.78,12.003L23.999,12.003L23.996,12.012C24.004,12.012 24.012,12.012 24.02,12.012C30.594,12.012 36.005,17.423 36.005,23.997C36.005,26.106 35.448,28.178 34.391,30.003Z" style="fill:url(#_Linear5);fill-rule:nonzero;"/>
                            </g>
                            <g transform="matrix(1.43006,0,0,1.43006,140.051,360.053)">
                                <path d="M13.609,30.003L3.218,12.006C1.111,15.654 0.002,19.793 0.002,24.006C0.002,37.169 10.833,48 23.996,48C23.998,48 24,48 24.003,48L34.393,30.003L34.386,29.996C32.251,33.711 28.28,36.009 23.995,36.009C19.714,36.009 15.745,33.714 13.609,30.003Z" style="fill:url(#_Linear6);fill-rule:nonzero;"/>
                            </g>
                        </g>
                        <g transform="matrix(2.46777,0,0,2.46775,175.115,-2157.32)">
                            <path d="M13.555,1043.83L12.628,1043.83L12.628,1041.36C12.628,1040.68 12.072,1040.12 11.392,1040.12L8.92,1040.12L8.92,1039.19C8.92,1038.33 8.24,1037.65 7.375,1037.65C6.51,1037.65 5.83,1038.33 5.83,1039.19L5.83,1040.12L3.358,1040.12C2.678,1040.12 2.122,1040.68 2.122,1041.36L2.122,1043.71L3.049,1043.71C3.976,1043.71 4.718,1044.45 4.718,1045.38C4.718,1046.3 3.976,1047.04 3.049,1047.04L2.122,1047.04L2.122,1049.39C2.122,1050.07 2.678,1050.63 3.358,1050.63L5.707,1050.63L5.707,1049.7C5.707,1048.78 6.449,1048.03 7.376,1048.03C8.303,1048.03 9.045,1048.78 9.045,1049.7L9.045,1050.63L11.394,1050.63C12.074,1050.63 12.63,1050.07 12.63,1049.39L12.63,1046.92L13.557,1046.92C14.422,1046.92 15.102,1046.24 15.102,1045.38C15.102,1044.51 14.422,1043.83 13.557,1043.83" style="fill:rgb(77,77,77);fill-rule:nonzero;"/>
                        </g>
                    </g>
                </g>
            </g>
            <g transform="matrix(1,0,0,1,-175,-395)">
                <g id="Chrome-Logo2" serif:id="Chrome Logo">
                    <g>
                        <g>
                            <g transform="matrix(1.43006,0,0,1.43006,140.051,360.053)">
                                <circle cx="24" cy="23.995" r="12" style="fill:white;"/>
                            </g>
                            <g transform="matrix(1.43006,0,0,1.43006,140.051,360.053)">
                                <path d="M3.215,36C7.497,43.416 15.436,48 24,48C37.166,48 48,37.166 48,24C48,10.834 37.166,0 24,0C19.787,0 15.648,1.109 12,3.215C0.598,9.798 -3.368,24.598 3.215,36ZM34.392,18C35.445,19.824 36,21.894 36,24C36,30.583 30.583,36 24,36C17.417,36 12,30.583 12,24C12,19.718 14.292,15.749 18,13.608C23.701,10.316 31.101,12.299 34.392,18Z" style="fill:none;fill-rule:nonzero;"/>
                            </g>
                            <g transform="matrix(1.43006,0,0,1.43006,140.051,360.053)">
                                <path d="M24,12L44.781,12C40.501,4.584 32.563,-0 24,-0C15.436,-0 7.497,4.585 3.217,12.003L13.608,30L13.617,29.998C12.558,28.171 12,26.097 12,23.985C12,17.41 17.41,12 23.985,12C23.99,12 23.995,12 24,12Z" style="fill:url(#_Linear7);fill-rule:nonzero;"/>
                            </g>
                            <g transform="matrix(1.43006,0,0,1.43006,140.051,360.053)">
                                <circle cx="24" cy="24" r="9.5" style="fill:rgb(26,115,232);"/>
                            </g>
                            <g transform="matrix(1.43006,0,0,1.43006,140.051,360.053)">
                                <path d="M34.391,30.003L24.001,48C24.002,48 24.003,48 24.004,48C37.167,48 47.998,37.169 47.998,24.006C47.998,19.792 46.888,15.652 44.78,12.003L23.999,12.003L23.996,12.012C24.004,12.012 24.012,12.012 24.02,12.012C30.594,12.012 36.005,17.423 36.005,23.997C36.005,26.106 35.448,28.178 34.391,30.003Z" style="fill:url(#_Linear8);fill-rule:nonzero;"/>
                            </g>
                            <g transform="matrix(1.43006,0,0,1.43006,140.051,360.053)">
                                <path d="M13.609,30.003L3.218,12.006C1.111,15.654 0.002,19.793 0.002,24.006C0.002,37.169 10.833,48 23.996,48C23.998,48 24,48 24.003,48L34.393,30.003L34.386,29.996C32.251,33.711 28.28,36.009 23.995,36.009C19.714,36.009 15.745,33.714 13.609,30.003Z" style="fill:url(#_Linear9);fill-rule:nonzero;"/>
                            </g>
                        </g>
                        <g transform="matrix(2.46777,0,0,2.46775,175.115,-2157.32)">
                            <path d="M13.555,1043.83L12.628,1043.83L12.628,1041.36C12.628,1040.68 12.072,1040.12 11.392,1040.12L8.92,1040.12L8.92,1039.19C8.92,1038.33 8.24,1037.65 7.375,1037.65C6.51,1037.65 5.83,1038.33 5.83,1039.19L5.83,1040.12L3.358,1040.12C2.678,1040.12 2.122,1040.68 2.122,1041.36L2.122,1043.71L3.049,1043.71C3.976,1043.71 4.718,1044.45 4.718,1045.38C4.718,1046.3 3.976,1047.04 3.049,1047.04L2.122,1047.04L2.122,1049.39C2.122,1050.07 2.678,1050.63 3.358,1050.63L5.707,1050.63L5.707,1049.7C5.707,1048.78 6.449,1048.03 7.376,1048.03C8.303,1048.03 9.045,1048.78 9.045,1049.7L9.045,1050.63L11.394,1050.63C12.074,1050.63 12.63,1050.07 12.63,1049.39L12.63,1046.92L13.557,1046.92C14.422,1046.92 15.102,1046.24 15.102,1045.38C15.102,1044.51 14.422,1043.83 13.557,1043.83" style="fill:rgb(77,77,77);fill-rule:nonzero;"/>
                        </g>
                    </g>
                </g>
            </g>
        </g>
        <g id="slack" transform="matrix(1.55594,0,0,1.55594,462.494,530.567)" filter="url(#shadow)">
            <g transform="matrix(1,0,0,1,-475,-395)">
                <g id="slack1" serif:id="slack">
                    <g>
                        <g transform="matrix(1,0,0,1,475,395)">
                            <circle cx="0" cy="0" r="34.32" style="fill:rgb(88,30,90);"/>
                        </g>
                        <g transform="matrix(0.35828,0,0,0.35828,452.231,372.285)">
                            <path d="M27.2,80C27.2,87.3 21.3,93.2 14,93.2C6.7,93.2 0.8,87.3 0.8,80C0.8,72.7 6.7,66.8 14,66.8L27.2,66.8L27.2,80ZM33.8,80C33.8,72.7 39.7,66.8 47,66.8C54.3,66.8 60.2,72.7 60.2,80L60.2,113C60.2,120.3 54.3,126.2 47,126.2C39.7,126.2 33.8,120.3 33.8,113L33.8,80Z" style="fill:rgb(224,30,90);fill-rule:nonzero;"/>
                            <path d="M47,27C39.7,27 33.8,21.1 33.8,13.8C33.8,6.5 39.7,0.6 47,0.6C54.3,0.6 60.2,6.5 60.2,13.8L60.2,27L47,27ZM47,33.7C54.3,33.7 60.2,39.6 60.2,46.9C60.2,54.2 54.3,60.1 47,60.1L13.9,60.1C6.6,60.1 0.7,54.2 0.7,46.9C0.7,39.6 6.6,33.7 13.9,33.7L47,33.7Z" style="fill:rgb(54,197,240);fill-rule:nonzero;"/>
                            <path d="M99.9,46.9C99.9,39.6 105.8,33.7 113.1,33.7C120.4,33.7 126.3,39.6 126.3,46.9C126.3,54.2 120.4,60.1 113.1,60.1L99.9,60.1L99.9,46.9ZM93.3,46.9C93.3,54.2 87.4,60.1 80.1,60.1C72.8,60.1 66.9,54.2 66.9,46.9L66.9,13.8C66.9,6.5 72.8,0.6 80.1,0.6C87.4,0.6 93.3,6.5 93.3,13.8L93.3,46.9Z" style="fill:rgb(46,182,125);fill-rule:nonzero;"/>
                            <path d="M80.1,99.8C87.4,99.8 93.3,105.7 93.3,113C93.3,120.3 87.4,126.2 80.1,126.2C72.8,126.2 66.9,120.3 66.9,113L66.9,99.8L80.1,99.8ZM80.1,93.2C72.8,93.2 66.9,87.3 66.9,80C66.9,72.7 72.8,66.8 80.1,66.8L113.2,66.8C120.5,66.8 126.4,72.7 126.4,80C126.4,87.3 120.5,93.2 113.2,93.2L80.1,93.2Z" style="fill:rgb(236,178,46);fill-rule:nonzero;"/>
                        </g>
                    </g>
                </g>
            </g>
            <g transform="matrix(1,0,0,1,-475,-395)">
                <g id="slack2" serif:id="slack">
                    <g>
                        <g transform="matrix(1,0,0,1,475,395)">
                            <circle cx="0" cy="0" r="34.32" style="fill:rgb(88,30,90);"/>
                        </g>
                        <g transform="matrix(0.35828,0,0,0.35828,452.231,372.285)">
                            <path d="M27.2,80C27.2,87.3 21.3,93.2 14,93.2C6.7,93.2 0.8,87.3 0.8,80C0.8,72.7 6.7,66.8 14,66.8L27.2,66.8L27.2,80ZM33.8,80C33.8,72.7 39.7,66.8 47,66.8C54.3,66.8 60.2,72.7 60.2,80L60.2,113C60.2,120.3 54.3,126.2 47,126.2C39.7,126.2 33.8,120.3 33.8,113L33.8,80Z" style="fill:rgb(224,30,90);fill-rule:nonzero;"/>
                            <path d="M47,27C39.7,27 33.8,21.1 33.8,13.8C33.8,6.5 39.7,0.6 47,0.6C54.3,0.6 60.2,6.5 60.2,13.8L60.2,27L47,27ZM47,33.7C54.3,33.7 60.2,39.6 60.2,46.9C60.2,54.2 54.3,60.1 47,60.1L13.9,60.1C6.6,60.1 0.7,54.2 0.7,46.9C0.7,39.6 6.6,33.7 13.9,33.7L47,33.7Z" style="fill:rgb(54,197,240);fill-rule:nonzero;"/>
                            <path d="M99.9,46.9C99.9,39.6 105.8,33.7 113.1,33.7C120.4,33.7 126.3,39.6 126.3,46.9C126.3,54.2 120.4,60.1 113.1,60.1L99.9,60.1L99.9,46.9ZM93.3,46.9C93.3,54.2 87.4,60.1 80.1,60.1C72.8,60.1 66.9,54.2 66.9,46.9L66.9,13.8C66.9,6.5 72.8,0.6 80.1,0.6C87.4,0.6 93.3,6.5 93.3,13.8L93.3,46.9Z" style="fill:rgb(46,182,125);fill-rule:nonzero;"/>
                            <path d="M80.1,99.8C87.4,99.8 93.3,105.7 93.3,113C93.3,120.3 87.4,126.2 80.1,126.2C72.8,126.2 66.9,120.3 66.9,113L66.9,99.8L80.1,99.8ZM80.1,93.2C72.8,93.2 66.9,87.3 66.9,80C66.9,72.7 72.8,66.8 80.1,66.8L113.2,66.8C120.5,66.8 126.4,72.7 126.4,80C126.4,87.3 120.5,93.2 113.2,93.2L80.1,93.2Z" style="fill:rgb(236,178,46);fill-rule:nonzero;"/>
                        </g>
                    </g>
                </g>
            </g>
        </g>
        <g id="mailchimp" transform="matrix(1.11987,0,0,1.11987,153.68,534.246)" filter="url(#shadow)">
            <g transform="matrix(0.421112,0,0,0.421112,-57.1819,-40.3906)">
                <g id="mailchimp1" serif:id="mailchimp">
                    <g>
                        <g>
                            <path d="M113,21.3C121.78,12.16 134,6.5 147.5,6.5C165.5,6.5 181.1,16.5 189.5,31.4C196.956,28.067 205.033,26.346 213.2,26.35C245.6,26.35 271.9,52.85 271.9,85.55C271.9,118.25 245.6,144.75 213.2,144.75C209.24,144.75 205.38,144.352 201.6,143.6C194.25,156.7 180.2,165.6 164.2,165.6C157.686,165.613 151.255,164.135 145.4,161.28C137.95,178.78 120.6,191.08 100.4,191.08C79.3,191.08 61.4,177.78 54.5,159.08C51.429,159.728 48.299,160.054 45.16,160.052C20.06,160.052 -0.24,139.452 -0.24,114.152C-0.24,97.152 8.9,82.352 22.46,74.352C19.583,67.725 18.102,60.576 18.11,53.352C18.11,24.152 41.81,0.552 71.01,0.552C88.11,0.552 103.41,8.702 113.01,21.352" style="fill:rgb(0,161,224);"/>
                            <path d="M39.4,99.3C39.229,99.746 39.461,99.839 39.516,99.918C40.027,100.288 40.546,100.556 41.066,100.857C43.846,102.327 46.466,102.757 49.206,102.757C54.786,102.757 58.256,99.787 58.256,95.007L58.256,94.913C58.256,90.493 54.336,88.883 50.676,87.733L50.197,87.578C47.427,86.68 45.037,85.898 45.037,84.078L45.037,83.985C45.037,82.425 46.437,81.275 48.597,81.275C50.997,81.275 53.857,82.074 55.687,83.085C55.687,83.085 56.229,83.435 56.426,82.912C56.533,82.629 57.466,80.132 57.566,79.852C57.672,79.559 57.486,79.338 57.295,79.224C55.195,77.944 52.295,77.074 49.295,77.074L48.738,77.076C43.628,77.076 40.058,80.166 40.058,84.586L40.058,84.681C40.058,89.341 43.998,90.861 47.678,91.911L48.27,92.095C50.95,92.919 53.27,93.635 53.27,95.515L53.27,95.609C53.27,97.339 51.76,98.629 49.34,98.629C48.399,98.629 45.4,98.613 42.15,96.559C41.757,96.33 41.533,96.165 41.23,95.98C41.07,95.883 40.67,95.708 40.496,96.232L39.396,99.292M121.096,99.292C120.925,99.738 121.157,99.831 121.214,99.91C121.723,100.28 122.244,100.548 122.764,100.849C125.544,102.319 128.164,102.749 130.904,102.749C136.484,102.749 139.954,99.779 139.954,94.999L139.954,94.905C139.954,90.485 136.044,88.875 132.374,87.725L131.895,87.57C129.125,86.672 126.735,85.89 126.735,84.07L126.735,83.977C126.735,82.417 128.135,81.267 130.295,81.267C132.695,81.267 135.545,82.066 137.385,83.077C137.385,83.077 137.927,83.427 138.125,82.904C138.231,82.621 139.165,80.124 139.255,79.844C139.362,79.551 139.175,79.33 138.985,79.216C136.885,77.936 133.985,77.066 130.985,77.066L130.427,77.068C125.317,77.068 121.747,80.158 121.747,84.578L121.747,84.673C121.747,89.333 125.687,90.853 129.367,91.903L129.958,92.087C132.648,92.911 134.958,93.627 134.958,95.507L134.958,95.601C134.958,97.331 133.448,98.621 131.028,98.621C130.085,98.621 127.078,98.605 123.838,96.551C123.445,96.322 123.215,96.164 122.917,95.972C122.816,95.908 122.345,95.724 122.184,96.224L121.084,99.284M176.884,89.924C176.884,92.624 176.38,94.754 175.394,96.264C174.41,97.754 172.924,98.484 170.854,98.484C168.784,98.484 167.304,97.76 166.334,96.274C165.357,94.774 164.864,92.634 164.864,89.934C164.864,87.234 165.36,85.114 166.334,83.624C167.302,82.144 168.774,81.434 170.854,81.434C172.934,81.434 174.414,82.151 175.394,83.624C176.386,85.114 176.884,87.234 176.884,89.934M181.544,84.924C181.085,83.374 180.374,82.014 179.424,80.874C178.473,79.734 177.274,78.814 175.844,78.154C174.424,77.489 172.744,77.154 170.844,77.154C168.944,77.154 167.274,77.491 165.844,78.154C164.424,78.818 163.214,79.734 162.264,80.874C161.316,82.014 160.604,83.374 160.144,84.924C159.689,86.464 159.458,88.144 159.458,89.934C159.458,91.724 159.689,93.404 160.144,94.944C160.601,96.494 161.314,97.854 162.264,98.994C163.215,100.134 164.424,101.044 165.844,101.694C167.274,102.342 168.954,102.672 170.844,102.672C172.734,102.672 174.414,102.342 175.834,101.694C177.254,101.046 178.464,100.134 179.414,98.994C180.363,97.854 181.074,96.494 181.534,94.944C181.988,93.404 182.219,91.724 182.219,89.934C182.219,88.154 181.988,86.464 181.534,84.924M219.834,97.724C219.681,97.271 219.239,97.442 219.239,97.442C218.562,97.701 217.839,97.941 217.069,98.061C216.293,98.183 215.429,98.244 214.519,98.244C212.269,98.244 210.469,97.573 209.189,96.244C207.899,94.914 207.179,92.774 207.189,89.874C207.196,87.234 207.834,85.254 208.979,83.734C210.109,82.234 211.849,81.454 214.149,81.454C216.069,81.454 217.539,81.677 219.079,82.159C219.079,82.159 219.444,82.318 219.619,81.837C220.028,80.707 220.33,79.897 220.769,78.657C220.893,78.302 220.589,78.152 220.478,78.109C219.874,77.873 218.448,77.486 217.368,77.323C216.358,77.169 215.188,77.089 213.868,77.089C211.908,77.089 210.168,77.424 208.678,78.088C207.188,78.751 205.928,79.668 204.928,80.808C203.928,81.948 203.168,83.308 202.658,84.858C202.153,86.398 201.898,88.088 201.898,89.878C201.898,93.738 202.938,96.868 204.998,99.158C207.058,101.458 210.158,102.618 214.198,102.618C216.588,102.618 219.038,102.135 220.798,101.438C220.798,101.438 221.134,101.276 220.988,100.884L219.838,97.724M227.988,87.324C228.211,85.824 228.622,84.574 229.268,83.604C230.235,82.124 231.708,81.314 233.778,81.314C235.848,81.314 237.218,82.128 238.198,83.604C238.848,84.579 239.132,85.874 239.238,87.324L227.938,87.322L227.988,87.324ZM243.688,84.024C243.291,82.534 242.308,81.024 241.668,80.334C240.648,79.244 239.658,78.474 238.668,78.054C237.239,77.446 235.701,77.134 234.148,77.137C232.178,77.137 230.388,77.47 228.938,78.147C227.488,78.829 226.268,79.757 225.308,80.917C224.349,82.077 223.628,83.447 223.168,85.017C222.708,86.567 222.476,88.267 222.476,90.047C222.476,91.867 222.717,93.557 223.191,95.087C223.67,96.627 224.441,97.977 225.481,99.097C226.521,100.227 227.851,101.107 229.451,101.727C231.041,102.342 232.971,102.661 235.181,102.654C239.741,102.639 242.141,101.624 243.121,101.074C243.296,100.976 243.461,100.807 243.255,100.32L242.225,97.43C242.067,96.999 241.631,97.155 241.631,97.155C240.501,97.577 238.901,98.335 235.151,98.325C232.701,98.321 230.891,97.598 229.751,96.465C228.591,95.305 228.011,93.615 227.921,91.215L243.721,91.227C243.721,91.227 244.137,91.223 244.18,90.817C244.197,90.649 244.721,87.577 243.709,84.027L243.688,84.024ZM101.688,87.324C101.911,85.824 102.323,84.574 102.968,83.604C103.936,82.124 105.408,81.314 107.478,81.314C109.548,81.314 110.918,82.128 111.898,83.604C112.547,84.579 112.831,85.874 112.938,87.324L101.638,87.322L101.688,87.324ZM117.388,84.024C116.992,82.534 116.008,81.024 115.368,80.334C114.348,79.244 113.358,78.474 112.368,78.054C110.939,77.446 109.401,77.134 107.848,77.137C105.878,77.137 104.088,77.47 102.638,78.147C101.188,78.829 99.968,79.757 99.008,80.917C98.051,82.077 97.328,83.447 96.868,85.017C96.409,86.567 96.178,88.267 96.178,90.047C96.178,91.867 96.417,93.557 96.894,95.087C97.372,96.627 98.144,97.977 99.174,99.097C100.214,100.227 101.544,101.107 103.144,101.727C104.734,102.342 106.654,102.661 108.874,102.654C113.434,102.639 115.834,101.624 116.814,101.074C116.988,100.976 117.154,100.807 116.947,100.32L115.917,97.43C115.758,96.999 115.322,97.155 115.322,97.155C114.192,97.577 112.592,98.335 108.842,98.325C106.402,98.321 104.582,97.598 103.442,96.465C102.282,95.305 101.702,93.615 101.612,91.215L117.412,91.227C117.412,91.227 117.828,91.223 117.871,90.817C117.888,90.649 118.412,87.577 117.399,84.027L117.388,84.024ZM67.588,97.624C66.969,97.13 66.883,97.009 66.678,96.688C66.365,96.205 66.205,95.518 66.205,94.638C66.205,93.258 66.665,92.258 67.615,91.588C67.605,91.59 68.975,90.408 72.195,90.448C73.628,90.474 75.058,90.596 76.475,90.813L76.475,97.983L76.477,97.983C76.477,97.983 74.477,98.414 72.217,98.55C69.007,98.743 67.587,97.626 67.597,97.629L67.588,97.624ZM73.868,86.524C73.228,86.477 72.398,86.454 71.408,86.454C70.058,86.454 68.748,86.622 67.528,86.952C66.298,87.284 65.188,87.798 64.238,88.482C63.285,89.162 62.502,90.051 61.948,91.082C61.389,92.122 61.104,93.342 61.104,94.722C61.104,96.122 61.347,97.332 61.827,98.322C62.297,99.304 63.005,100.153 63.887,100.792C64.764,101.43 65.847,101.902 67.097,102.182C68.337,102.465 69.737,102.608 71.277,102.608C72.897,102.608 74.507,102.472 76.067,102.209C77.396,101.98 78.719,101.722 80.037,101.437C80.563,101.316 81.147,101.157 81.147,101.157C81.537,101.058 81.507,100.641 81.507,100.641L81.498,86.241C81.498,83.081 80.654,80.731 78.988,79.281C77.328,77.831 74.898,77.101 71.748,77.101C70.568,77.101 68.658,77.261 67.518,77.49C67.518,77.49 64.078,78.158 62.658,79.27C62.658,79.27 62.346,79.462 62.516,79.897L63.636,82.897C63.775,83.286 64.154,83.153 64.154,83.153C64.154,83.153 64.273,83.106 64.413,83.023C67.443,81.373 71.283,81.423 71.283,81.423C72.983,81.423 74.303,81.768 75.183,82.443C76.044,83.104 76.483,84.103 76.483,86.203L76.483,86.87C75.133,86.674 73.883,86.561 73.883,86.561L73.868,86.524ZM200.868,78.394C200.891,78.34 200.903,78.283 200.903,78.225C200.903,78.049 200.795,77.89 200.631,77.826C200.362,77.724 199.021,77.441 197.991,77.377C196.011,77.253 194.911,77.587 193.921,78.031C192.943,78.472 191.861,79.181 191.261,80.001L191.259,78.081C191.259,77.817 191.072,77.604 190.806,77.604L186.766,77.604C186.504,77.604 186.314,77.817 186.314,78.081L186.314,101.581C186.315,101.844 186.53,102.059 186.793,102.06L190.933,102.06C191.195,102.059 191.411,101.843 191.411,101.581L191.411,89.781C191.411,88.201 191.585,86.631 191.932,85.641C192.274,84.662 192.739,83.881 193.312,83.321C193.859,82.78 194.528,82.379 195.262,82.151C195.951,81.953 196.665,81.853 197.382,81.853C198.207,81.853 199.112,82.065 199.112,82.065C199.416,82.099 199.585,81.913 199.688,81.639C199.959,80.918 200.728,78.759 200.878,78.329" style="fill:rgb(255,255,254);"/>
                            <path d="M162.201,67.548C161.689,67.393 161.169,67.27 160.642,67.178C159.934,67.06 159.216,67.004 158.498,67.012C155.645,67.012 153.396,67.818 151.817,69.41C150.249,70.99 149.182,73.397 148.647,76.564L148.454,77.633L144.873,77.633C144.873,77.633 144.436,77.615 144.344,78.092L143.756,81.372C143.715,81.686 143.85,81.882 144.27,81.88L147.756,81.88L144.219,101.623C143.942,103.213 143.625,104.521 143.274,105.512C142.928,106.49 142.59,107.223 142.174,107.755C141.771,108.27 141.389,108.649 140.73,108.87C140.186,109.053 139.56,109.137 138.874,109.137C138.492,109.137 137.984,109.073 137.609,108.998C137.234,108.924 137.039,108.84 136.758,108.722C136.758,108.722 136.349,108.566 136.188,108.976C136.057,109.311 135.128,111.866 135.018,112.182C134.906,112.494 135.063,112.74 135.261,112.811C135.725,112.977 136.07,113.083 136.702,113.232C137.58,113.439 138.32,113.452 139.013,113.452C140.465,113.452 141.788,113.248 142.885,112.852C143.989,112.453 144.95,111.758 145.8,110.817C146.719,109.802 147.297,108.739 147.85,107.289C148.397,105.852 148.863,104.068 149.236,101.989L152.79,81.88L157.986,81.88C157.986,81.88 158.424,81.896 158.515,81.421L159.103,78.141C159.144,77.827 159.01,77.631 158.588,77.633L153.545,77.633C153.57,77.519 153.799,75.745 154.378,74.075C154.625,73.362 155.09,72.787 155.484,72.392C155.852,72.016 156.305,71.734 156.805,71.57C157.353,71.401 157.924,71.318 158.498,71.326C158.973,71.326 159.439,71.383 159.794,71.457C160.283,71.561 160.473,71.616 160.601,71.654C161.115,71.811 161.184,71.659 161.285,71.41L162.491,68.098C162.615,67.742 162.313,67.592 162.201,67.548M91.727,101.665C91.727,101.929 91.539,102.144 91.275,102.144L87.092,102.144C86.827,102.144 86.639,101.929 86.639,101.665L86.639,67.997C86.639,67.734 86.827,67.521 87.092,67.521L91.275,67.521C91.539,67.521 91.727,67.734 91.727,67.997L91.727,101.665" style="fill:rgb(255,255,254);"/>
                        </g>
                    </g>
                </g>
            </g>
            <g transform="matrix(0.421112,0,0,0.421112,-57.1819,-40.3906)">
                <g id="mailchimp2" serif:id="mailchimp">
                    <g>
                        <g>
                            <path d="M113,21.3C121.78,12.16 134,6.5 147.5,6.5C165.5,6.5 181.1,16.5 189.5,31.4C196.956,28.067 205.033,26.346 213.2,26.35C245.6,26.35 271.9,52.85 271.9,85.55C271.9,118.25 245.6,144.75 213.2,144.75C209.24,144.75 205.38,144.352 201.6,143.6C194.25,156.7 180.2,165.6 164.2,165.6C157.686,165.613 151.255,164.135 145.4,161.28C137.95,178.78 120.6,191.08 100.4,191.08C79.3,191.08 61.4,177.78 54.5,159.08C51.429,159.728 48.299,160.054 45.16,160.052C20.06,160.052 -0.24,139.452 -0.24,114.152C-0.24,97.152 8.9,82.352 22.46,74.352C19.583,67.725 18.102,60.576 18.11,53.352C18.11,24.152 41.81,0.552 71.01,0.552C88.11,0.552 103.41,8.702 113.01,21.352" style="fill:rgb(0,161,224);"/>
                            <path d="M39.4,99.3C39.229,99.746 39.461,99.839 39.516,99.918C40.027,100.288 40.546,100.556 41.066,100.857C43.846,102.327 46.466,102.757 49.206,102.757C54.786,102.757 58.256,99.787 58.256,95.007L58.256,94.913C58.256,90.493 54.336,88.883 50.676,87.733L50.197,87.578C47.427,86.68 45.037,85.898 45.037,84.078L45.037,83.985C45.037,82.425 46.437,81.275 48.597,81.275C50.997,81.275 53.857,82.074 55.687,83.085C55.687,83.085 56.229,83.435 56.426,82.912C56.533,82.629 57.466,80.132 57.566,79.852C57.672,79.559 57.486,79.338 57.295,79.224C55.195,77.944 52.295,77.074 49.295,77.074L48.738,77.076C43.628,77.076 40.058,80.166 40.058,84.586L40.058,84.681C40.058,89.341 43.998,90.861 47.678,91.911L48.27,92.095C50.95,92.919 53.27,93.635 53.27,95.515L53.27,95.609C53.27,97.339 51.76,98.629 49.34,98.629C48.399,98.629 45.4,98.613 42.15,96.559C41.757,96.33 41.533,96.165 41.23,95.98C41.07,95.883 40.67,95.708 40.496,96.232L39.396,99.292M121.096,99.292C120.925,99.738 121.157,99.831 121.214,99.91C121.723,100.28 122.244,100.548 122.764,100.849C125.544,102.319 128.164,102.749 130.904,102.749C136.484,102.749 139.954,99.779 139.954,94.999L139.954,94.905C139.954,90.485 136.044,88.875 132.374,87.725L131.895,87.57C129.125,86.672 126.735,85.89 126.735,84.07L126.735,83.977C126.735,82.417 128.135,81.267 130.295,81.267C132.695,81.267 135.545,82.066 137.385,83.077C137.385,83.077 137.927,83.427 138.125,82.904C138.231,82.621 139.165,80.124 139.255,79.844C139.362,79.551 139.175,79.33 138.985,79.216C136.885,77.936 133.985,77.066 130.985,77.066L130.427,77.068C125.317,77.068 121.747,80.158 121.747,84.578L121.747,84.673C121.747,89.333 125.687,90.853 129.367,91.903L129.958,92.087C132.648,92.911 134.958,93.627 134.958,95.507L134.958,95.601C134.958,97.331 133.448,98.621 131.028,98.621C130.085,98.621 127.078,98.605 123.838,96.551C123.445,96.322 123.215,96.164 122.917,95.972C122.816,95.908 122.345,95.724 122.184,96.224L121.084,99.284M176.884,89.924C176.884,92.624 176.38,94.754 175.394,96.264C174.41,97.754 172.924,98.484 170.854,98.484C168.784,98.484 167.304,97.76 166.334,96.274C165.357,94.774 164.864,92.634 164.864,89.934C164.864,87.234 165.36,85.114 166.334,83.624C167.302,82.144 168.774,81.434 170.854,81.434C172.934,81.434 174.414,82.151 175.394,83.624C176.386,85.114 176.884,87.234 176.884,89.934M181.544,84.924C181.085,83.374 180.374,82.014 179.424,80.874C178.473,79.734 177.274,78.814 175.844,78.154C174.424,77.489 172.744,77.154 170.844,77.154C168.944,77.154 167.274,77.491 165.844,78.154C164.424,78.818 163.214,79.734 162.264,80.874C161.316,82.014 160.604,83.374 160.144,84.924C159.689,86.464 159.458,88.144 159.458,89.934C159.458,91.724 159.689,93.404 160.144,94.944C160.601,96.494 161.314,97.854 162.264,98.994C163.215,100.134 164.424,101.044 165.844,101.694C167.274,102.342 168.954,102.672 170.844,102.672C172.734,102.672 174.414,102.342 175.834,101.694C177.254,101.046 178.464,100.134 179.414,98.994C180.363,97.854 181.074,96.494 181.534,94.944C181.988,93.404 182.219,91.724 182.219,89.934C182.219,88.154 181.988,86.464 181.534,84.924M219.834,97.724C219.681,97.271 219.239,97.442 219.239,97.442C218.562,97.701 217.839,97.941 217.069,98.061C216.293,98.183 215.429,98.244 214.519,98.244C212.269,98.244 210.469,97.573 209.189,96.244C207.899,94.914 207.179,92.774 207.189,89.874C207.196,87.234 207.834,85.254 208.979,83.734C210.109,82.234 211.849,81.454 214.149,81.454C216.069,81.454 217.539,81.677 219.079,82.159C219.079,82.159 219.444,82.318 219.619,81.837C220.028,80.707 220.33,79.897 220.769,78.657C220.893,78.302 220.589,78.152 220.478,78.109C219.874,77.873 218.448,77.486 217.368,77.323C216.358,77.169 215.188,77.089 213.868,77.089C211.908,77.089 210.168,77.424 208.678,78.088C207.188,78.751 205.928,79.668 204.928,80.808C203.928,81.948 203.168,83.308 202.658,84.858C202.153,86.398 201.898,88.088 201.898,89.878C201.898,93.738 202.938,96.868 204.998,99.158C207.058,101.458 210.158,102.618 214.198,102.618C216.588,102.618 219.038,102.135 220.798,101.438C220.798,101.438 221.134,101.276 220.988,100.884L219.838,97.724M227.988,87.324C228.211,85.824 228.622,84.574 229.268,83.604C230.235,82.124 231.708,81.314 233.778,81.314C235.848,81.314 237.218,82.128 238.198,83.604C238.848,84.579 239.132,85.874 239.238,87.324L227.938,87.322L227.988,87.324ZM243.688,84.024C243.291,82.534 242.308,81.024 241.668,80.334C240.648,79.244 239.658,78.474 238.668,78.054C237.239,77.446 235.701,77.134 234.148,77.137C232.178,77.137 230.388,77.47 228.938,78.147C227.488,78.829 226.268,79.757 225.308,80.917C224.349,82.077 223.628,83.447 223.168,85.017C222.708,86.567 222.476,88.267 222.476,90.047C222.476,91.867 222.717,93.557 223.191,95.087C223.67,96.627 224.441,97.977 225.481,99.097C226.521,100.227 227.851,101.107 229.451,101.727C231.041,102.342 232.971,102.661 235.181,102.654C239.741,102.639 242.141,101.624 243.121,101.074C243.296,100.976 243.461,100.807 243.255,100.32L242.225,97.43C242.067,96.999 241.631,97.155 241.631,97.155C240.501,97.577 238.901,98.335 235.151,98.325C232.701,98.321 230.891,97.598 229.751,96.465C228.591,95.305 228.011,93.615 227.921,91.215L243.721,91.227C243.721,91.227 244.137,91.223 244.18,90.817C244.197,90.649 244.721,87.577 243.709,84.027L243.688,84.024ZM101.688,87.324C101.911,85.824 102.323,84.574 102.968,83.604C103.936,82.124 105.408,81.314 107.478,81.314C109.548,81.314 110.918,82.128 111.898,83.604C112.547,84.579 112.831,85.874 112.938,87.324L101.638,87.322L101.688,87.324ZM117.388,84.024C116.992,82.534 116.008,81.024 115.368,80.334C114.348,79.244 113.358,78.474 112.368,78.054C110.939,77.446 109.401,77.134 107.848,77.137C105.878,77.137 104.088,77.47 102.638,78.147C101.188,78.829 99.968,79.757 99.008,80.917C98.051,82.077 97.328,83.447 96.868,85.017C96.409,86.567 96.178,88.267 96.178,90.047C96.178,91.867 96.417,93.557 96.894,95.087C97.372,96.627 98.144,97.977 99.174,99.097C100.214,100.227 101.544,101.107 103.144,101.727C104.734,102.342 106.654,102.661 108.874,102.654C113.434,102.639 115.834,101.624 116.814,101.074C116.988,100.976 117.154,100.807 116.947,100.32L115.917,97.43C115.758,96.999 115.322,97.155 115.322,97.155C114.192,97.577 112.592,98.335 108.842,98.325C106.402,98.321 104.582,97.598 103.442,96.465C102.282,95.305 101.702,93.615 101.612,91.215L117.412,91.227C117.412,91.227 117.828,91.223 117.871,90.817C117.888,90.649 118.412,87.577 117.399,84.027L117.388,84.024ZM67.588,97.624C66.969,97.13 66.883,97.009 66.678,96.688C66.365,96.205 66.205,95.518 66.205,94.638C66.205,93.258 66.665,92.258 67.615,91.588C67.605,91.59 68.975,90.408 72.195,90.448C73.628,90.474 75.058,90.596 76.475,90.813L76.475,97.983L76.477,97.983C76.477,97.983 74.477,98.414 72.217,98.55C69.007,98.743 67.587,97.626 67.597,97.629L67.588,97.624ZM73.868,86.524C73.228,86.477 72.398,86.454 71.408,86.454C70.058,86.454 68.748,86.622 67.528,86.952C66.298,87.284 65.188,87.798 64.238,88.482C63.285,89.162 62.502,90.051 61.948,91.082C61.389,92.122 61.104,93.342 61.104,94.722C61.104,96.122 61.347,97.332 61.827,98.322C62.297,99.304 63.005,100.153 63.887,100.792C64.764,101.43 65.847,101.902 67.097,102.182C68.337,102.465 69.737,102.608 71.277,102.608C72.897,102.608 74.507,102.472 76.067,102.209C77.396,101.98 78.719,101.722 80.037,101.437C80.563,101.316 81.147,101.157 81.147,101.157C81.537,101.058 81.507,100.641 81.507,100.641L81.498,86.241C81.498,83.081 80.654,80.731 78.988,79.281C77.328,77.831 74.898,77.101 71.748,77.101C70.568,77.101 68.658,77.261 67.518,77.49C67.518,77.49 64.078,78.158 62.658,79.27C62.658,79.27 62.346,79.462 62.516,79.897L63.636,82.897C63.775,83.286 64.154,83.153 64.154,83.153C64.154,83.153 64.273,83.106 64.413,83.023C67.443,81.373 71.283,81.423 71.283,81.423C72.983,81.423 74.303,81.768 75.183,82.443C76.044,83.104 76.483,84.103 76.483,86.203L76.483,86.87C75.133,86.674 73.883,86.561 73.883,86.561L73.868,86.524ZM200.868,78.394C200.891,78.34 200.903,78.283 200.903,78.225C200.903,78.049 200.795,77.89 200.631,77.826C200.362,77.724 199.021,77.441 197.991,77.377C196.011,77.253 194.911,77.587 193.921,78.031C192.943,78.472 191.861,79.181 191.261,80.001L191.259,78.081C191.259,77.817 191.072,77.604 190.806,77.604L186.766,77.604C186.504,77.604 186.314,77.817 186.314,78.081L186.314,101.581C186.315,101.844 186.53,102.059 186.793,102.06L190.933,102.06C191.195,102.059 191.411,101.843 191.411,101.581L191.411,89.781C191.411,88.201 191.585,86.631 191.932,85.641C192.274,84.662 192.739,83.881 193.312,83.321C193.859,82.78 194.528,82.379 195.262,82.151C195.951,81.953 196.665,81.853 197.382,81.853C198.207,81.853 199.112,82.065 199.112,82.065C199.416,82.099 199.585,81.913 199.688,81.639C199.959,80.918 200.728,78.759 200.878,78.329" style="fill:rgb(255,255,254);"/>
                            <path d="M162.201,67.548C161.689,67.393 161.169,67.27 160.642,67.178C159.934,67.06 159.216,67.004 158.498,67.012C155.645,67.012 153.396,67.818 151.817,69.41C150.249,70.99 149.182,73.397 148.647,76.564L148.454,77.633L144.873,77.633C144.873,77.633 144.436,77.615 144.344,78.092L143.756,81.372C143.715,81.686 143.85,81.882 144.27,81.88L147.756,81.88L144.219,101.623C143.942,103.213 143.625,104.521 143.274,105.512C142.928,106.49 142.59,107.223 142.174,107.755C141.771,108.27 141.389,108.649 140.73,108.87C140.186,109.053 139.56,109.137 138.874,109.137C138.492,109.137 137.984,109.073 137.609,108.998C137.234,108.924 137.039,108.84 136.758,108.722C136.758,108.722 136.349,108.566 136.188,108.976C136.057,109.311 135.128,111.866 135.018,112.182C134.906,112.494 135.063,112.74 135.261,112.811C135.725,112.977 136.07,113.083 136.702,113.232C137.58,113.439 138.32,113.452 139.013,113.452C140.465,113.452 141.788,113.248 142.885,112.852C143.989,112.453 144.95,111.758 145.8,110.817C146.719,109.802 147.297,108.739 147.85,107.289C148.397,105.852 148.863,104.068 149.236,101.989L152.79,81.88L157.986,81.88C157.986,81.88 158.424,81.896 158.515,81.421L159.103,78.141C159.144,77.827 159.01,77.631 158.588,77.633L153.545,77.633C153.57,77.519 153.799,75.745 154.378,74.075C154.625,73.362 155.09,72.787 155.484,72.392C155.852,72.016 156.305,71.734 156.805,71.57C157.353,71.401 157.924,71.318 158.498,71.326C158.973,71.326 159.439,71.383 159.794,71.457C160.283,71.561 160.473,71.616 160.601,71.654C161.115,71.811 161.184,71.659 161.285,71.41L162.491,68.098C162.615,67.742 162.313,67.592 162.201,67.548M91.727,101.665C91.727,101.929 91.539,102.144 91.275,102.144L87.092,102.144C86.827,102.144 86.639,101.929 86.639,101.665L86.639,67.997C86.639,67.734 86.827,67.521 87.092,67.521L91.275,67.521C91.539,67.521 91.727,67.734 91.727,67.997L91.727,101.665" style="fill:rgb(255,255,254);"/>
                        </g>
                    </g>
                </g>
            </g>
        </g>
        <g id="gmail" transform="matrix(1,0,0,1,459.824,112.873)" filter="url(#shadow)">
            <g transform="matrix(1,0,0,1,-155,-526)">
                <g id="gmail1" serif:id="gmail">
                    <g>
                        <g transform="matrix(1,0,0,1,155,526)">
                            <circle cx="0" cy="0" r="53.41" style="fill:white;"/>
                        </g>
                        <g transform="matrix(0.784226,0,0,0.784226,120.494,500.127)">
                            <g transform="matrix(1,0,0,1,-52,-42)">
                                <path d="M58,108L72,108L72,74L52,59L52,102C52,105.32 54.69,108 58,108" style="fill:rgb(66,133,244);fill-rule:nonzero;"/>
                            </g>
                            <g transform="matrix(1,0,0,1,-52,-42)">
                                <path d="M120,108L134,108C137.32,108 140,105.31 140,102L140,59L120,74" style="fill:rgb(52,168,83);fill-rule:nonzero;"/>
                            </g>
                            <g transform="matrix(1,0,0,1,-52,-42)">
                                <path d="M120,48L120,74L140,59L140,51C140,43.58 131.53,39.35 125.6,43.8" style="fill:rgb(251,188,4);fill-rule:nonzero;"/>
                            </g>
                            <g transform="matrix(1,0,0,1,-52,-42)">
                                <path d="M72,74L72,48L96,66L120,48L120,74L96,92" style="fill:rgb(234,67,53);fill-rule:nonzero;"/>
                            </g>
                            <g transform="matrix(1,0,0,1,-52,-42)">
                                <path d="M52,51L52,59L72,74L72,48L66.4,43.8C60.46,39.35 52,43.58 52,51" style="fill:rgb(197,34,31);fill-rule:nonzero;"/>
                            </g>
                        </g>
                    </g>
                </g>
            </g>
            <g transform="matrix(1,0,0,1,-155,-526)">
                <g id="gmail2" serif:id="gmail">
                    <g>
                        <g transform="matrix(1,0,0,1,155,526)">
                            <circle cx="0" cy="0" r="53.41" style="fill:white;"/>
                        </g>
                        <g transform="matrix(0.784226,0,0,0.784226,120.494,500.127)">
                            <g transform="matrix(1,0,0,1,-52,-42)">
                                <path d="M58,108L72,108L72,74L52,59L52,102C52,105.32 54.69,108 58,108" style="fill:rgb(66,133,244);fill-rule:nonzero;"/>
                            </g>
                            <g transform="matrix(1,0,0,1,-52,-42)">
                                <path d="M120,108L134,108C137.32,108 140,105.31 140,102L140,59L120,74" style="fill:rgb(52,168,83);fill-rule:nonzero;"/>
                            </g>
                            <g transform="matrix(1,0,0,1,-52,-42)">
                                <path d="M120,48L120,74L140,59L140,51C140,43.58 131.53,39.35 125.6,43.8" style="fill:rgb(251,188,4);fill-rule:nonzero;"/>
                            </g>
                            <g transform="matrix(1,0,0,1,-52,-42)">
                                <path d="M72,74L72,48L96,66L120,48L120,74L96,92" style="fill:rgb(234,67,53);fill-rule:nonzero;"/>
                            </g>
                            <g transform="matrix(1,0,0,1,-52,-42)">
                                <path d="M52,51L52,59L72,74L72,48L66.4,43.8C60.46,39.35 52,43.58 52,51" style="fill:rgb(197,34,31);fill-rule:nonzero;"/>
                            </g>
                        </g>
                    </g>
                </g>
            </g>
        </g>
        <g id="airtable" transform="matrix(1,0,0,1,153.682,112.873)" filter="url(#shadow)">
            <g transform="matrix(1,0,0,1,-155,-526)">
                <g id="airtable1" serif:id="airtable">
                    <g>
                        <g transform="matrix(1,0,0,1,155,526)">
                            <circle cx="0" cy="0" r="53.41" style="fill:white;"/>
                        </g>
                        <g transform="matrix(0.0973576,0,0,0.0973576,114.753,487.2)">
                            <path d="M357.059,72.503L58.939,195.861C42.36,202.722 42.532,226.27 59.214,232.883L358.582,351.599C384.887,362.031 414.179,362.031 440.48,351.599L739.852,232.883C756.53,226.27 756.706,202.722 740.123,195.861L442.008,72.503C414.808,61.249 384.254,61.249 357.059,72.503" style="fill:rgb(255,191,0);fill-rule:nonzero;"/>
                            <path d="M426.091,416.428L426.091,712.997C426.091,727.103 440.315,736.762 453.426,731.564L787.013,602.082C794.629,599.063 799.623,591.705 799.623,583.515L799.623,286.945C799.623,272.839 785.399,263.18 772.287,268.378L438.701,397.86C431.09,400.88 426.091,408.238 426.091,416.428" style="fill:rgb(38,181,248);fill-rule:nonzero;"/>
                            <path d="M348.196,431.73L249.195,479.531L239.143,484.39L30.158,584.525C16.91,590.916 0.002,581.262 0.002,566.546L0.002,288.191C0.002,282.867 2.732,278.27 6.393,274.808C7.92,273.276 9.652,272.015 11.45,271.016C16.445,268.019 23.568,267.219 29.624,269.615L346.533,395.178C362.641,401.569 363.907,424.141 348.196,431.73" style="fill:rgb(237,48,73);fill-rule:nonzero;"/>
                            <path d="M348.196,431.73L249.195,479.531L6.393,274.808C7.92,273.276 9.652,272.015 11.45,271.016C16.445,268.019 23.568,267.219 29.624,269.615L346.533,395.178C362.641,401.569 363.907,424.141 348.196,431.73" style="fill-opacity:0.25;fill-rule:nonzero;"/>
                        </g>
                    </g>
                </g>
            </g>
            <g transform="matrix(1,0,0,1,-155,-526)">
                <g id="airtable2" serif:id="airtable">
                    <g>
                        <g transform="matrix(1,0,0,1,155,526)">
                            <circle cx="0" cy="0" r="53.41" style="fill:white;"/>
                        </g>
                        <g transform="matrix(0.0973576,0,0,0.0973576,114.753,487.2)">
                            <path d="M357.059,72.503L58.939,195.861C42.36,202.722 42.532,226.27 59.214,232.883L358.582,351.599C384.887,362.031 414.179,362.031 440.48,351.599L739.852,232.883C756.53,226.27 756.706,202.722 740.123,195.861L442.008,72.503C414.808,61.249 384.254,61.249 357.059,72.503" style="fill:rgb(255,191,0);fill-rule:nonzero;"/>
                            <path d="M426.091,416.428L426.091,712.997C426.091,727.103 440.315,736.762 453.426,731.564L787.013,602.082C794.629,599.063 799.623,591.705 799.623,583.515L799.623,286.945C799.623,272.839 785.399,263.18 772.287,268.378L438.701,397.86C431.09,400.88 426.091,408.238 426.091,416.428" style="fill:rgb(38,181,248);fill-rule:nonzero;"/>
                            <path d="M348.196,431.73L249.195,479.531L239.143,484.39L30.158,584.525C16.91,590.916 0.002,581.262 0.002,566.546L0.002,288.191C0.002,282.867 2.732,278.27 6.393,274.808C7.92,273.276 9.652,272.015 11.45,271.016C16.445,268.019 23.568,267.219 29.624,269.615L346.533,395.178C362.641,401.569 363.907,424.141 348.196,431.73" style="fill:rgb(237,48,73);fill-rule:nonzero;"/>
                            <path d="M348.196,431.73L249.195,479.531L6.393,274.808C7.92,273.276 9.652,272.015 11.45,271.016C16.445,268.019 23.568,267.219 29.624,269.615L346.533,395.178C362.641,401.569 363.907,424.141 348.196,431.73" style="fill-opacity:0.25;fill-rule:nonzero;"/>
                        </g>
                    </g>
                </g>
            </g>
        </g>
        <g id="hubspot" transform="matrix(1,0,0,1,59.0792,243.083)" filter="url(#shadow)">
            <g transform="matrix(1,0,0,1,-155,-526)">
                <g id="hubspot1" serif:id="hubspot">
                    <g>
                        <g transform="matrix(1,0,0,1,155,526)">
                            <circle cx="0" cy="0" r="53.41" style="fill:rgb(255,122,89);"/>
                        </g>
                        <g transform="matrix(0.169713,0,0,0.169713,87.116,458.115)">
                            <path d="M487.344,488.234C457.477,488.234 433.25,464.273 433.25,434.711C433.25,405.148 457.469,381.18 487.344,381.18C517.219,381.18 541.453,405.141 541.453,434.711C541.453,464.281 517.234,488.234 487.344,488.234M503.547,331.656L503.547,284C516.461,278.086 524.811,265.164 524.898,250.961L524.898,249.859C524.898,229.719 508.242,213.25 487.906,213.25L486.789,213.25C466.477,213.25 449.797,229.727 449.797,249.859L449.797,250.961C449.888,265.163 458.237,278.083 471.148,284L471.148,331.656C452.908,334.408 435.703,341.895 421.258,353.367L289.148,251.672C290.073,248.326 290.569,244.877 290.625,241.406C290.625,218.586 271.961,200.063 248.906,200C225.852,199.938 207.148,218.43 207.125,241.258C207.102,264.086 225.758,282.57 248.813,282.609C256.033,282.578 263.123,280.669 269.383,277.07L399.367,377.148C375.478,412.733 376.124,459.657 400.984,494.57L361.438,533.711C358.154,532.682 354.733,532.158 351.291,532.158C332.682,532.158 317.37,547.471 317.37,566.08C317.37,584.689 332.682,600.002 351.291,600.002C351.408,600.002 351.524,600.001 351.641,600C370.578,600 385.938,584.797 385.938,566.055C385.904,562.76 385.377,559.49 384.375,556.352L423.438,517.664C441.823,531.599 464.274,539.139 487.344,539.125C545.633,539.125 592.859,492.383 592.859,434.711C592.859,382.508 554.094,339.398 503.539,331.656" style="fill:white;"/>
                        </g>
                    </g>
                </g>
            </g>
            <g transform="matrix(1,0,0,1,-155,-526)">
                <g id="hubspot2" serif:id="hubspot">
                    <g>
                        <g transform="matrix(1,0,0,1,155,526)">
                            <circle cx="0" cy="0" r="53.41" style="fill:rgb(255,122,89);"/>
                        </g>
                        <g transform="matrix(0.169713,0,0,0.169713,87.116,458.115)">
                            <path d="M487.344,488.234C457.477,488.234 433.25,464.273 433.25,434.711C433.25,405.148 457.469,381.18 487.344,381.18C517.219,381.18 541.453,405.141 541.453,434.711C541.453,464.281 517.234,488.234 487.344,488.234M503.547,331.656L503.547,284C516.461,278.086 524.811,265.164 524.898,250.961L524.898,249.859C524.898,229.719 508.242,213.25 487.906,213.25L486.789,213.25C466.477,213.25 449.797,229.727 449.797,249.859L449.797,250.961C449.888,265.163 458.237,278.083 471.148,284L471.148,331.656C452.908,334.408 435.703,341.895 421.258,353.367L289.148,251.672C290.073,248.326 290.569,244.877 290.625,241.406C290.625,218.586 271.961,200.063 248.906,200C225.852,199.938 207.148,218.43 207.125,241.258C207.102,264.086 225.758,282.57 248.813,282.609C256.033,282.578 263.123,280.669 269.383,277.07L399.367,377.148C375.478,412.733 376.124,459.657 400.984,494.57L361.438,533.711C358.154,532.682 354.733,532.158 351.291,532.158C332.682,532.158 317.37,547.471 317.37,566.08C317.37,584.689 332.682,600.002 351.291,600.002C351.408,600.002 351.524,600.001 351.641,600C370.578,600 385.938,584.797 385.938,566.055C385.904,562.76 385.377,559.49 384.375,556.352L423.438,517.664C441.823,531.599 464.274,539.139 487.344,539.125C545.633,539.125 592.859,492.383 592.859,434.711C592.859,382.508 554.094,339.398 503.539,331.656" style="fill:white;"/>
                        </g>
                    </g>
                </g>
            </g>
        </g>
        <g id="drive" transform="matrix(1,0,0,1,306.753,583.977)" filter="url(#shadow)">
            <g transform="matrix(1,0,0,1,-155,-526)">
                <g id="drive1" serif:id="drive">
                    <g>
                        <g transform="matrix(1,0,0,1,155,526)">
                            <circle cx="0" cy="0" r="53.41" style="fill:white;"/>
                        </g>
                        <g transform="matrix(0.0851738,0,0,0.0851738,120.93,491.966)">
                            <path d="M60.482,654.794L95.763,715.734C103.094,728.563 113.632,738.643 126.003,745.974C161.438,700.995 186.104,666.478 200.002,642.423C214.105,618.011 231.441,579.828 252.007,527.874C196.583,520.579 154.581,516.931 126.003,516.931C98.58,516.931 56.578,520.579 0,527.874C0,542.078 3.666,556.282 10.997,569.111L60.482,654.794Z" style="fill:rgb(0,102,218);fill-rule:nonzero;"/>
                            <path d="M674.005,745.974C686.376,738.643 696.914,728.563 704.245,715.734L718.907,690.533L789.011,569.111C796.342,556.282 800.008,542.078 800.008,527.874C743.102,520.579 701.177,516.931 674.233,516.931C645.277,516.931 603.352,520.579 548.459,527.874C568.783,580.113 585.889,618.296 599.777,642.423C613.788,666.762 638.53,701.279 674.005,745.974Z" style="fill:rgb(234,67,53);fill-rule:nonzero;"/>
                            <path d="M400.004,271.285C441.004,221.767 469.259,183.584 484.77,156.736C497.26,135.118 511.005,100.6 526.007,53.184C513.636,45.853 499.432,42.188 484.77,42.188L315.238,42.188C300.575,42.188 286.371,46.311 274,53.184C293.082,107.566 309.274,146.268 322.575,169.292C337.274,194.735 363.084,228.733 400.004,271.285Z" style="fill:rgb(0,131,45);fill-rule:nonzero;"/>
                            <path d="M548,527.874L252.007,527.874L126.003,745.974C138.375,753.306 152.579,756.971 167.241,756.971L632.767,756.971C647.429,756.971 661.633,752.847 674.005,745.974L548,527.874Z" style="fill:rgb(38,132,252);fill-rule:nonzero;"/>
                            <path d="M400.004,271.285L274.001,53.184C261.629,60.515 251.09,70.595 243.76,83.425L10.997,486.636C3.666,499.466 0,513.67 0,527.874L252.007,527.874L400.004,271.285Z" style="fill:rgb(0,172,71);fill-rule:nonzero;"/>
                            <path d="M672.63,285.031L556.248,83.425C548.918,70.595 538.379,60.515 526.007,53.184L400.004,271.285L548,527.874L799.55,527.874C799.55,513.67 795.884,499.466 788.553,486.636L672.63,285.031Z" style="fill:rgb(255,186,0);fill-rule:nonzero;"/>
                        </g>
                    </g>
                </g>
            </g>
            <g transform="matrix(1,0,0,1,-155,-526)">
                <g id="drive2" serif:id="drive">
                    <g>
                        <g transform="matrix(1,0,0,1,155,526)">
                            <circle cx="0" cy="0" r="53.41" style="fill:white;"/>
                        </g>
                        <g transform="matrix(0.0851738,0,0,0.0851738,120.93,491.966)">
                            <path d="M60.482,654.794L95.763,715.734C103.094,728.563 113.632,738.643 126.003,745.974C161.438,700.995 186.104,666.478 200.002,642.423C214.105,618.011 231.441,579.828 252.007,527.874C196.583,520.579 154.581,516.931 126.003,516.931C98.58,516.931 56.578,520.579 0,527.874C0,542.078 3.666,556.282 10.997,569.111L60.482,654.794Z" style="fill:rgb(0,102,218);fill-rule:nonzero;"/>
                            <path d="M674.005,745.974C686.376,738.643 696.914,728.563 704.245,715.734L718.907,690.533L789.011,569.111C796.342,556.282 800.008,542.078 800.008,527.874C743.102,520.579 701.177,516.931 674.233,516.931C645.277,516.931 603.352,520.579 548.459,527.874C568.783,580.113 585.889,618.296 599.777,642.423C613.788,666.762 638.53,701.279 674.005,745.974Z" style="fill:rgb(234,67,53);fill-rule:nonzero;"/>
                            <path d="M400.004,271.285C441.004,221.767 469.259,183.584 484.77,156.736C497.26,135.118 511.005,100.6 526.007,53.184C513.636,45.853 499.432,42.188 484.77,42.188L315.238,42.188C300.575,42.188 286.371,46.311 274,53.184C293.082,107.566 309.274,146.268 322.575,169.292C337.274,194.735 363.084,228.733 400.004,271.285Z" style="fill:rgb(0,131,45);fill-rule:nonzero;"/>
                            <path d="M548,527.874L252.007,527.874L126.003,745.974C138.375,753.306 152.579,756.971 167.241,756.971L632.767,756.971C647.429,756.971 661.633,752.847 674.005,745.974L548,527.874Z" style="fill:rgb(38,132,252);fill-rule:nonzero;"/>
                            <path d="M400.004,271.285L274.001,53.184C261.629,60.515 251.09,70.595 243.76,83.425L10.997,486.636C3.666,499.466 0,513.67 0,527.874L252.007,527.874L400.004,271.285Z" style="fill:rgb(0,172,71);fill-rule:nonzero;"/>
                            <path d="M672.63,285.031L556.248,83.425C548.918,70.595 538.379,60.515 526.007,53.184L400.004,271.285L548,527.874L799.55,527.874C799.55,513.67 795.884,499.466 788.553,486.636L672.63,285.031Z" style="fill:rgb(255,186,0);fill-rule:nonzero;"/>
                        </g>
                    </g>
                </g>
            </g>
        </g>
        <g id="zendesk" transform="matrix(1,0,0,1,59.0792,404.031)" filter="url(#shadow)">
            <g transform="matrix(1,0,0,1,-155,-526)">
                <g id="zendesk1" serif:id="zendesk">
                    <g>
                        <g transform="matrix(1,0,0,1,155,526)">
                            <circle cx="0" cy="0" r="53.41" style="fill:rgb(3,54,61);"/>
                        </g>
                        <g transform="matrix(0.091486,0,0,0.091486,118.406,489.548)">
                            <path d="M369.529,255.414L369.529,701.58L0,701.58L369.529,255.414ZM369.529,95.313C369.529,197.325 286.777,280.077 184.764,280.077C82.752,280.077 0,197.325 0,95.313L369.529,95.313ZM430.471,701.58C430.471,599.465 513.121,516.816 615.236,516.816C717.35,516.816 800,599.567 800,701.58L430.471,701.58ZM430.471,541.376L430.471,95.313L800,95.313L430.471,541.376Z" style="fill:white;fill-rule:nonzero;"/>
                        </g>
                    </g>
                </g>
            </g>
            <g transform="matrix(1,0,0,1,-155,-526)">
                <g id="zendesk2" serif:id="zendesk">
                    <g>
                        <g transform="matrix(1,0,0,1,155,526)">
                            <circle cx="0" cy="0" r="53.41" style="fill:rgb(3,54,61);"/>
                        </g>
                        <g transform="matrix(0.091486,0,0,0.091486,118.406,489.548)">
                            <path d="M369.529,255.414L369.529,701.58L0,701.58L369.529,255.414ZM369.529,95.313C369.529,197.325 286.777,280.077 184.764,280.077C82.752,280.077 0,197.325 0,95.313L369.529,95.313ZM430.471,701.58C430.471,599.465 513.121,516.816 615.236,516.816C717.35,516.816 800,599.567 800,701.58L430.471,701.58ZM430.471,541.376L430.471,95.313L800,95.313L430.471,541.376Z" style="fill:white;fill-rule:nonzero;"/>
                        </g>
                    </g>
                </g>
            </g>
        </g>
        <g id="notion" transform="matrix(0.999813,0,0,0.999813,306.753,63.1372)" filter="url(#shadow)">
            <g transform="matrix(1,0,0,1,-155,-526)">
                <g id="notion1" serif:id="notion">
                    <g>
                        <g transform="matrix(1,0,0,1,155,526)">
                            <circle cx="0" cy="0" r="53.41" style="fill:white;"/>
                        </g>
                        <g transform="matrix(0.106038,0,0,0.106038,112.585,483.585)">
                            <path d="M142.9,730.445L56.916,623.328C36.228,597.558 25,565.865 25,533.247L25,145.375C25,96.516 64.09,55.974 114.518,52.531L513.303,25.305C542.275,23.327 571.07,31.027 594.87,47.118L734.98,141.848C760.063,158.805 775,186.525 775,216.106L775,657.08C775,704.895 736.565,744.483 687.19,747.523L244.583,774.768C205.183,777.193 167.1,760.593 142.9,730.445Z" style="fill:white;"/>
                            <path d="M281.203,339.467L281.203,334.39C281.203,321.518 291.513,310.842 304.8,309.955L401.583,303.493L535.425,500.587L535.425,327.603L500.975,323.01L500.975,320.6C500.975,307.575 511.52,296.83 524.978,296.14L613.04,291.63L613.04,304.303C613.04,310.25 608.615,315.34 602.553,316.365L581.36,319.95L581.36,600.093L554.765,609.238C532.545,616.88 507.81,608.7 495.09,589.508L365.152,393.43L365.152,580.575L405.145,588.228L404.59,591.938C402.843,603.558 392.81,612.348 380.675,612.887L281.203,617.315C279.888,604.818 289.253,593.64 302.173,592.282L315.258,590.907L315.258,341.38L281.203,339.467Z" style="fill-rule:nonzero;"/>
                            <path d="M516.873,74.17L118.087,101.396C94.2,103.027 75.684,122.231 75.684,145.375L75.684,533.247C75.684,554.992 83.169,576.12 96.961,593.303L182.945,700.418C196.847,717.735 218.725,727.273 241.359,725.88L683.965,698.635C706.65,697.238 724.31,679.048 724.31,657.08L724.31,216.106C724.31,202.515 717.448,189.779 705.923,181.988L565.813,87.257C551.533,77.603 534.255,72.983 516.873,74.17ZM137.862,151.425C132.315,147.319 134.955,138.764 141.922,138.264L519.555,111.178C531.588,110.315 543.543,113.628 553.273,120.522L629.043,174.203C631.918,176.241 630.57,180.641 627.008,180.835L227.097,202.584C214.994,203.242 203.048,199.687 193.425,192.563L137.862,151.425ZM208.339,270.768C208.339,257.775 218.835,247.044 232.257,246.313L655.075,223.286C668.157,222.574 679.168,232.633 679.168,245.296L679.168,627.133C679.168,640.1 668.71,650.82 655.315,651.583L235.172,675.488C220.615,676.318 208.339,665.13 208.339,651.038L208.339,270.768Z"/>
                        </g>
                    </g>
                </g>
            </g>
            <g transform="matrix(1,0,0,1,-155,-526)">
                <g id="notion2" serif:id="notion">
                    <g>
                        <g transform="matrix(1,0,0,1,155,526)">
                            <circle cx="0" cy="0" r="53.41" style="fill:white;"/>
                        </g>
                        <g transform="matrix(0.106038,0,0,0.106038,112.585,483.585)">
                            <path d="M142.9,730.445L56.916,623.328C36.228,597.558 25,565.865 25,533.247L25,145.375C25,96.516 64.09,55.974 114.518,52.531L513.303,25.305C542.275,23.327 571.07,31.027 594.87,47.118L734.98,141.848C760.063,158.805 775,186.525 775,216.106L775,657.08C775,704.895 736.565,744.483 687.19,747.523L244.583,774.768C205.183,777.193 167.1,760.593 142.9,730.445Z" style="fill:white;"/>
                            <path d="M281.203,339.467L281.203,334.39C281.203,321.518 291.513,310.842 304.8,309.955L401.583,303.493L535.425,500.587L535.425,327.603L500.975,323.01L500.975,320.6C500.975,307.575 511.52,296.83 524.978,296.14L613.04,291.63L613.04,304.303C613.04,310.25 608.615,315.34 602.553,316.365L581.36,319.95L581.36,600.093L554.765,609.238C532.545,616.88 507.81,608.7 495.09,589.508L365.152,393.43L365.152,580.575L405.145,588.228L404.59,591.938C402.843,603.558 392.81,612.348 380.675,612.887L281.203,617.315C279.888,604.818 289.253,593.64 302.173,592.282L315.258,590.907L315.258,341.38L281.203,339.467Z" style="fill-rule:nonzero;"/>
                            <path d="M516.873,74.17L118.087,101.396C94.2,103.027 75.684,122.231 75.684,145.375L75.684,533.247C75.684,554.992 83.169,576.12 96.961,593.303L182.945,700.418C196.847,717.735 218.725,727.273 241.359,725.88L683.965,698.635C706.65,697.238 724.31,679.048 724.31,657.08L724.31,216.106C724.31,202.515 717.448,189.779 705.923,181.988L565.813,87.257C551.533,77.603 534.255,72.983 516.873,74.17ZM137.862,151.425C132.315,147.319 134.955,138.764 141.922,138.264L519.555,111.178C531.588,110.315 543.543,113.628 553.273,120.522L629.043,174.203C631.918,176.241 630.57,180.641 627.008,180.835L227.097,202.584C214.994,203.242 203.048,199.687 193.425,192.563L137.862,151.425ZM208.339,270.768C208.339,257.775 218.835,247.044 232.257,246.313L655.075,223.286C668.157,222.574 679.168,232.633 679.168,245.296L679.168,627.133C679.168,640.1 668.71,650.82 655.315,651.583L235.172,675.488C220.615,676.318 208.339,665.13 208.339,651.038L208.339,270.768Z"/>
                        </g>
                    </g>
                </g>
            </g>
        </g>
    </g>
    <defs>
          <filter id='shadow' color-interpolation-filters="sRGB">
            <feDropShadow dx="2" dy="2" stdDeviation="3" flood-opacity="0.5"/>
          </filter>
        <linearGradient id="_Linear1" x1="0" y1="0" x2="1" y2="0" gradientUnits="userSpaceOnUse" gradientTransform="matrix(317.386,35.2642,0.0354504,-0.319062,217.514,352.862)"><stop offset="0" style="stop-color:rgb(128,68,253);stop-opacity:1"/><stop offset="0.18" style="stop-color:rgb(128,68,253);stop-opacity:1"/><stop offset="1" style="stop-color:rgb(87,38,192);stop-opacity:1"/></linearGradient>
        <linearGradient id="_Linear4" x1="0" y1="0" x2="1" y2="0" gradientUnits="userSpaceOnUse" gradientTransform="matrix(315.734,69.2995,-69.2995,315.734,228.266,996.802)"><stop offset="0" style="stop-color:white;stop-opacity:1"/><stop offset="0.18" style="stop-color:white;stop-opacity:1"/><stop offset="1" style="stop-color:white;stop-opacity:0.41"/></linearGradient>

        <linearGradient id="_Linear10" x1="0" y1="0" x2="1" y2="0" gradientUnits="userSpaceOnUse" gradientTransform="matrix(41.5639,0,0,41.5639,3.2173,15)"><stop offset="0" style="stop-color:rgb(217,48,37);stop-opacity:1"/><stop offset="1" style="stop-color:rgb(234,67,53);stop-opacity:1"/></linearGradient>
        <linearGradient id="_Linear5" x1="0" y1="0" x2="1" y2="0" gradientUnits="userSpaceOnUse" gradientTransform="matrix(20.782,-35.9954,35.9954,20.782,20.7219,47.6791)"><stop offset="0" style="stop-color:rgb(252,201,52);stop-opacity:1"/><stop offset="1" style="stop-color:rgb(251,188,4);stop-opacity:1"/></linearGradient>
        <linearGradient id="_Linear6" x1="0" y1="0" x2="1" y2="0" gradientUnits="userSpaceOnUse" gradientTransform="matrix(-20.782,-35.9955,35.9955,-20.782,26.5981,46.5015)"><stop offset="0" style="stop-color:rgb(30,142,62);stop-opacity:1"/><stop offset="1" style="stop-color:rgb(52,168,83);stop-opacity:1"/></linearGradient>
        <linearGradient id="_Linear7" x1="0" y1="0" x2="1" y2="0" gradientUnits="userSpaceOnUse" gradientTransform="matrix(41.5639,0,0,41.5639,3.2173,15)"><stop offset="0" style="stop-color:rgb(217,48,37);stop-opacity:1"/><stop offset="1" style="stop-color:rgb(234,67,53);stop-opacity:1"/></linearGradient>
        <linearGradient id="_Linear8" x1="0" y1="0" x2="1" y2="0" gradientUnits="userSpaceOnUse" gradientTransform="matrix(20.782,-35.9954,35.9954,20.782,20.7219,47.6791)"><stop offset="0" style="stop-color:rgb(252,201,52);stop-opacity:1"/><stop offset="1" style="stop-color:rgb(251,188,4);stop-opacity:1"/></linearGradient>
        <linearGradient id="_Linear9" x1="0" y1="0" x2="1" y2="0" gradientUnits="userSpaceOnUse" gradientTransform="matrix(-20.782,-35.9955,35.9955,-20.782,26.5981,46.5015)"><stop offset="0" style="stop-color:rgb(30,142,62);stop-opacity:1"/><stop offset="1" style="stop-color:rgb(52,168,83);stop-opacity:1"/></linearGradient>


        <linearGradient id="_Linear11" x1="0" y1="0" x2="1" y2="0" gradientUnits="userSpaceOnUse" gradientTransform="matrix(27.1742,0,0,27.1742,5.61511,31.179)"><stop offset="0" style="stop-color:rgb(137,48,253);stop-opacity:1"/><stop offset="1" style="stop-color:rgb(73,204,249);stop-opacity:1"/></linearGradient>
        <linearGradient id="_Linear12" x1="0" y1="0" x2="1" y2="0" gradientUnits="userSpaceOnUse" gradientTransform="matrix(26.0369,0,0,26.0369,5.94116,13.0864)"><stop offset="0" style="stop-color:rgb(255,2,240);stop-opacity:1"/><stop offset="1" style="stop-color:rgb(255,200,0);stop-opacity:1"/></linearGradient>
        <linearGradient id="_Linear13" x1="0" y1="0" x2="1" y2="0" gradientUnits="userSpaceOnUse" gradientTransform="matrix(27.1742,0,0,27.1742,5.61511,31.179)"><stop offset="0" style="stop-color:rgb(137,48,253);stop-opacity:1"/><stop offset="1" style="stop-color:rgb(73,204,249);stop-opacity:1"/></linearGradient>
        <linearGradient id="_Linear14" x1="0" y1="0" x2="1" y2="0" gradientUnits="userSpaceOnUse" gradientTransform="matrix(26.0369,0,0,26.0369,5.94116,13.0864)"><stop offset="0" style="stop-color:rgb(255,2,240);stop-opacity:1"/><stop offset="1" style="stop-color:rgb(255,200,0);stop-opacity:1"/></linearGradient>
    </defs>
</svg>
