<?xml version="1.0" encoding="UTF-8" standalone="no"?>
<!DOCTYPE svg PUBLIC "-//W3C//DTD SVG 1.1//EN" "http://www.w3.org/Graphics/SVG/1.1/DTD/svg11.dtd">
<svg width="100%" height="100%" viewBox="325 325 650 650" version="1.1" xmlns="http://www.w3.org/2000/svg" xmlns:xlink="http://www.w3.org/1999/xlink" xml:space="preserve" xmlns:serif="http://www.serif.com/" style="fill-rule:evenodd;clip-rule:evenodd;stroke-linejoin:round;stroke-miterlimit:2;">
    <style>
        @keyframes rotateOuterCircle {
            0%{
                transform: translate(50%, 50%) rotate(0);
            }
            100% {
                transform: translate(50%, 50%) rotate(-360deg);
            }
        }
        #outer-logos-wrapper {
            animation: rotateOuterCircle 18750ms linear infinite normal forwards;
        }
        @keyframes rotateInnerCircle {
            0%{
                transform: translate(324.465px, 324.835px) rotate(0);
            }
            100% {
                transform: translate(324.465px, 324.835px) rotate(360deg);
            }
        }
        #inner-logos-wrapper {
            animation: rotateInnerCircle 18750ms linear infinite normal forwards;
        }
        @keyframes rotatePurpleLogo {
            0%{
                transform: translate(125px, 150px) rotate(0deg);
            }
            100% {
                transform: translate(125px, 150px) rotate(360deg);
            }
        }
        #outer-purple-logo {
            animation: rotatePurpleLogo 18750ms linear infinite normal forwards;
        }
        @keyframes rotateBlueLogo {
            0%{
                transform: translate(530px, 150px) rotate(0deg);
            }
            100% {
                transform: translate(530px, 150px) rotate(360deg);
            }
        }
        #outer-blue-logo {
            animation: rotateBlueLogo 18750ms linear infinite normal forwards;
        }
        @keyframes rotateGreenLogo {
            0%{
                transform: translate(155px, 526px) rotate(0deg);
            }
            100% {
                transform: translate(155px, 526px) rotate(360deg);
            }
        }
        #outer-green-logo {
            animation: rotateGreenLogo 18750ms linear infinite normal forwards;
        }
        @keyframes rotateBlackLogo {
            0%{
                transform: translate(520px, 510px) rotate(0deg);
            }
            100% {
                transform: translate(520px, 510px) rotate(360deg);
            }
        }
        #outer-black-logo {
            animation: rotateBlackLogo 18750ms linear infinite normal forwards;
        }
        @keyframes rotateRedLogo {
            0%{
                transform: translate(315px, 160px) rotate(0deg);
            }
            100% {
                transform: translate(315px, 160px) rotate(-360deg);
            }
        }
        #inner-red-logo {
            animation: rotateRedLogo 18750ms linear infinite normal forwards;
        }
        @keyframes rotateDarkOrangeLogo {
            0%{
                transform: translate(475px, 395px) rotate(0deg);
            }
            100% {
                transform: translate(475px, 395px) rotate(-360deg);
            }
        }
        #inner-dark-orange-logo {
            animation: rotateDarkOrangeLogo 18750ms linear infinite normal forwards;
        }
        @keyframes rotateOrangeLogo {
            0%{
                transform: translate(175px, 395px) rotate(0deg);
            }
            100% {
                transform: translate(175px, 395px) rotate(-360deg);
            }
        }
        #inner-orange-logo {
            animation: rotateOrangeLogo 18750ms linear infinite normal forwards;
        }
    </style>
    <g>
        <g id="integrations-logos" >
            <g class="dark:hidden block" transform="translate(324.465, 324.835) rotate(0)" filter="url(#shadow)">
                <g id="Logo" transform="matrix(0.243056,0,0,0.243056,239.062,264.37)">
                    <g id="Sol">
                        <g transform="matrix(1,0,0,1,-64,-77.1015)">
                            <path d="M339.334,181.528C402.494,202.939 448,262.748 448,333.102C448,421.408 376.306,493.102 288,493.102C199.694,493.102 128,421.408 128,333.102C128,313.886 131.395,295.457 137.618,278.378L137.592,278.368L192.316,128.017L339.334,181.528Z" style="fill:url(#_Linear1);"/>
                            <clipPath id="_clip2">
                                <path d="M339.334,181.528C402.494,202.939 448,262.748 448,333.102C448,421.408 376.306,493.102 288,493.102C199.694,493.102 128,421.408 128,333.102C128,313.886 131.395,295.457 137.618,278.378L137.592,278.368L192.316,128.017L339.334,181.528Z"/>
                            </clipPath>
                            <g clip-path="url(#_clip2)">
                                <g transform="matrix(0.838433,0,0,1.09308,144.034,38.9693)">
                                    <path d="M329.429,309.399L374.858,380.076L329.429,450.753L284,380.076L329.429,309.399Z" style="fill-opacity:0.11;"/>
                                </g>
                            </g>
                        </g>
                        <g transform="matrix(1.21212,0,0,1.21212,-49.9394,-44.1318)">
                            <circle cx="226" cy="250" r="66" style="fill:white;"/>
                        </g>
                        <g transform="matrix(2.77778,0,0,2.77778,-581.556,-657.768)">
                            <circle cx="290" cy="330" r="18" style="fill:rgb(128,68,253);"/>
                        </g>
                        <g transform="matrix(0.800694,0,0,0.7923,-5.70686,-7.10906)">
                            <ellipse cx="326.85" cy="295.352" rx="19.983" ry="20.194" style="fill:white;"/>
                        </g>
                    </g>
                    <g id="Sag" transform="matrix(1,0,0,1,-64,7.10543e-14)">
                        <g transform="matrix(1,0,0,1,0,-77.1015)">
                            <path d="M693.336,275.591L639.618,128L489.267,182.723L489.267,182.723C427.876,205.104 384,264.019 384,333.102C384,421.408 455.694,493.102 544,493.102C632.306,493.102 704,421.408 704,333.102C704,312.835 700.224,293.444 693.336,275.591Z" style="fill:rgb(128,68,253);"/>
                            <clipPath id="_clip3">
                                <path d="M693.336,275.591L639.618,128L489.267,182.723L489.267,182.723C427.876,205.104 384,264.019 384,333.102C384,421.408 455.694,493.102 544,493.102C632.306,493.102 704,421.408 704,333.102C704,312.835 700.224,293.444 693.336,275.591Z"/>
                            </clipPath>
                            <g clip-path="url(#_clip3)">
                                <g transform="matrix(0.727883,0,0,0.91085,175.43,109.714)">
                                    <path d="M329.429,309.399L374.858,380.076L329.429,450.753L284,380.076L329.429,309.399Z" style="fill-opacity:0.2;"/>
                                </g>
                            </g>
                        </g>
                        <g transform="matrix(1.21212,0,0,1.21212,270.061,-44.1318)">
                            <circle cx="226" cy="250" r="66" style="fill:white;"/>
                        </g>
                        <g transform="matrix(2.77778,0,0,2.77778,-261.556,-657.768)">
                            <circle cx="290" cy="330" r="18" style="fill:rgb(128,68,253);"/>
                        </g>
                        <g transform="matrix(0.800694,0,0,0.7923,314.293,-7.10906)">
                            <ellipse cx="326.85" cy="295.352" rx="19.983" ry="20.194" style="fill:white;"/>
                        </g>
                    </g>
                    <g transform="matrix(0.704758,0,0,0.90553,119.816,39.8296)">
                        <g id="Burun">
                            <path d="M329.429,309.399L374.858,380.076L329.429,450.753L284,380.076L329.429,309.399Z" style="fill:rgb(128,68,253);"/>
                        </g>
                    </g>
                </g>
            </g>
            <g class="dark:block hidden" transform="translate(324.465, 324.835) rotate(0)" filter="url(#shadow)">
                <g id="LogoWhite" transform="matrix(0.243056,0,0,0.243056,239.044,264.329)">
                    <g transform="matrix(1,0,0,1,-64,-730.102)">
                        <g id="Sol1" serif:id="Sol">
                            <path d="M339.334,834.528C402.494,855.939 448,915.748 448,986.102C448,1074.41 376.306,1146.1 288,1146.1C199.694,1146.1 128,1074.41 128,986.102C128,966.886 131.395,948.457 137.618,931.378L137.592,931.368L192.316,781.017L339.334,834.528ZM288,909C243.847,909 208,944.847 208,989C208,1033.15 243.847,1069 288,1069C332.153,1069 368,1033.15 368,989C368,944.847 332.153,909 288,909ZM332.743,966.672C336.107,973.394 338,980.978 338,989C338,1016.6 315.596,1039 288,1039C260.404,1039 238,1016.6 238,989C238,961.404 260.404,939 288,939C296.022,939 303.606,940.893 310.328,944.257C306.484,947.181 304,951.803 304,957C304,965.831 311.169,973 320,973C325.197,973 329.819,970.516 332.743,966.672Z" style="fill:url(#_Linear4);"/>
                            <clipPath id="_clip5">
                                <path d="M339.334,834.528C402.494,855.939 448,915.748 448,986.102C448,1074.41 376.306,1146.1 288,1146.1C199.694,1146.1 128,1074.41 128,986.102C128,966.886 131.395,948.457 137.618,931.378L137.592,931.368L192.316,781.017L339.334,834.528ZM288,909C243.847,909 208,944.847 208,989C208,1033.15 243.847,1069 288,1069C332.153,1069 368,1033.15 368,989C368,944.847 332.153,909 288,909ZM332.743,966.672C336.107,973.394 338,980.978 338,989C338,1016.6 315.596,1039 288,1039C260.404,1039 238,1016.6 238,989C238,961.404 260.404,939 288,939C296.022,939 303.606,940.893 310.328,944.257C306.484,947.181 304,951.803 304,957C304,965.831 311.169,973 320,973C325.197,973 329.819,970.516 332.743,966.672Z"/>
                            </clipPath>
                            <g clip-path="url(#_clip5)">
                                <g transform="matrix(0.838433,0,0,1.09308,144.034,691.969)">
                                    <path d="M329.429,309.399L374.858,380.076L329.429,450.753L284,380.076L329.429,309.399Z" style="fill-opacity:0.2;"/>
                                </g>
                            </g>
                        </g>
                    </g>
                    <g transform="matrix(1,0,0,1,-64,-730.102)">
                        <g id="Sag1" serif:id="Sag">
                            <path d="M693.336,928.591C700.224,946.444 704,965.835 704,986.102C704,1074.41 632.306,1146.1 544,1146.1C455.694,1146.1 384,1074.41 384,986.102C384,917.019 427.876,858.104 489.267,835.723L639.618,781L693.336,928.591ZM544,909C499.847,909 464,944.847 464,989C464,1033.15 499.847,1069 544,1069C588.153,1069 624,1033.15 624,989C624,944.847 588.153,909 544,909ZM588.743,966.672C592.107,973.394 594,980.978 594,989C594,1016.6 571.596,1039 544,1039C516.404,1039 494,1016.6 494,989C494,961.404 516.404,939 544,939C552.022,939 559.606,940.893 566.328,944.257C562.484,947.181 560,951.803 560,957C560,965.831 567.169,973 576,973C581.197,973 585.819,970.516 588.743,966.672Z" style="fill:white;"/>
                            <clipPath id="_clip6">
                                <path d="M693.336,928.591C700.224,946.444 704,965.835 704,986.102C704,1074.41 632.306,1146.1 544,1146.1C455.694,1146.1 384,1074.41 384,986.102C384,917.019 427.876,858.104 489.267,835.723L639.618,781L693.336,928.591ZM544,909C499.847,909 464,944.847 464,989C464,1033.15 499.847,1069 544,1069C588.153,1069 624,1033.15 624,989C624,944.847 588.153,909 544,909ZM588.743,966.672C592.107,973.394 594,980.978 594,989C594,1016.6 571.596,1039 544,1039C516.404,1039 494,1016.6 494,989C494,961.404 516.404,939 544,939C552.022,939 559.606,940.893 566.328,944.257C562.484,947.181 560,951.803 560,957C560,965.831 567.169,973 576,973C581.197,973 585.819,970.516 588.743,966.672Z"/>
                            </clipPath>
                            <g clip-path="url(#_clip6)">
                                <g transform="matrix(0.727883,0,0,0.91085,175.43,762.714)">
                                    <path d="M329.429,309.399L374.858,380.076L329.429,450.753L284,380.076L329.429,309.399Z" style="fill-opacity:0.2;"/>
                                </g>
                            </g>
                        </g>
                    </g>
                    <g transform="matrix(0.704758,0,0,0.90553,119.816,39.8296)">
                        <g id="Burun1" serif:id="Burun">
                            <path d="M329.429,309.399L374.858,380.076L329.429,450.753L284,380.076L329.429,309.399Z" style="fill:white;"/>
                        </g>
                    </g>
                </g>
            </g>
            <g id="outerwrapper" transform="translate(324.465, 324.835) rotate(0)" >
                <g id="outer-logos-wrapper">
                    <g transform="translate(-324.465, -324.835)">
                        <g id="outer-circle">
                            <path d="M325.437,54.035C360.59,54.035 394.857,60.706 427.291,73.855C460.867,87.468 490.987,107.475 516.824,133.312C542.662,159.15 562.669,189.277 576.283,222.846C589.431,255.272 596.102,289.539 596.102,324.7C596.102,359.861 589.431,394.121 576.283,426.555C562.669,460.13 542.662,490.25 516.824,516.088C490.987,541.925 460.86,561.932 427.291,575.546C394.865,588.694 360.59,595.365 325.437,595.365C290.283,595.365 256.016,588.694 223.582,575.546C190.006,561.932 159.887,541.925 134.049,516.088C108.212,490.25 88.205,460.123 74.591,426.555C61.443,394.128 54.771,359.861 54.771,324.7C54.771,289.539 61.443,255.279 74.591,222.846C88.205,189.27 108.211,159.15 134.049,133.312C159.887,107.475 190.014,87.468 223.582,73.854C256.009,60.706 290.283,54.035 325.437,54.035ZM325.437,53.283C255.979,53.283 186.513,79.782 133.516,132.779C27.522,238.773 27.522,410.619 133.516,516.614C186.513,569.611 255.971,596.109 325.437,596.109C394.902,596.109 464.361,569.611 517.358,516.614C623.352,410.619 623.352,238.773 517.358,132.779C464.361,79.782 394.895,53.283 325.437,53.283Z" style="fill:rgb(86,86,86);fill-rule:nonzero;"/>
                            <path d="M324.618,58.017C325.814,58.017 326.96,57.542 327.806,56.697C328.651,55.851 329.126,54.704 329.126,53.509C329.126,52.313 328.651,51.166 327.806,50.321C326.96,49.475 325.814,49 324.618,49C323.422,49 322.275,49.475 321.43,50.321C320.584,51.166 320.109,52.313 320.109,53.509C320.109,54.704 320.584,55.851 321.43,56.697C322.275,57.542 323.422,58.017 324.618,58.017ZM54.441,328.464C55.038,328.473 55.632,328.363 56.187,328.14C56.741,327.918 57.246,327.587 57.672,327.168C58.097,326.748 58.436,326.248 58.666,325.697C58.897,325.146 59.016,324.554 59.016,323.957C59.016,323.359 58.897,322.767 58.666,322.216C58.436,321.665 58.097,321.165 57.672,320.745C57.246,320.326 56.741,319.995 56.187,319.773C55.632,319.55 55.038,319.44 54.441,319.449C53.257,319.467 52.128,319.949 51.297,320.793C50.466,321.636 50,322.773 50,323.957C50,325.14 50.466,326.277 51.297,327.12C52.128,327.964 53.257,328.446 54.441,328.464ZM324.888,600.67C326.084,600.67 327.23,600.195 328.076,599.349C328.921,598.504 329.396,597.357 329.396,596.161C329.396,594.966 328.921,593.819 328.076,592.974C327.23,592.128 326.084,591.653 324.888,591.653C323.692,591.653 322.545,592.128 321.7,592.974C320.854,593.819 320.379,594.966 320.379,596.161C320.379,597.357 320.854,598.504 321.7,599.349C322.545,600.195 323.692,600.67 324.888,600.67ZM596.425,328.194C597.621,328.194 598.767,327.719 599.613,326.874C600.458,326.028 600.933,324.881 600.933,323.686C600.933,322.49 600.458,321.343 599.613,320.498C598.767,319.652 597.621,319.177 596.425,319.177C595.229,319.177 594.082,319.652 593.237,320.498C592.391,321.343 591.916,322.49 591.916,323.686C591.916,324.881 592.391,326.028 593.237,326.874C594.082,327.719 595.229,328.194 596.425,328.194Z" style="fill:rgb(109,51,232);fill-rule:nonzero;"/>
                        </g>
                        <g id="outer-purple-logo" transform="matrix(1,0,0,1,125,150)" filter="url(#shadow)">
                            <g transform="matrix(1,0,0,1,-125,-150)">
                                <g id="outer-purple-logo1" serif:id="outer-purple-logo">
                                    <g>
                                        <g transform="matrix(1,0,0,1,125,150)">
                                            <circle cx="0" cy="0" r="53.41" style="fill:rgb(8,100,249);"/>
                                        </g>
                                        <g transform="matrix(0.905292,0,0,0.905292,63.4274,46.7168)">
                                            <path d="M95.9,83.2L61.3,83.2C61.3,91.8 68.3,98.8 76.9,98.8L83.3,98.8L83.3,104.9C83.3,113.5 90.3,120.5 98.9,120.5L98.9,86.2C98.9,84.5 97.5,83.2 95.9,83.2Z" style="fill:white;fill-rule:nonzero;"/>
                                            <path d="M78.8,100.4L44.2,100.4C44.2,109 51.2,116 59.8,116L66.2,116L66.2,122.2C66.2,130.8 73.2,137.8 81.8,137.8L81.8,103.5C81.8,101.8 80.4,100.4 78.8,100.4Z" style="fill:url(#_Linear7);fill-rule:nonzero;"/>
                                            <path d="M61.7,117.6L27.1,117.6C27.1,126.2 34.1,133.2 42.7,133.2L49,133.2L49,139.3C49,147.9 56,154.9 64.6,154.9L64.6,120.5C64.7,119 63.3,117.6 61.7,117.6Z" style="fill:url(#_Linear8);fill-rule:nonzero;"/>
                                        </g>
                                    </g>
                                </g>
                            </g>
                            <g transform="matrix(1,0,0,1,-125,-150)">
                                <g id="outer-purple-logo2" serif:id="outer-purple-logo">
                                    <g>
                                        <g transform="matrix(1,0,0,1,125,150)">
                                            <circle cx="0" cy="0" r="53.41" style="fill:rgb(8,100,249);"/>
                                        </g>
                                        <g transform="matrix(0.905292,0,0,0.905292,63.4274,46.7168)">
                                            <path d="M95.9,83.2L61.3,83.2C61.3,91.8 68.3,98.8 76.9,98.8L83.3,98.8L83.3,104.9C83.3,113.5 90.3,120.5 98.9,120.5L98.9,86.2C98.9,84.5 97.5,83.2 95.9,83.2Z" style="fill:white;fill-rule:nonzero;"/>
                                            <path d="M78.8,100.4L44.2,100.4C44.2,109 51.2,116 59.8,116L66.2,116L66.2,122.2C66.2,130.8 73.2,137.8 81.8,137.8L81.8,103.5C81.8,101.8 80.4,100.4 78.8,100.4Z" style="fill:url(#_Linear9);fill-rule:nonzero;"/>
                                            <path d="M61.7,117.6L27.1,117.6C27.1,126.2 34.1,133.2 42.7,133.2L49,133.2L49,139.3C49,147.9 56,154.9 64.6,154.9L64.6,120.5C64.7,119 63.3,117.6 61.7,117.6Z" style="fill:url(#_Linear10);fill-rule:nonzero;"/>
                                        </g>
                                    </g>
                                </g>
                            </g>
                        </g>
                        <g id="outer-blue-logo" transform="matrix(1,0,0,1,530,150)" filter="url(#shadow)">
                            <g transform="matrix(1,0,0,1,-530,-150)">
                                <g id="outer-blue-logo1" serif:id="outer-blue-logo">
                                    <g>
                                        <g transform="matrix(1,0,0,1,530,150)">
                                            <circle cx="0" cy="0" r="53.41" style="fill:rgb(240,111,111);"/>
                                        </g>
                                        <g transform="matrix(0.304215,0,0,0.304215,497.5,116.96)">
                                            <path d="M167.197,104.554C141.533,104.554 120.729,125.359 120.729,151.024C120.729,176.688 141.533,197.493 167.197,197.493C192.861,197.493 213.665,176.688 213.665,151.024C213.665,125.359 192.861,104.554 167.197,104.554ZM46.468,104.558C20.805,104.558 0,125.359 0,151.024C0,176.688 20.805,197.493 46.468,197.493C72.133,197.493 92.939,176.688 92.939,151.024C92.939,125.359 72.133,104.558 46.468,104.558ZM153.3,46.467C153.3,72.133 132.496,92.94 106.833,92.94C81.168,92.94 60.364,72.133 60.364,46.467C60.364,20.807 81.168,0 106.833,0C132.496,0 153.3,20.807 153.3,46.467Z" style="fill:white;"/>
                                        </g>
                                    </g>
                                </g>
                            </g>
                            <g transform="matrix(1,0,0,1,-530,-150)">
                                <g id="outer-blue-logo2" serif:id="outer-blue-logo">
                                    <g>
                                        <g transform="matrix(1,0,0,1,530,150)">
                                            <circle cx="0" cy="0" r="53.41" style="fill:rgb(240,111,111);"/>
                                        </g>
                                        <g transform="matrix(0.304215,0,0,0.304215,497.5,116.96)">
                                            <path d="M167.197,104.554C141.533,104.554 120.729,125.359 120.729,151.024C120.729,176.688 141.533,197.493 167.197,197.493C192.861,197.493 213.665,176.688 213.665,151.024C213.665,125.359 192.861,104.554 167.197,104.554ZM46.468,104.558C20.805,104.558 0,125.359 0,151.024C0,176.688 20.805,197.493 46.468,197.493C72.133,197.493 92.939,176.688 92.939,151.024C92.939,125.359 72.133,104.558 46.468,104.558ZM153.3,46.467C153.3,72.133 132.496,92.94 106.833,92.94C81.168,92.94 60.364,72.133 60.364,46.467C60.364,20.807 81.168,0 106.833,0C132.496,0 153.3,20.807 153.3,46.467Z" style="fill:white;"/>
                                        </g>
                                    </g>
                                </g>
                            </g>
                        </g>
                        <g id="outer-black-logo" transform="matrix(1,0,0,1,520,510)" filter="url(#shadow)">
                            <g transform="matrix(1,0,0,1,-520,-510)">
                                <g id="outer-black-logo1" serif:id="outer-black-logo">
                                    <g>
                                        <path d="M483.375,550.412L472.031,508.019L481.239,482.868L510.145,467.535L543.941,470.129L558.837,489.925L554.729,532.459L545.961,558.346C538.263,562.841 529.353,565.41 519.861,565.41C505.71,565.41 492.853,559.7 483.375,550.412Z" style="fill:white;"/>
                                        <g transform="matrix(1.09396,0,0,1.1125,466.59,456.6)">
                                            <path d="M48.854,0C21.839,0 0,22 0,49.217C0,70.973 13.993,89.389 33.405,95.907C35.832,96.397 36.721,94.848 36.721,93.545C36.721,92.404 36.641,88.493 36.641,84.418C23.051,87.352 20.221,78.551 20.221,78.551C18.037,72.847 14.801,71.381 14.801,71.381C10.353,68.366 15.125,68.366 15.125,68.366C20.059,68.692 22.648,73.418 22.648,73.418C27.015,80.914 34.052,78.796 36.883,77.492C37.287,74.314 38.582,72.114 39.957,70.892C29.118,69.751 17.714,65.514 17.714,46.609C17.714,41.231 19.654,36.831 22.728,33.409C22.243,32.187 20.544,27.134 23.214,20.371C23.214,20.371 27.339,19.067 36.64,25.423C40.622,24.346 44.729,23.798 48.854,23.793C52.979,23.793 57.184,24.364 61.067,25.423C70.369,19.067 74.494,20.371 74.494,20.371C77.164,27.134 75.464,32.187 74.979,33.409C78.134,36.831 79.994,41.231 79.994,46.609C79.994,65.514 68.59,69.669 57.67,70.892C59.45,72.44 60.986,75.373 60.986,80.018C60.986,86.618 60.906,91.915 60.906,93.544C60.906,94.848 61.796,96.397 64.222,95.908C83.634,89.388 97.627,70.973 97.627,49.217C97.707,22 75.788,0 48.854,0Z" style="fill:rgb(36,41,47);"/>
                                        </g>
                                    </g>
                                </g>
                            </g>
                            <g transform="matrix(1,0,0,1,-520,-510)">
                                <g id="outer-black-logo2" serif:id="outer-black-logo">
                                    <g>
                                        <path d="M483.375,550.412L472.031,508.019L481.239,482.868L510.145,467.535L543.941,470.129L558.837,489.925L554.729,532.459L545.961,558.346C538.263,562.841 529.353,565.41 519.861,565.41C505.71,565.41 492.853,559.7 483.375,550.412Z" style="fill:white;"/>
                                        <g transform="matrix(1.09396,0,0,1.1125,466.59,456.6)">
                                            <path d="M48.854,0C21.839,0 0,22 0,49.217C0,70.973 13.993,89.389 33.405,95.907C35.832,96.397 36.721,94.848 36.721,93.545C36.721,92.404 36.641,88.493 36.641,84.418C23.051,87.352 20.221,78.551 20.221,78.551C18.037,72.847 14.801,71.381 14.801,71.381C10.353,68.366 15.125,68.366 15.125,68.366C20.059,68.692 22.648,73.418 22.648,73.418C27.015,80.914 34.052,78.796 36.883,77.492C37.287,74.314 38.582,72.114 39.957,70.892C29.118,69.751 17.714,65.514 17.714,46.609C17.714,41.231 19.654,36.831 22.728,33.409C22.243,32.187 20.544,27.134 23.214,20.371C23.214,20.371 27.339,19.067 36.64,25.423C40.622,24.346 44.729,23.798 48.854,23.793C52.979,23.793 57.184,24.364 61.067,25.423C70.369,19.067 74.494,20.371 74.494,20.371C77.164,27.134 75.464,32.187 74.979,33.409C78.134,36.831 79.994,41.231 79.994,46.609C79.994,65.514 68.59,69.669 57.67,70.892C59.45,72.44 60.986,75.373 60.986,80.018C60.986,86.618 60.906,91.915 60.906,93.544C60.906,94.848 61.796,96.397 64.222,95.908C83.634,89.388 97.627,70.973 97.627,49.217C97.707,22 75.788,0 48.854,0Z" style="fill:rgb(36,41,47);"/>
                                        </g>
                                    </g>
                                </g>
                            </g>
                        </g>
                        <g id="outer-green-logo" transform="matrix(1,0,0,1,155,526)" filter="url(#shadow)">
                            <g transform="matrix(1,0,0,1,-155,-526)">
                                <g id="outer-green-logo1" serif:id="outer-green-logo">
                                    <g>
                                        <g transform="matrix(1,0,0,1,155,526)">
                                            <circle cx="0" cy="0" r="53.41" style="fill:white;"/>
                                        </g>
                                        <g transform="matrix(1.83998,0,0,1.83998,119.668,491.979)">
                                            <path d="M5.615,27.259L10.63,23.409C13.294,26.894 16.124,28.501 19.275,28.501C22.409,28.501 25.159,26.913 27.703,23.455L32.789,27.213C29.119,32.199 24.557,34.834 19.275,34.834C14.01,34.834 9.404,32.216 5.615,27.259Z" style="fill:url(#_Linear11);"/>
                                            <path d="M18.992,10.523L10.067,18.233L5.941,13.436L19.011,2.146L31.978,13.445L27.833,18.224L18.992,10.523Z" style="fill:url(#_Linear12);"/>
                                        </g>
                                    </g>
                                </g>
                            </g>
                            <g transform="matrix(1,0,0,1,-155,-526)">
                                <g id="outer-green-logo2" serif:id="outer-green-logo">
                                    <g>
                                        <g transform="matrix(1,0,0,1,155,526)">
                                            <circle cx="0" cy="0" r="53.41" style="fill:white;"/>
                                        </g>
                                        <g transform="matrix(1.83998,0,0,1.83998,119.668,491.979)">
                                            <path d="M5.615,27.259L10.63,23.409C13.294,26.894 16.124,28.501 19.275,28.501C22.409,28.501 25.159,26.913 27.703,23.455L32.789,27.213C29.119,32.199 24.557,34.834 19.275,34.834C14.01,34.834 9.404,32.216 5.615,27.259Z" style="fill:url(#_Linear13);"/>
                                            <path d="M18.992,10.523L10.067,18.233L5.941,13.436L19.011,2.146L31.978,13.445L27.833,18.224L18.992,10.523Z" style="fill:url(#_Linear14);"/>
                                        </g>
                                    </g>
                                </g>
                            </g>
                        </g>
                    </g>
                </g>
                <g id="inner-logos-wrapper" transform="translate(324.465, 324.835) rotate(0)">
                    <g transform="translate(-324.465, -324.835)">
                        <g id="inner-circle">
                            <path d="M324.618,155.792C347.45,155.792 369.599,160.262 390.447,169.082C410.59,177.602 428.674,189.796 444.203,205.325C459.733,220.855 471.934,238.946 480.446,259.081C489.266,279.93 493.737,302.078 493.737,324.91C493.737,347.743 489.266,369.891 480.446,390.74C471.926,410.882 459.733,428.966 444.203,444.496C428.674,460.025 410.582,472.226 390.447,480.739C369.599,489.559 347.45,494.029 324.618,494.029C301.786,494.029 279.637,489.559 258.788,480.739C238.646,472.219 220.562,460.025 205.033,444.496C189.503,428.966 177.302,410.875 168.79,390.74C159.969,369.891 155.499,347.743 155.499,324.91C155.499,302.078 159.969,279.93 168.79,259.081C177.309,238.939 189.503,220.855 205.033,205.325C220.562,189.796 238.653,177.594 258.788,169.082C279.637,160.262 301.786,155.792 324.618,155.792ZM324.618,155.04C230.795,155.04 154.74,231.095 154.74,324.918C154.74,418.741 230.795,494.796 324.618,494.796C418.441,494.796 494.496,418.741 494.496,324.918C494.496,231.095 418.441,155.04 324.618,155.04Z" style="fill:rgb(86,86,86);fill-rule:nonzero;"/>
                            <path d="M177.497,244.498C178.09,244.498 178.677,244.381 179.225,244.155C179.773,243.928 180.27,243.595 180.69,243.176C181.109,242.757 181.442,242.259 181.668,241.711C181.895,241.164 182.012,240.576 182.012,239.984C182.012,239.391 181.896,238.803 181.669,238.256C181.442,237.708 181.11,237.21 180.69,236.791C180.271,236.371 179.773,236.039 179.226,235.812C178.678,235.585 178.091,235.468 177.498,235.468C176.3,235.468 175.152,235.943 174.305,236.79C173.458,237.637 172.982,238.785 172.982,239.983C172.982,241.18 173.458,242.328 174.304,243.175C175.151,244.022 176.299,244.498 177.497,244.498ZM324.618,499.311C325.814,499.311 326.96,498.836 327.806,497.991C328.651,497.145 329.126,495.998 329.126,494.803C329.126,493.607 328.651,492.46 327.806,491.615C326.96,490.769 325.814,490.294 324.618,490.294C323.422,490.294 322.275,490.769 321.43,491.615C320.584,492.46 320.109,493.607 320.109,494.803C320.109,495.998 320.584,497.145 321.43,497.991C322.275,498.836 323.422,499.311 324.618,499.311ZM471.739,244.491C472.934,244.491 474.081,244.016 474.926,243.17C475.771,242.324 476.246,241.178 476.246,239.982C476.246,238.786 475.77,237.64 474.925,236.795C474.079,235.949 472.932,235.475 471.737,235.475C470.541,235.475 469.395,235.95 468.55,236.796C467.704,237.642 467.23,238.788 467.23,239.984C467.23,241.18 467.705,242.326 468.551,243.171C469.397,244.017 470.543,244.491 471.739,244.491Z" style="fill:rgb(109,51,232);fill-rule:nonzero;"/>
                        </g>
                        <g id="inner-dark-orange-logo" transform="matrix(1,0,0,1,475,395)" filter="url(#shadow)">
                            <g transform="matrix(1,0,0,1,-475,-395)">
                                <g id="inner-dark-orange-logo1" serif:id="inner-dark-orange-logo">
                                    <g>
                                        <g transform="matrix(1,0,0,1,475,395)">
                                            <circle cx="0" cy="0" r="34.32" style="fill:rgb(88,30,90);"/>
                                        </g>
                                        <g transform="matrix(0.35828,0,0,0.35828,452.231,372.285)">
                                            <path d="M27.2,80C27.2,87.3 21.3,93.2 14,93.2C6.7,93.2 0.8,87.3 0.8,80C0.8,72.7 6.7,66.8 14,66.8L27.2,66.8L27.2,80ZM33.8,80C33.8,72.7 39.7,66.8 47,66.8C54.3,66.8 60.2,72.7 60.2,80L60.2,113C60.2,120.3 54.3,126.2 47,126.2C39.7,126.2 33.8,120.3 33.8,113L33.8,80Z" style="fill:rgb(224,30,90);fill-rule:nonzero;"/>
                                            <path d="M47,27C39.7,27 33.8,21.1 33.8,13.8C33.8,6.5 39.7,0.6 47,0.6C54.3,0.6 60.2,6.5 60.2,13.8L60.2,27L47,27ZM47,33.7C54.3,33.7 60.2,39.6 60.2,46.9C60.2,54.2 54.3,60.1 47,60.1L13.9,60.1C6.6,60.1 0.7,54.2 0.7,46.9C0.7,39.6 6.6,33.7 13.9,33.7L47,33.7Z" style="fill:rgb(54,197,240);fill-rule:nonzero;"/>
                                            <path d="M99.9,46.9C99.9,39.6 105.8,33.7 113.1,33.7C120.4,33.7 126.3,39.6 126.3,46.9C126.3,54.2 120.4,60.1 113.1,60.1L99.9,60.1L99.9,46.9ZM93.3,46.9C93.3,54.2 87.4,60.1 80.1,60.1C72.8,60.1 66.9,54.2 66.9,46.9L66.9,13.8C66.9,6.5 72.8,0.6 80.1,0.6C87.4,0.6 93.3,6.5 93.3,13.8L93.3,46.9Z" style="fill:rgb(46,182,125);fill-rule:nonzero;"/>
                                            <path d="M80.1,99.8C87.4,99.8 93.3,105.7 93.3,113C93.3,120.3 87.4,126.2 80.1,126.2C72.8,126.2 66.9,120.3 66.9,113L66.9,99.8L80.1,99.8ZM80.1,93.2C72.8,93.2 66.9,87.3 66.9,80C66.9,72.7 72.8,66.8 80.1,66.8L113.2,66.8C120.5,66.8 126.4,72.7 126.4,80C126.4,87.3 120.5,93.2 113.2,93.2L80.1,93.2Z" style="fill:rgb(236,178,46);fill-rule:nonzero;"/>
                                        </g>
                                    </g>
                                </g>
                            </g>
                            <g transform="matrix(1,0,0,1,-475,-395)">
                                <g id="inner-dark-orange-logo2" serif:id="inner-dark-orange-logo">
                                    <g>
                                        <g transform="matrix(1,0,0,1,475,395)">
                                            <circle cx="0" cy="0" r="34.32" style="fill:rgb(88,30,90);"/>
                                        </g>
                                        <g transform="matrix(0.35828,0,0,0.35828,452.231,372.285)">
                                            <path d="M27.2,80C27.2,87.3 21.3,93.2 14,93.2C6.7,93.2 0.8,87.3 0.8,80C0.8,72.7 6.7,66.8 14,66.8L27.2,66.8L27.2,80ZM33.8,80C33.8,72.7 39.7,66.8 47,66.8C54.3,66.8 60.2,72.7 60.2,80L60.2,113C60.2,120.3 54.3,126.2 47,126.2C39.7,126.2 33.8,120.3 33.8,113L33.8,80Z" style="fill:rgb(224,30,90);fill-rule:nonzero;"/>
                                            <path d="M47,27C39.7,27 33.8,21.1 33.8,13.8C33.8,6.5 39.7,0.6 47,0.6C54.3,0.6 60.2,6.5 60.2,13.8L60.2,27L47,27ZM47,33.7C54.3,33.7 60.2,39.6 60.2,46.9C60.2,54.2 54.3,60.1 47,60.1L13.9,60.1C6.6,60.1 0.7,54.2 0.7,46.9C0.7,39.6 6.6,33.7 13.9,33.7L47,33.7Z" style="fill:rgb(54,197,240);fill-rule:nonzero;"/>
                                            <path d="M99.9,46.9C99.9,39.6 105.8,33.7 113.1,33.7C120.4,33.7 126.3,39.6 126.3,46.9C126.3,54.2 120.4,60.1 113.1,60.1L99.9,60.1L99.9,46.9ZM93.3,46.9C93.3,54.2 87.4,60.1 80.1,60.1C72.8,60.1 66.9,54.2 66.9,46.9L66.9,13.8C66.9,6.5 72.8,0.6 80.1,0.6C87.4,0.6 93.3,6.5 93.3,13.8L93.3,46.9Z" style="fill:rgb(46,182,125);fill-rule:nonzero;"/>
                                            <path d="M80.1,99.8C87.4,99.8 93.3,105.7 93.3,113C93.3,120.3 87.4,126.2 80.1,126.2C72.8,126.2 66.9,120.3 66.9,113L66.9,99.8L80.1,99.8ZM80.1,93.2C72.8,93.2 66.9,87.3 66.9,80C66.9,72.7 72.8,66.8 80.1,66.8L113.2,66.8C120.5,66.8 126.4,72.7 126.4,80C126.4,87.3 120.5,93.2 113.2,93.2L80.1,93.2Z" style="fill:rgb(236,178,46);fill-rule:nonzero;"/>
                                        </g>
                                    </g>
                                </g>
                            </g>
                        </g>
                        <g id="inner-red-logo" transform="matrix(1,0,0,1,315,160)" filter="url(#shadow)">
                            <g transform="matrix(1,0,0,1,-315,-160)">
                                <g id="inner-red-logo1" serif:id="inner-red-logo">
                                    <g>
                                        <g transform="matrix(1,0,0,1,315,160)">
                                            <circle cx="0" cy="0" r="34.32" style="fill:rgb(8,124,213);"/>
                                        </g>
                                        <g transform="matrix(2.5,0,0,2.5,292.5,137.475)">
                                            <path d="M17,4L17,13.74L13,17.02L6.8,14.76L6.8,17L3.29,12.41L13.52,13.21L13.52,4.44L17,4ZM13.59,4.49L7.85,1L7.85,3.29L2.58,4.84L1,6.87L1,11.48L3.26,12.48L3.26,6.57L13.59,4.49Z" style="fill:white;fill-rule:nonzero;"/>
                                        </g>
                                    </g>
                                </g>
                            </g>
                            <g transform="matrix(1,0,0,1,-315,-160)">
                                <g id="inner-red-logo2" serif:id="inner-red-logo">
                                    <g>
                                        <g transform="matrix(1,0,0,1,315,160)">
                                            <circle cx="0" cy="0" r="34.32" style="fill:rgb(8,124,213);"/>
                                        </g>
                                        <g transform="matrix(2.5,0,0,2.5,292.5,137.475)">
                                            <path d="M17,4L17,13.74L13,17.02L6.8,14.76L6.8,17L3.29,12.41L13.52,13.21L13.52,4.44L17,4ZM13.59,4.49L7.85,1L7.85,3.29L2.58,4.84L1,6.87L1,11.48L3.26,12.48L3.26,6.57L13.59,4.49Z" style="fill:white;fill-rule:nonzero;"/>
                                        </g>
                                    </g>
                                </g>
                            </g>
                        </g>
                        <g id="inner-orange-logo" transform="matrix(1,0,0,1,175,395)" filter="url(#shadow)">
                            <g transform="matrix(1,0,0,1,-175,-395)">
                                <g id="inner-orange-logo1" serif:id="inner-orange-logo">
                                    <g>
                                        <g transform="matrix(1,0,0,1,175,395)">
                                            <circle cx="0" cy="0" r="34.32" style="fill:rgb(255,243,234);"/>
                                        </g>
                                        <g transform="matrix(0.120001,0,0,0.120001,145,386.87)">
                                            <path d="M117.414,92.844L117.344,92.62L161.801,51.921L161.801,32.311L90.477,32.311L90.477,51.921L133.079,51.921L133.149,52.109L89.126,92.844L89.126,112.454L162.517,112.454L162.517,92.844L117.414,92.844Z" style="fill:rgb(32,21,21);fill-rule:nonzero;"/>
                                            <path d="M206.296,30.444C198.069,30.444 191.364,31.685 186.181,34.166C181.354,36.329 177.287,39.892 174.509,44.394C171.852,48.925 170.183,53.967 169.613,59.189L191.254,62.231C192.037,57.62 193.603,54.352 195.951,52.426C198.621,50.412 201.911,49.394 205.251,49.549C209.643,49.549 212.829,50.723 214.81,53.072C216.771,55.42 217.769,58.673 217.769,62.959L217.769,65.096L196.961,65.096C186.369,65.096 178.76,67.444 174.134,72.141C169.507,76.838 167.198,83.039 167.206,90.742C167.206,98.632 169.515,104.504 174.134,108.355C178.752,112.207 184.561,114.121 191.56,114.097C200.241,114.097 206.919,111.111 211.592,105.138C214.352,101.467 216.323,97.266 217.381,92.797L218.168,92.797L221.151,112.406L240.761,112.406L240.761,62.748C240.761,52.484 238.056,44.535 232.647,38.899C227.237,33.262 218.454,30.444 206.296,30.444ZM213.154,91.658C210.042,94.253 205.968,95.544 200.895,95.544C196.714,95.544 193.81,94.812 192.182,93.348C191.389,92.656 190.757,91.797 190.333,90.833C189.909,89.869 189.702,88.824 189.728,87.771C189.681,86.778 189.838,85.786 190.187,84.855C190.536,83.925 191.071,83.075 191.759,82.357C192.503,81.659 193.381,81.12 194.34,80.771C195.299,80.421 196.318,80.27 197.337,80.326L217.804,80.326L217.804,81.676C217.846,83.585 217.448,85.478 216.642,87.209C215.835,88.939 214.642,90.461 213.154,91.658Z" style="fill:rgb(32,21,21);fill-rule:nonzero;"/>
                                            <rect x="336.161" y="32.311" width="23.168" height="80.154" style="fill:rgb(32,21,21);fill-rule:nonzero;"/>
                                            <path d="M496.109,32.311C489.565,32.311 484.406,34.62 480.633,39.239C477.924,42.558 475.865,47.463 474.456,53.952L473.775,53.952L470.746,32.311L450.959,32.311L450.959,112.454L474.128,112.454L474.128,71.355C474.128,66.173 475.341,62.2 477.768,59.436C480.194,56.673 484.672,55.291 491.201,55.291L499.996,55.291L499.996,32.311L496.109,32.311Z" style="fill:rgb(32,21,21);fill-rule:nonzero;"/>
                                            <path d="M427.991,34.931C422.582,31.714 415.76,30.109 407.524,30.117C394.561,30.117 384.415,33.808 377.088,41.19C369.76,48.572 366.097,58.749 366.097,71.72C365.91,79.563 367.622,87.334 371.087,94.372C374.259,100.643 379.199,105.848 385.296,109.343C391.433,112.89 398.733,114.667 407.195,114.674C414.515,114.674 420.629,113.547 425.537,111.293C430.152,109.268 434.17,106.094 437.209,102.075C440.103,98.129 442.252,93.688 443.55,88.97L423.588,83.381C422.748,86.449 421.13,89.247 418.891,91.506C416.636,93.761 412.859,94.888 407.559,94.888C401.258,94.888 396.561,93.084 393.468,89.475C391.226,86.868 389.817,83.146 389.194,78.32L443.856,78.32C444.079,76.065 444.196,74.175 444.196,72.648L444.196,67.657C444.328,60.953 442.943,54.306 440.145,48.212C437.526,42.661 433.289,38.031 427.991,34.931ZM406.855,49.222C416.249,49.222 421.576,53.844 422.836,63.09L389.605,63.09C390.133,60.005 391.411,57.097 393.328,54.623C396.373,51.014 400.882,49.214 406.855,49.222Z" style="fill:rgb(32,21,21);fill-rule:nonzero;"/>
                                            <path d="M347.993,0.008C346.25,-0.052 344.513,0.24 342.885,0.865C341.257,1.491 339.772,2.437 338.517,3.648C337.28,4.87 336.31,6.336 335.669,7.954C335.028,9.571 334.73,11.303 334.795,13.041C334.732,14.791 335.031,16.535 335.672,18.164C336.314,19.793 337.284,21.272 338.522,22.509C339.761,23.746 341.241,24.715 342.87,25.355C344.5,25.995 346.244,26.292 347.993,26.228C349.731,26.294 351.465,25.997 353.082,25.356C354.699,24.715 356.165,23.744 357.387,22.506C358.599,21.254 359.545,19.771 360.168,18.144C360.792,16.518 361.08,14.782 361.015,13.041C361.095,11.311 360.814,9.583 360.188,7.968C359.563,6.352 358.608,4.885 357.384,3.659C356.159,2.434 354.693,1.477 353.078,0.851C351.463,0.224 349.735,-0.059 348.005,0.019L347.993,0.008Z" style="fill:rgb(32,21,21);fill-rule:nonzero;"/>
                                            <path d="M300.14,30.117C292.25,30.117 285.909,32.594 281.118,37.55C277.571,41.221 274.969,46.701 273.309,53.989L272.569,53.989L269.54,32.348L249.753,32.348L249.753,135.494L272.921,135.494L272.921,93.01L273.767,93.01C274.474,95.842 275.465,98.596 276.726,101.229C278.686,105.518 281.9,109.113 285.944,111.539C290.137,113.827 294.86,114.966 299.635,114.839C309.335,114.839 316.721,111.062 321.794,103.507C326.866,95.953 329.403,85.412 329.403,71.885C329.403,58.819 326.949,48.592 322.04,41.202C317.132,33.812 309.832,30.117 300.14,30.117ZM302.489,88.195C299.788,92.109 295.561,94.066 289.807,94.066C287.435,94.176 285.07,93.719 282.91,92.732C280.749,91.746 278.855,90.259 277.384,88.395C274.385,84.629 272.89,79.474 272.898,72.93L272.898,71.403C272.898,64.757 274.393,59.669 277.384,56.138C280.374,52.608 284.515,50.862 289.807,50.901C295.663,50.901 299.917,52.76 302.571,56.478C305.225,60.197 306.552,65.383 306.552,72.037C306.568,78.918 305.221,84.304 302.512,88.195L302.489,88.195Z" style="fill:rgb(32,21,21);fill-rule:nonzero;"/>
                                            <rect x="0" y="92.843" width="80.154" height="19.634" style="fill:rgb(255,79,0);fill-rule:nonzero;"/>
                                        </g>
                                    </g>
                                </g>
                            </g>
                            <g transform="matrix(1,0,0,1,-175,-395)">
                                <g id="inner-orange-logo2" serif:id="inner-orange-logo">
                                    <g>
                                        <g transform="matrix(1,0,0,1,175,395)">
                                            <circle cx="0" cy="0" r="34.32" style="fill:rgb(255,243,234);"/>
                                        </g>
                                        <g transform="matrix(0.120001,0,0,0.120001,145,386.87)">
                                            <path d="M117.414,92.844L117.344,92.62L161.801,51.921L161.801,32.311L90.477,32.311L90.477,51.921L133.079,51.921L133.149,52.109L89.126,92.844L89.126,112.454L162.517,112.454L162.517,92.844L117.414,92.844Z" style="fill:rgb(32,21,21);fill-rule:nonzero;"/>
                                            <path d="M206.296,30.444C198.069,30.444 191.364,31.685 186.181,34.166C181.354,36.329 177.287,39.892 174.509,44.394C171.852,48.925 170.183,53.967 169.613,59.189L191.254,62.231C192.037,57.62 193.603,54.352 195.951,52.426C198.621,50.412 201.911,49.394 205.251,49.549C209.643,49.549 212.829,50.723 214.81,53.072C216.771,55.42 217.769,58.673 217.769,62.959L217.769,65.096L196.961,65.096C186.369,65.096 178.76,67.444 174.134,72.141C169.507,76.838 167.198,83.039 167.206,90.742C167.206,98.632 169.515,104.504 174.134,108.355C178.752,112.207 184.561,114.121 191.56,114.097C200.241,114.097 206.919,111.111 211.592,105.138C214.352,101.467 216.323,97.266 217.381,92.797L218.168,92.797L221.151,112.406L240.761,112.406L240.761,62.748C240.761,52.484 238.056,44.535 232.647,38.899C227.237,33.262 218.454,30.444 206.296,30.444ZM213.154,91.658C210.042,94.253 205.968,95.544 200.895,95.544C196.714,95.544 193.81,94.812 192.182,93.348C191.389,92.656 190.757,91.797 190.333,90.833C189.909,89.869 189.702,88.824 189.728,87.771C189.681,86.778 189.838,85.786 190.187,84.855C190.536,83.925 191.071,83.075 191.759,82.357C192.503,81.659 193.381,81.12 194.34,80.771C195.299,80.421 196.318,80.27 197.337,80.326L217.804,80.326L217.804,81.676C217.846,83.585 217.448,85.478 216.642,87.209C215.835,88.939 214.642,90.461 213.154,91.658Z" style="fill:rgb(32,21,21);fill-rule:nonzero;"/>
                                            <rect x="336.161" y="32.311" width="23.168" height="80.154" style="fill:rgb(32,21,21);fill-rule:nonzero;"/>
                                            <path d="M496.109,32.311C489.565,32.311 484.406,34.62 480.633,39.239C477.924,42.558 475.865,47.463 474.456,53.952L473.775,53.952L470.746,32.311L450.959,32.311L450.959,112.454L474.128,112.454L474.128,71.355C474.128,66.173 475.341,62.2 477.768,59.436C480.194,56.673 484.672,55.291 491.201,55.291L499.996,55.291L499.996,32.311L496.109,32.311Z" style="fill:rgb(32,21,21);fill-rule:nonzero;"/>
                                            <path d="M427.991,34.931C422.582,31.714 415.76,30.109 407.524,30.117C394.561,30.117 384.415,33.808 377.088,41.19C369.76,48.572 366.097,58.749 366.097,71.72C365.91,79.563 367.622,87.334 371.087,94.372C374.259,100.643 379.199,105.848 385.296,109.343C391.433,112.89 398.733,114.667 407.195,114.674C414.515,114.674 420.629,113.547 425.537,111.293C430.152,109.268 434.17,106.094 437.209,102.075C440.103,98.129 442.252,93.688 443.55,88.97L423.588,83.381C422.748,86.449 421.13,89.247 418.891,91.506C416.636,93.761 412.859,94.888 407.559,94.888C401.258,94.888 396.561,93.084 393.468,89.475C391.226,86.868 389.817,83.146 389.194,78.32L443.856,78.32C444.079,76.065 444.196,74.175 444.196,72.648L444.196,67.657C444.328,60.953 442.943,54.306 440.145,48.212C437.526,42.661 433.289,38.031 427.991,34.931ZM406.855,49.222C416.249,49.222 421.576,53.844 422.836,63.09L389.605,63.09C390.133,60.005 391.411,57.097 393.328,54.623C396.373,51.014 400.882,49.214 406.855,49.222Z" style="fill:rgb(32,21,21);fill-rule:nonzero;"/>
                                            <path d="M347.993,0.008C346.25,-0.052 344.513,0.24 342.885,0.865C341.257,1.491 339.772,2.437 338.517,3.648C337.28,4.87 336.31,6.336 335.669,7.954C335.028,9.571 334.73,11.303 334.795,13.041C334.732,14.791 335.031,16.535 335.672,18.164C336.314,19.793 337.284,21.272 338.522,22.509C339.761,23.746 341.241,24.715 342.87,25.355C344.5,25.995 346.244,26.292 347.993,26.228C349.731,26.294 351.465,25.997 353.082,25.356C354.699,24.715 356.165,23.744 357.387,22.506C358.599,21.254 359.545,19.771 360.168,18.144C360.792,16.518 361.08,14.782 361.015,13.041C361.095,11.311 360.814,9.583 360.188,7.968C359.563,6.352 358.608,4.885 357.384,3.659C356.159,2.434 354.693,1.477 353.078,0.851C351.463,0.224 349.735,-0.059 348.005,0.019L347.993,0.008Z" style="fill:rgb(32,21,21);fill-rule:nonzero;"/>
                                            <path d="M300.14,30.117C292.25,30.117 285.909,32.594 281.118,37.55C277.571,41.221 274.969,46.701 273.309,53.989L272.569,53.989L269.54,32.348L249.753,32.348L249.753,135.494L272.921,135.494L272.921,93.01L273.767,93.01C274.474,95.842 275.465,98.596 276.726,101.229C278.686,105.518 281.9,109.113 285.944,111.539C290.137,113.827 294.86,114.966 299.635,114.839C309.335,114.839 316.721,111.062 321.794,103.507C326.866,95.953 329.403,85.412 329.403,71.885C329.403,58.819 326.949,48.592 322.04,41.202C317.132,33.812 309.832,30.117 300.14,30.117ZM302.489,88.195C299.788,92.109 295.561,94.066 289.807,94.066C287.435,94.176 285.07,93.719 282.91,92.732C280.749,91.746 278.855,90.259 277.384,88.395C274.385,84.629 272.89,79.474 272.898,72.93L272.898,71.403C272.898,64.757 274.393,59.669 277.384,56.138C280.374,52.608 284.515,50.862 289.807,50.901C295.663,50.901 299.917,52.76 302.571,56.478C305.225,60.197 306.552,65.383 306.552,72.037C306.568,78.918 305.221,84.304 302.512,88.195L302.489,88.195Z" style="fill:rgb(32,21,21);fill-rule:nonzero;"/>
                                            <rect x="0" y="92.843" width="80.154" height="19.634" style="fill:rgb(255,79,0);fill-rule:nonzero;"/>
                                        </g>
                                    </g>
                                </g>
                            </g>
                        </g>
                    </g>
                </g>
            </g>
        </g>
    </g>
       <defs>
          <filter id='shadow' color-interpolation-filters="sRGB">
            <feDropShadow dx="2" dy="2" stdDeviation="3" flood-opacity="0.5"/>
          </filter>
        <linearGradient id="_Linear1" x1="0" y1="0" x2="1" y2="0" gradientUnits="userSpaceOnUse" gradientTransform="matrix(317.386,35.2642,0.0354504,-0.319062,217.514,352.862)"><stop offset="0" style="stop-color:rgb(128,68,253);stop-opacity:1"/><stop offset="0.18" style="stop-color:rgb(128,68,253);stop-opacity:1"/><stop offset="1" style="stop-color:rgb(87,38,192);stop-opacity:1"/></linearGradient>
        <linearGradient id="_Linear4" x1="0" y1="0" x2="1" y2="0" gradientUnits="userSpaceOnUse" gradientTransform="matrix(315.734,69.2995,-69.2995,315.734,228.266,996.802)"><stop offset="0" style="stop-color:white;stop-opacity:1"/><stop offset="0.18" style="stop-color:white;stop-opacity:1"/><stop offset="1" style="stop-color:white;stop-opacity:0.41"/></linearGradient>
        <linearGradient id="_Linear7" x1="0" y1="0" x2="1" y2="0" gradientUnits="userSpaceOnUse" gradientTransform="matrix(-14.71,15.17,-15.17,-14.71,81.0326,100.473)"><stop offset="0" style="stop-color:white;stop-opacity:0.4"/><stop offset="0.15" style="stop-color:white;stop-opacity:0.4"/><stop offset="0.29" style="stop-color:white;stop-opacity:0.47"/><stop offset="0.56" style="stop-color:white;stop-opacity:0.66"/><stop offset="0.95" style="stop-color:white;stop-opacity:0.96"/><stop offset="1" style="stop-color:white;stop-opacity:1"/></linearGradient>
        <linearGradient id="_Linear8" x1="0" y1="0" x2="1" y2="0" gradientUnits="userSpaceOnUse" gradientTransform="matrix(-17.01,16.55,-16.55,-17.01,64.8974,117.797)"><stop offset="0" style="stop-color:white;stop-opacity:0.4"/><stop offset="0.15" style="stop-color:white;stop-opacity:0.4"/><stop offset="0.29" style="stop-color:white;stop-opacity:0.47"/><stop offset="0.56" style="stop-color:white;stop-opacity:0.66"/><stop offset="0.95" style="stop-color:white;stop-opacity:0.96"/><stop offset="1" style="stop-color:white;stop-opacity:1"/></linearGradient>
        <linearGradient id="_Linear9" x1="0" y1="0" x2="1" y2="0" gradientUnits="userSpaceOnUse" gradientTransform="matrix(-14.71,15.17,-15.17,-14.71,81.0326,100.473)"><stop offset="0" style="stop-color:white;stop-opacity:0.4"/><stop offset="0.15" style="stop-color:white;stop-opacity:0.4"/><stop offset="0.29" style="stop-color:white;stop-opacity:0.47"/><stop offset="0.56" style="stop-color:white;stop-opacity:0.66"/><stop offset="0.95" style="stop-color:white;stop-opacity:0.96"/><stop offset="1" style="stop-color:white;stop-opacity:1"/></linearGradient>
        <linearGradient id="_Linear10" x1="0" y1="0" x2="1" y2="0" gradientUnits="userSpaceOnUse" gradientTransform="matrix(-17.01,16.55,-16.55,-17.01,64.8974,117.797)"><stop offset="0" style="stop-color:white;stop-opacity:0.4"/><stop offset="0.15" style="stop-color:white;stop-opacity:0.4"/><stop offset="0.29" style="stop-color:white;stop-opacity:0.47"/><stop offset="0.56" style="stop-color:white;stop-opacity:0.66"/><stop offset="0.95" style="stop-color:white;stop-opacity:0.96"/><stop offset="1" style="stop-color:white;stop-opacity:1"/></linearGradient>
        <linearGradient id="_Linear11" x1="0" y1="0" x2="1" y2="0" gradientUnits="userSpaceOnUse" gradientTransform="matrix(27.1742,0,0,27.1742,5.61511,31.179)"><stop offset="0" style="stop-color:rgb(137,48,253);stop-opacity:1"/><stop offset="1" style="stop-color:rgb(73,204,249);stop-opacity:1"/></linearGradient>
        <linearGradient id="_Linear12" x1="0" y1="0" x2="1" y2="0" gradientUnits="userSpaceOnUse" gradientTransform="matrix(26.0369,0,0,26.0369,5.94116,13.0864)"><stop offset="0" style="stop-color:rgb(255,2,240);stop-opacity:1"/><stop offset="1" style="stop-color:rgb(255,200,0);stop-opacity:1"/></linearGradient>
        <linearGradient id="_Linear13" x1="0" y1="0" x2="1" y2="0" gradientUnits="userSpaceOnUse" gradientTransform="matrix(27.1742,0,0,27.1742,5.61511,31.179)"><stop offset="0" style="stop-color:rgb(137,48,253);stop-opacity:1"/><stop offset="1" style="stop-color:rgb(73,204,249);stop-opacity:1"/></linearGradient>
        <linearGradient id="_Linear14" x1="0" y1="0" x2="1" y2="0" gradientUnits="userSpaceOnUse" gradientTransform="matrix(26.0369,0,0,26.0369,5.94116,13.0864)"><stop offset="0" style="stop-color:rgb(255,2,240);stop-opacity:1"/><stop offset="1" style="stop-color:rgb(255,200,0);stop-opacity:1"/></linearGradient>
    </defs>
</svg>
