<?xml version="1.0" encoding="UTF-8" standalone="no"?>
<!DOCTYPE svg PUBLIC "-//W3C//DTD SVG 1.1//EN" "http://www.w3.org/Graphics/SVG/1.1/DTD/svg11.dtd">
<svg width="100%" height="100%" viewBox="0 0 1100 650" version="1.1" xmlns="http://www.w3.org/2000/svg" xmlns:xlink="http://www.w3.org/1999/xlink" xml:space="preserve" xmlns:serif="http://www.serif.com/" style="fill-rule:evenodd;clip-rule:evenodd;stroke-linecap:round;stroke-linejoin:round;">
    <g id="group" class="dark:hidden block" style="stroke:rgb(109,51,232);">
        <g id="Lines" transform="matrix(1,0,0,1,75,-0.866413)">
            <g>
                <g transform="matrix(1,0,0,-1,0,650)">
                    <g transform="matrix(1,0,0,-1,-75,649.134)" filter="url(#shadow)">
                        <path d="M809.943,291.351L875,324.134L809.74,356.509L809.943,291.351Z" style="fill:rgb(109,51,232);"/>
                        <path d="M235.755,512.939C228.136,518.875 217.131,517.508 211.195,509.889C205.259,502.269 206.626,491.264 214.245,485.328C435.965,312.596 601.786,305.959 822.914,306.471C832.572,306.493 840.395,314.353 840.373,324.011C840.351,333.67 832.491,341.493 822.833,341.471C609.652,340.978 449.507,346.413 235.755,512.939Z" style="fill:rgb(109,51,232);"/>
                    </g>
                </g>
                <g transform="matrix(1,-0,-0,1,-75,0.866413)" filter="url(#shadow)">
                    <path d="M809.831,291.574L875,324.134L809.851,356.733L809.831,291.574Z" style="fill:rgb(109,51,232);"/>
                    <path d="M211.746,160.561C205.439,153.246 206.258,142.186 213.573,135.88C220.888,129.573 231.947,130.391 238.254,137.706C394.787,319.266 621.661,307.889 822.765,306.65C832.423,306.59 840.313,314.383 840.373,324.041C840.432,333.7 832.639,341.589 822.981,341.649C612.271,342.948 375.755,350.791 211.746,160.561Z" style="fill:rgb(109,51,232);"/>
                </g>
            </g>
        </g>
        <g transform="matrix(1,0,0,1,-20.22,0)" filter="url(#shadow)">
            <g transform="matrix(4.87563,0,0,4.87563,153.905,524.879)">
                <path d="M2.25,12.76C2.25,14.36 3.373,15.754 4.957,15.987C6.044,16.147 7.142,16.27 8.25,16.356L8.25,21L12.326,16.924C12.602,16.649 12.974,16.491 13.363,16.481C15.264,16.428 17.161,16.263 19.043,15.987C20.627,15.754 21.75,14.361 21.75,12.759L21.75,6.741C21.75,5.139 20.627,3.746 19.043,3.513C16.711,3.171 14.357,2.999 12,3C9.608,3 7.256,3.175 4.957,3.513C3.373,3.746 2.25,5.14 2.25,6.741L2.25,12.76Z" style="fill:none;fill-rule:nonzero;stroke-width:1.5px;"/>
            </g>
            <g transform="matrix(4.87563,0,0,4.87563,29.5202,524.879)">
                <path d="M7.5,8.25L16.5,8.25M7.5,11.25L12,11.25M2.25,12.76C2.25,14.36 3.373,15.754 4.957,15.987C6.086,16.153 7.227,16.28 8.38,16.366C8.73,16.392 9.05,16.576 9.245,16.867L12,21L14.755,16.867C14.951,16.576 15.27,16.391 15.62,16.366C16.765,16.281 17.907,16.154 19.043,15.987C20.627,15.754 21.75,14.361 21.75,12.759L21.75,6.741C21.75,5.139 20.627,3.746 19.043,3.513C16.711,3.171 14.357,2.999 12,3C9.608,3 7.256,3.175 4.957,3.513C3.373,3.746 2.25,5.14 2.25,6.741L2.25,12.76Z" style="fill:none;fill-rule:nonzero;stroke-width:1.5px;"/>
            </g>
            <g transform="matrix(4.87563,0,0,4.87563,91.4957,394.642)">
                <path d="M15,19.128C15.853,19.376 16.737,19.501 17.625,19.5C19.053,19.502 20.463,19.176 21.746,18.548C21.748,18.49 21.75,18.432 21.75,18.374C21.75,16.111 19.888,14.249 17.625,14.249C16.26,14.249 14.98,14.926 14.213,16.055M15,19.128L15,19.125C15,18.012 14.715,16.965 14.214,16.055M15,19.128L15,19.234C13.076,20.393 10.87,21.004 8.624,21C6.293,21 4.112,20.355 2.25,19.234L2.249,19.125C2.249,19.124 2.249,19.123 2.249,19.122C2.249,15.624 5.127,12.747 8.624,12.747C10.948,12.747 13.095,14.017 14.213,16.055M12,6.375C12,8.226 10.476,9.75 8.625,9.75C6.774,9.75 5.25,8.226 5.25,6.375C5.25,4.524 6.774,3 8.625,3C10.476,3 12,4.524 12,6.375ZM20.25,8.625C20.25,10.065 19.065,11.25 17.625,11.25C16.185,11.25 15,10.065 15,8.625C15,7.185 16.185,6 17.625,6C19.065,6 20.25,7.185 20.25,8.625Z" style="fill:none;fill-rule:nonzero;stroke-width:1.5px;"/>
            </g>
        </g>
        <g transform="matrix(1,0,0,1,17.9084,9.56771)" filter="url(#shadow)">
            <g transform="matrix(4.87563,0,0,4.87563,940.201,341.194)">
                <path d="M20.25,8.511C21.134,8.795 21.75,9.639 21.75,10.608L21.75,14.894C21.75,16.03 20.903,16.994 19.77,17.087C19.43,17.114 19.09,17.139 18.75,17.159L18.75,20.25L15.75,17.25C14.396,17.25 13.056,17.195 11.73,17.087C11.441,17.064 11.161,16.981 10.905,16.845M20.25,8.511C20.095,8.461 19.936,8.429 19.774,8.416C17.096,8.194 14.404,8.194 11.726,8.416C10.595,8.51 9.75,9.473 9.75,10.608L9.75,14.894C9.75,15.731 10.21,16.474 10.905,16.845M20.25,8.511L20.25,6.637C20.25,5.016 19.098,3.611 17.49,3.402C15.421,3.134 13.336,3 11.25,3C9.135,3 7.052,3.137 5.01,3.402C3.402,3.611 2.25,5.016 2.25,6.637L2.25,12.863C2.25,14.484 3.402,15.889 5.01,16.098C5.587,16.173 6.167,16.238 6.75,16.292L6.75,21L10.905,16.845" style="fill:none;fill-rule:nonzero;stroke-width:1.5px;"/>
            </g>
            <g transform="matrix(5.08761,0,0,5.08761,876.955,185.846)">
                <path d="M18,18.72C19.267,18.824 20.541,18.66 21.741,18.241C21.748,18.16 21.751,18.079 21.751,17.998C21.751,16.353 20.397,14.998 18.751,14.998C18.147,14.998 17.557,15.181 17.059,15.521M17.999,18.719L18,18.75C18,18.975 17.988,19.197 17.963,19.416C16.148,20.457 14.092,21.003 12,21C9.83,21 7.793,20.424 6.037,19.416C6.011,19.185 5.999,18.952 6,18.719M18,18.719C17.996,17.586 17.67,16.477 17.059,15.522M17.059,15.522C15.958,13.796 14.047,12.749 12,12.75C9.953,12.749 8.042,13.796 6.942,15.522M6.942,15.522C6.444,15.182 5.854,15 5.251,15C3.605,15 2.251,16.354 2.251,18C2.251,18.081 2.254,18.162 2.261,18.242C3.46,18.664 4.735,18.826 6.001,18.719M6.941,15.522C6.331,16.477 6.005,17.586 6.001,18.719M15,6.75C15,8.396 13.646,9.75 12,9.75C10.354,9.75 9,8.396 9,6.75C9,5.104 10.354,3.75 12,3.75C13.646,3.75 15,5.104 15,6.75ZM21,9.75C21,10.984 19.984,12 18.75,12C17.516,12 16.5,10.984 16.5,9.75C16.5,8.516 17.516,7.5 18.75,7.5C19.984,7.5 21,8.516 21,9.75ZM7.5,9.75C7.5,10.984 6.484,12 5.25,12C4.016,12 3,10.984 3,9.75C3,8.516 4.016,7.5 5.25,7.5C6.484,7.5 7.5,8.516 7.5,9.75Z" style="fill:none;fill-rule:nonzero;stroke-width:1.5px;"/>
            </g>
            <g transform="matrix(5.08757,0,0,5.08757,814.515,336.742)">
                <path d="M8.625,12C8.625,12.206 8.456,12.375 8.25,12.375C8.044,12.375 7.875,12.206 7.875,12C7.875,11.794 8.044,11.625 8.25,11.625C8.456,11.625 8.625,11.794 8.625,12ZM8.625,12L8.25,12M12.375,12C12.375,12.206 12.206,12.375 12,12.375C11.794,12.375 11.625,12.206 11.625,12C11.625,11.794 11.794,11.625 12,11.625C12.206,11.625 12.375,11.794 12.375,12ZM12.375,12L12,12M16.125,12C16.125,12.206 15.956,12.375 15.75,12.375C15.544,12.375 15.375,12.206 15.375,12C15.375,11.794 15.544,11.625 15.75,11.625C15.956,11.625 16.125,11.794 16.125,12ZM16.125,12L15.75,12M21,12C21,16.556 16.97,20.25 12,20.25C11.137,20.251 10.278,20.138 9.445,19.913C8.271,20.739 6.838,21.114 5.41,20.97C5.251,20.955 5.093,20.933 4.936,20.905C5.429,20.324 5.765,19.627 5.914,18.88C6.004,18.423 5.781,17.979 5.447,17.654C3.93,16.178 3,14.189 3,12C3,7.444 7.03,3.75 12,3.75C16.97,3.75 21,7.444 21,12Z" style="fill:none;fill-rule:nonzero;stroke-width:1.5px;"/>
            </g>
        </g>
        <g transform="matrix(1,0,0,1,-21.7509,-0.237113)" filter="url(#shadow)">
            <g transform="matrix(4.50058,0,0,4.50058,95.9931,19.1286)">
                <path d="M15.75,6C15.75,8.057 14.057,9.75 12,9.75C9.943,9.75 8.25,8.057 8.25,6C8.25,3.943 9.943,2.25 12,2.25C14.057,2.25 15.75,3.943 15.75,6ZM4.501,20.118C4.567,16.05 7.932,12.74 12,12.74C16.068,12.74 19.433,16.05 19.499,20.118C17.146,21.197 14.588,21.754 12,21.75C9.324,21.75 6.784,21.166 4.501,20.118Z" style="fill:none;fill-rule:nonzero;stroke-width:1.5px;"/>
            </g>
            <g transform="matrix(5.08757,0,0,5.08757,90.7001,133.744)">
                <path d="M8.625,12C8.625,12.206 8.456,12.375 8.25,12.375C8.044,12.375 7.875,12.206 7.875,12C7.875,11.794 8.044,11.625 8.25,11.625C8.456,11.625 8.625,11.794 8.625,12ZM8.625,12L8.25,12M12.375,12C12.375,12.206 12.206,12.375 12,12.375C11.794,12.375 11.625,12.206 11.625,12C11.625,11.794 11.794,11.625 12,11.625C12.206,11.625 12.375,11.794 12.375,12ZM12.375,12L12,12M16.125,12C16.125,12.206 15.956,12.375 15.75,12.375C15.544,12.375 15.375,12.206 15.375,12C15.375,11.794 15.544,11.625 15.75,11.625C15.956,11.625 16.125,11.794 16.125,12ZM16.125,12L15.75,12M21,12C21,16.556 16.97,20.25 12,20.25C11.137,20.251 10.278,20.138 9.445,19.913C8.271,20.739 6.838,21.114 5.41,20.97C5.251,20.955 5.093,20.933 4.936,20.905C5.429,20.324 5.765,19.627 5.914,18.88C6.004,18.423 5.781,17.979 5.447,17.654C3.93,16.178 3,14.189 3,12C3,7.444 7.03,3.75 12,3.75C16.97,3.75 21,7.444 21,12Z" style="fill:none;fill-rule:nonzero;stroke-width:1.5px;"/>
            </g>
        </g>
    </g>
    <g id="dark-group" class="dark:block hidden" style="stroke:rgb(255,255,255);" >
        <g id="Lines-dark" transform="matrix(1,0,0,1,75,-0.866413)">
            <g>
                <g transform="matrix(1,0,0,-1,0,650)">
                    <g transform="matrix(1,0,0,-1,-75,649.134)" filter="url(#shadow)">
                        <path d="M809.943,291.351L875,324.134L809.74,356.509L809.943,291.351Z" style="fill:rgb(255,255,255);"/>
                        <path d="M235.755,512.939C228.136,518.875 217.131,517.508 211.195,509.889C205.259,502.269 206.626,491.264 214.245,485.328C435.965,312.596 601.786,305.959 822.914,306.471C832.572,306.493 840.395,314.353 840.373,324.011C840.351,333.67 832.491,341.493 822.833,341.471C609.652,340.978 449.507,346.413 235.755,512.939Z" style="fill:rgb(255,255,255);"/>
                    </g>
                </g>
                <g transform="matrix(1,-0,-0,1,-75,0.866413)" filter="url(#shadow)">
                    <path d="M809.831,291.574L875,324.134L809.851,356.733L809.831,291.574Z" style="fill:rgb(255,255,255);"/>
                    <path d="M211.746,160.561C205.439,153.246 206.258,142.186 213.573,135.88C220.888,129.573 231.947,130.391 238.254,137.706C394.787,319.266 621.661,307.889 822.765,306.65C832.423,306.59 840.313,314.383 840.373,324.041C840.432,333.7 832.639,341.589 822.981,341.649C612.271,342.948 375.755,350.791 211.746,160.561Z" style="fill:rgb(255,255,255);"/>
                </g>
            </g>
        </g>
        <g transform="matrix(1,0,0,1,-20.22,0)" filter="url(#shadow)">
            <g transform="matrix(4.87563,0,0,4.87563,153.905,524.879)">
                <path d="M2.25,12.76C2.25,14.36 3.373,15.754 4.957,15.987C6.044,16.147 7.142,16.27 8.25,16.356L8.25,21L12.326,16.924C12.602,16.649 12.974,16.491 13.363,16.481C15.264,16.428 17.161,16.263 19.043,15.987C20.627,15.754 21.75,14.361 21.75,12.759L21.75,6.741C21.75,5.139 20.627,3.746 19.043,3.513C16.711,3.171 14.357,2.999 12,3C9.608,3 7.256,3.175 4.957,3.513C3.373,3.746 2.25,5.14 2.25,6.741L2.25,12.76Z" style="fill:none;fill-rule:nonzero;stroke-width:1.5px;"/>
            </g>
            <g transform="matrix(4.87563,0,0,4.87563,29.5202,524.879)">
                <path d="M7.5,8.25L16.5,8.25M7.5,11.25L12,11.25M2.25,12.76C2.25,14.36 3.373,15.754 4.957,15.987C6.086,16.153 7.227,16.28 8.38,16.366C8.73,16.392 9.05,16.576 9.245,16.867L12,21L14.755,16.867C14.951,16.576 15.27,16.391 15.62,16.366C16.765,16.281 17.907,16.154 19.043,15.987C20.627,15.754 21.75,14.361 21.75,12.759L21.75,6.741C21.75,5.139 20.627,3.746 19.043,3.513C16.711,3.171 14.357,2.999 12,3C9.608,3 7.256,3.175 4.957,3.513C3.373,3.746 2.25,5.14 2.25,6.741L2.25,12.76Z" style="fill:none;fill-rule:nonzero;stroke-width:1.5px;"/>
            </g>
            <g transform="matrix(4.87563,0,0,4.87563,91.4957,394.642)">
                <path d="M15,19.128C15.853,19.376 16.737,19.501 17.625,19.5C19.053,19.502 20.463,19.176 21.746,18.548C21.748,18.49 21.75,18.432 21.75,18.374C21.75,16.111 19.888,14.249 17.625,14.249C16.26,14.249 14.98,14.926 14.213,16.055M15,19.128L15,19.125C15,18.012 14.715,16.965 14.214,16.055M15,19.128L15,19.234C13.076,20.393 10.87,21.004 8.624,21C6.293,21 4.112,20.355 2.25,19.234L2.249,19.125C2.249,19.124 2.249,19.123 2.249,19.122C2.249,15.624 5.127,12.747 8.624,12.747C10.948,12.747 13.095,14.017 14.213,16.055M12,6.375C12,8.226 10.476,9.75 8.625,9.75C6.774,9.75 5.25,8.226 5.25,6.375C5.25,4.524 6.774,3 8.625,3C10.476,3 12,4.524 12,6.375ZM20.25,8.625C20.25,10.065 19.065,11.25 17.625,11.25C16.185,11.25 15,10.065 15,8.625C15,7.185 16.185,6 17.625,6C19.065,6 20.25,7.185 20.25,8.625Z" style="fill:none;fill-rule:nonzero;stroke-width:1.5px;"/>
            </g>
        </g>
        <g transform="matrix(1,0,0,1,17.9084,9.56771)" filter="url(#shadow)">
            <g transform="matrix(4.87563,0,0,4.87563,940.201,341.194)">
                <path d="M20.25,8.511C21.134,8.795 21.75,9.639 21.75,10.608L21.75,14.894C21.75,16.03 20.903,16.994 19.77,17.087C19.43,17.114 19.09,17.139 18.75,17.159L18.75,20.25L15.75,17.25C14.396,17.25 13.056,17.195 11.73,17.087C11.441,17.064 11.161,16.981 10.905,16.845M20.25,8.511C20.095,8.461 19.936,8.429 19.774,8.416C17.096,8.194 14.404,8.194 11.726,8.416C10.595,8.51 9.75,9.473 9.75,10.608L9.75,14.894C9.75,15.731 10.21,16.474 10.905,16.845M20.25,8.511L20.25,6.637C20.25,5.016 19.098,3.611 17.49,3.402C15.421,3.134 13.336,3 11.25,3C9.135,3 7.052,3.137 5.01,3.402C3.402,3.611 2.25,5.016 2.25,6.637L2.25,12.863C2.25,14.484 3.402,15.889 5.01,16.098C5.587,16.173 6.167,16.238 6.75,16.292L6.75,21L10.905,16.845" style="fill:none;fill-rule:nonzero;stroke-width:1.5px;"/>
            </g>
            <g transform="matrix(5.08761,0,0,5.08761,876.955,185.846)">
                <path d="M18,18.72C19.267,18.824 20.541,18.66 21.741,18.241C21.748,18.16 21.751,18.079 21.751,17.998C21.751,16.353 20.397,14.998 18.751,14.998C18.147,14.998 17.557,15.181 17.059,15.521M17.999,18.719L18,18.75C18,18.975 17.988,19.197 17.963,19.416C16.148,20.457 14.092,21.003 12,21C9.83,21 7.793,20.424 6.037,19.416C6.011,19.185 5.999,18.952 6,18.719M18,18.719C17.996,17.586 17.67,16.477 17.059,15.522M17.059,15.522C15.958,13.796 14.047,12.749 12,12.75C9.953,12.749 8.042,13.796 6.942,15.522M6.942,15.522C6.444,15.182 5.854,15 5.251,15C3.605,15 2.251,16.354 2.251,18C2.251,18.081 2.254,18.162 2.261,18.242C3.46,18.664 4.735,18.826 6.001,18.719M6.941,15.522C6.331,16.477 6.005,17.586 6.001,18.719M15,6.75C15,8.396 13.646,9.75 12,9.75C10.354,9.75 9,8.396 9,6.75C9,5.104 10.354,3.75 12,3.75C13.646,3.75 15,5.104 15,6.75ZM21,9.75C21,10.984 19.984,12 18.75,12C17.516,12 16.5,10.984 16.5,9.75C16.5,8.516 17.516,7.5 18.75,7.5C19.984,7.5 21,8.516 21,9.75ZM7.5,9.75C7.5,10.984 6.484,12 5.25,12C4.016,12 3,10.984 3,9.75C3,8.516 4.016,7.5 5.25,7.5C6.484,7.5 7.5,8.516 7.5,9.75Z" style="fill:none;fill-rule:nonzero;stroke-width:1.5px;"/>
            </g>
            <g transform="matrix(5.08757,0,0,5.08757,814.515,336.742)">
                <path d="M8.625,12C8.625,12.206 8.456,12.375 8.25,12.375C8.044,12.375 7.875,12.206 7.875,12C7.875,11.794 8.044,11.625 8.25,11.625C8.456,11.625 8.625,11.794 8.625,12ZM8.625,12L8.25,12M12.375,12C12.375,12.206 12.206,12.375 12,12.375C11.794,12.375 11.625,12.206 11.625,12C11.625,11.794 11.794,11.625 12,11.625C12.206,11.625 12.375,11.794 12.375,12ZM12.375,12L12,12M16.125,12C16.125,12.206 15.956,12.375 15.75,12.375C15.544,12.375 15.375,12.206 15.375,12C15.375,11.794 15.544,11.625 15.75,11.625C15.956,11.625 16.125,11.794 16.125,12ZM16.125,12L15.75,12M21,12C21,16.556 16.97,20.25 12,20.25C11.137,20.251 10.278,20.138 9.445,19.913C8.271,20.739 6.838,21.114 5.41,20.97C5.251,20.955 5.093,20.933 4.936,20.905C5.429,20.324 5.765,19.627 5.914,18.88C6.004,18.423 5.781,17.979 5.447,17.654C3.93,16.178 3,14.189 3,12C3,7.444 7.03,3.75 12,3.75C16.97,3.75 21,7.444 21,12Z" style="fill:none;fill-rule:nonzero;stroke-width:1.5px;"/>
            </g>
        </g>
        <g transform="matrix(1,0,0,1,-21.7509,-0.237113)" filter="url(#shadow)">
            <g transform="matrix(4.50058,0,0,4.50058,95.9931,19.1286)">
                <path d="M15.75,6C15.75,8.057 14.057,9.75 12,9.75C9.943,9.75 8.25,8.057 8.25,6C8.25,3.943 9.943,2.25 12,2.25C14.057,2.25 15.75,3.943 15.75,6ZM4.501,20.118C4.567,16.05 7.932,12.74 12,12.74C16.068,12.74 19.433,16.05 19.499,20.118C17.146,21.197 14.588,21.754 12,21.75C9.324,21.75 6.784,21.166 4.501,20.118Z" style="fill:none;fill-rule:nonzero;stroke-width:1.5px;"/>
            </g>
            <g transform="matrix(5.08757,0,0,5.08757,90.7001,133.744)">
                <path d="M8.625,12C8.625,12.206 8.456,12.375 8.25,12.375C8.044,12.375 7.875,12.206 7.875,12C7.875,11.794 8.044,11.625 8.25,11.625C8.456,11.625 8.625,11.794 8.625,12ZM8.625,12L8.25,12M12.375,12C12.375,12.206 12.206,12.375 12,12.375C11.794,12.375 11.625,12.206 11.625,12C11.625,11.794 11.794,11.625 12,11.625C12.206,11.625 12.375,11.794 12.375,12ZM12.375,12L12,12M16.125,12C16.125,12.206 15.956,12.375 15.75,12.375C15.544,12.375 15.375,12.206 15.375,12C15.375,11.794 15.544,11.625 15.75,11.625C15.956,11.625 16.125,11.794 16.125,12ZM16.125,12L15.75,12M21,12C21,16.556 16.97,20.25 12,20.25C11.137,20.251 10.278,20.138 9.445,19.913C8.271,20.739 6.838,21.114 5.41,20.97C5.251,20.955 5.093,20.933 4.936,20.905C5.429,20.324 5.765,19.627 5.914,18.88C6.004,18.423 5.781,17.979 5.447,17.654C3.93,16.178 3,14.189 3,12C3,7.444 7.03,3.75 12,3.75C16.97,3.75 21,7.444 21,12Z" style="fill:none;fill-rule:nonzero;stroke-width:1.5px;"/>
            </g>
        </g>
    </g>
    <defs>
          <filter id='shadow' color-interpolation-filters="sRGB">
            <feDropShadow dx="2" dy="2" stdDeviation="3" flood-opacity="0.5"/>
          </filter>
    </defs>
</svg>
