<?xml version="1.0" encoding="UTF-8" standalone="no"?>
<!DOCTYPE svg PUBLIC "-//W3C//DTD SVG 1.1//EN" "http://www.w3.org/Graphics/SVG/1.1/DTD/svg11.dtd">
<svg width="100%" height="100%" viewBox="-143 0 862 575" version="1.1" xmlns="http://www.w3.org/2000/svg" xmlns:xlink="http://www.w3.org/1999/xlink" xml:space="preserve" xmlns:serif="http://www.serif.com/" style="fill-rule:evenodd;clip-rule:evenodd;stroke-linecap:round;stroke-miterlimit:1.5;">
    <g>
        <g id="lines" class="dark:hidden block" style="stroke:rgb(109,51,232);" transform="matrix(1,0,0,1,-142.286,-104.443)">
            <g transform="matrix(0.853001,0.0863586,0.0863586,0.949266,214.17,26.9966)">
                <path d="M106.753,325L483.943,103.41" style="fill:none;stroke-opacity:0.75;stroke-width:1.52px;stroke-dasharray:15.17,15.17,0,0,0,0;stroke-dashoffset:6.07;"/>
            </g>
            <g transform="matrix(0.881434,-0.0694677,-0.0694677,0.959299,249.282,120.563)">
                <path d="M106.753,325L496.58,553.4" style="fill:none;stroke-opacity:0.75;stroke-width:1.76px;stroke-dasharray:17.61,17.61,0,0,0,0;stroke-dashoffset:7.04;"/>
            </g>
        </g>
        <g id="lines-dark" class="dark:block hidden" style="stroke:rgb(255,255,255);" transform="matrix(1,0,0,1,-142.286,-104.443)">
            <g transform="matrix(0.853001,0.0863586,0.0863586,0.949266,214.17,26.9966)">
                <path d="M106.753,325L483.943,103.41" style="fill:none;stroke-opacity:0.75;stroke-width:1.52px;stroke-dasharray:15.17,15.17,0,0,0,0;stroke-dashoffset:6.07;"/>
            </g>
            <g transform="matrix(0.881434,-0.0694677,-0.0694677,0.959299,249.282,120.563)">
                <path d="M106.753,325L496.58,553.4" style="fill:none;stroke-opacity:0.75;stroke-width:1.76px;stroke-dasharray:17.61,17.61,0,0,0,0;stroke-dashoffset:7.04;"/>
            </g>
        </g>
        <g class="dark:hidden block" filter="url(#shadow)">
            <g id="Logo" transform="matrix(0.350985,0,0,0.350985,-7.11847,191.235)">
                <g id="Sol">
                    <g transform="matrix(1,0,0,1,-64,-77.1015)">
                        <path d="M339.334,181.528C402.494,202.939 448,262.748 448,333.102C448,421.408 376.306,493.102 288,493.102C199.694,493.102 128,421.408 128,333.102C128,313.886 131.395,295.457 137.618,278.378L137.592,278.368L192.316,128.017L339.334,181.528Z" style="fill:url(#_Linear1);"/>
                        <clipPath id="_clip2">
                            <path d="M339.334,181.528C402.494,202.939 448,262.748 448,333.102C448,421.408 376.306,493.102 288,493.102C199.694,493.102 128,421.408 128,333.102C128,313.886 131.395,295.457 137.618,278.378L137.592,278.368L192.316,128.017L339.334,181.528Z"/>
                        </clipPath>
                        <g clip-path="url(#_clip2)">
                            <g transform="matrix(0.838433,0,0,1.09308,144.034,38.9693)">
                                <path d="M329.429,309.399L374.858,380.076L329.429,450.753L284,380.076L329.429,309.399Z" style="fill-opacity:0.11;"/>
                            </g>
                        </g>
                    </g>
                    <g transform="matrix(1.21212,0,0,1.21212,-49.9394,-44.1318)">
                        <circle cx="226" cy="250" r="66" style="fill:white;"/>
                    </g>
                    <g transform="matrix(2.77778,0,0,2.77778,-581.556,-657.768)">
                        <circle cx="290" cy="330" r="18" style="fill:rgb(128,68,253);"/>
                    </g>
                    <g transform="matrix(0.800694,0,0,0.7923,-5.70686,-7.10906)">
                        <ellipse cx="326.85" cy="295.352" rx="19.983" ry="20.194" style="fill:white;"/>
                    </g>
                </g>
                <g id="Sag" transform="matrix(1,0,0,1,-64,7.10543e-14)">
                    <g transform="matrix(1,0,0,1,0,-77.1015)">
                        <path d="M693.336,275.591L639.618,128L489.267,182.723L489.267,182.723C427.876,205.104 384,264.019 384,333.102C384,421.408 455.694,493.102 544,493.102C632.306,493.102 704,421.408 704,333.102C704,312.835 700.224,293.444 693.336,275.591Z" style="fill:rgb(128,68,253);"/>
                        <clipPath id="_clip3">
                            <path d="M693.336,275.591L639.618,128L489.267,182.723L489.267,182.723C427.876,205.104 384,264.019 384,333.102C384,421.408 455.694,493.102 544,493.102C632.306,493.102 704,421.408 704,333.102C704,312.835 700.224,293.444 693.336,275.591Z"/>
                        </clipPath>
                        <g clip-path="url(#_clip3)">
                            <g transform="matrix(0.727883,0,0,0.91085,175.43,109.714)">
                                <path d="M329.429,309.399L374.858,380.076L329.429,450.753L284,380.076L329.429,309.399Z" style="fill-opacity:0.2;"/>
                            </g>
                        </g>
                    </g>
                    <g transform="matrix(1.21212,0,0,1.21212,270.061,-44.1318)">
                        <circle cx="226" cy="250" r="66" style="fill:white;"/>
                    </g>
                    <g transform="matrix(2.77778,0,0,2.77778,-261.556,-657.768)">
                        <circle cx="290" cy="330" r="18" style="fill:rgb(128,68,253);"/>
                    </g>
                    <g transform="matrix(0.800694,0,0,0.7923,314.293,-7.10906)">
                        <ellipse cx="326.85" cy="295.352" rx="19.983" ry="20.194" style="fill:white;"/>
                    </g>
                </g>
                <g transform="matrix(0.704758,0,0,0.90553,119.816,39.8296)">
                    <g id="Burun">
                        <path d="M329.429,309.399L374.858,380.076L329.429,450.753L284,380.076L329.429,309.399Z" style="fill:rgb(128,68,253);"/>
                    </g>
                </g>
            </g>
        </g>
        <g class="dark:block hidden" filter="url(#shadow)">
            <g id="LogoWhite" transform="matrix(0.350985,0,0,0.350985,-7.11847,191.235)">
                <g transform="matrix(1,0,0,1,-64,-730.102)">
                    <g id="Sol1" serif:id="Sol">
                        <path d="M339.334,834.528C402.494,855.939 448,915.748 448,986.102C448,1074.41 376.306,1146.1 288,1146.1C199.694,1146.1 128,1074.41 128,986.102C128,966.886 131.395,948.457 137.618,931.378L137.592,931.368L192.316,781.017L339.334,834.528ZM288,909C243.847,909 208,944.847 208,989C208,1033.15 243.847,1069 288,1069C332.153,1069 368,1033.15 368,989C368,944.847 332.153,909 288,909ZM332.743,966.672C336.107,973.394 338,980.978 338,989C338,1016.6 315.596,1039 288,1039C260.404,1039 238,1016.6 238,989C238,961.404 260.404,939 288,939C296.022,939 303.606,940.893 310.328,944.257C306.484,947.181 304,951.803 304,957C304,965.831 311.169,973 320,973C325.197,973 329.819,970.516 332.743,966.672Z" style="fill:url(#_Linear4);"/>
                        <clipPath id="_clip5">
                            <path d="M339.334,834.528C402.494,855.939 448,915.748 448,986.102C448,1074.41 376.306,1146.1 288,1146.1C199.694,1146.1 128,1074.41 128,986.102C128,966.886 131.395,948.457 137.618,931.378L137.592,931.368L192.316,781.017L339.334,834.528ZM288,909C243.847,909 208,944.847 208,989C208,1033.15 243.847,1069 288,1069C332.153,1069 368,1033.15 368,989C368,944.847 332.153,909 288,909ZM332.743,966.672C336.107,973.394 338,980.978 338,989C338,1016.6 315.596,1039 288,1039C260.404,1039 238,1016.6 238,989C238,961.404 260.404,939 288,939C296.022,939 303.606,940.893 310.328,944.257C306.484,947.181 304,951.803 304,957C304,965.831 311.169,973 320,973C325.197,973 329.819,970.516 332.743,966.672Z"/>
                        </clipPath>
                        <g clip-path="url(#_clip5)">
                            <g transform="matrix(0.838433,0,0,1.09308,144.034,691.969)">
                                <path d="M329.429,309.399L374.858,380.076L329.429,450.753L284,380.076L329.429,309.399Z" style="fill-opacity:0.2;"/>
                            </g>
                        </g>
                    </g>
                </g>
                <g transform="matrix(1,0,0,1,-64,-730.102)">
                    <g id="Sag1" serif:id="Sag">
                        <path d="M693.336,928.591C700.224,946.444 704,965.835 704,986.102C704,1074.41 632.306,1146.1 544,1146.1C455.694,1146.1 384,1074.41 384,986.102C384,917.019 427.876,858.104 489.267,835.723L639.618,781L693.336,928.591ZM544,909C499.847,909 464,944.847 464,989C464,1033.15 499.847,1069 544,1069C588.153,1069 624,1033.15 624,989C624,944.847 588.153,909 544,909ZM588.743,966.672C592.107,973.394 594,980.978 594,989C594,1016.6 571.596,1039 544,1039C516.404,1039 494,1016.6 494,989C494,961.404 516.404,939 544,939C552.022,939 559.606,940.893 566.328,944.257C562.484,947.181 560,951.803 560,957C560,965.831 567.169,973 576,973C581.197,973 585.819,970.516 588.743,966.672Z" style="fill:white;"/>
                        <clipPath id="_clip6">
                            <path d="M693.336,928.591C700.224,946.444 704,965.835 704,986.102C704,1074.41 632.306,1146.1 544,1146.1C455.694,1146.1 384,1074.41 384,986.102C384,917.019 427.876,858.104 489.267,835.723L639.618,781L693.336,928.591ZM544,909C499.847,909 464,944.847 464,989C464,1033.15 499.847,1069 544,1069C588.153,1069 624,1033.15 624,989C624,944.847 588.153,909 544,909ZM588.743,966.672C592.107,973.394 594,980.978 594,989C594,1016.6 571.596,1039 544,1039C516.404,1039 494,1016.6 494,989C494,961.404 516.404,939 544,939C552.022,939 559.606,940.893 566.328,944.257C562.484,947.181 560,951.803 560,957C560,965.831 567.169,973 576,973C581.197,973 585.819,970.516 588.743,966.672Z"/>
                        </clipPath>
                        <g clip-path="url(#_clip6)">
                            <g transform="matrix(0.727883,0,0,0.91085,175.43,762.714)">
                                <path d="M329.429,309.399L374.858,380.076L329.429,450.753L284,380.076L329.429,309.399Z" style="fill-opacity:0.2;"/>
                            </g>
                        </g>
                    </g>
                </g>
                <g transform="matrix(0.704758,0,0,0.90553,119.816,39.8296)">
                    <g id="Burun1" serif:id="Burun">
                        <path d="M329.429,309.399L374.858,380.076L329.429,450.753L284,380.076L329.429,309.399Z" style="fill:white;"/>
                    </g>
                </g>
            </g>
        </g>
        <g id="slack" transform="matrix(1.55594,0,0,1.55594,506.255,512.5)" filter="url(#shadow)">
            <g transform="matrix(1,0,0,1,-475,-395)">
                <g id="slack1" serif:id="slack">
                    <g>
                        <g transform="matrix(1,0,0,1,475,395)">
                            <circle cx="0" cy="0" r="34.32" style="fill:rgb(88,30,90);"/>
                        </g>
                        <g transform="matrix(0.35828,0,0,0.35828,452.231,372.285)">
                            <path d="M27.2,80C27.2,87.3 21.3,93.2 14,93.2C6.7,93.2 0.8,87.3 0.8,80C0.8,72.7 6.7,66.8 14,66.8L27.2,66.8L27.2,80ZM33.8,80C33.8,72.7 39.7,66.8 47,66.8C54.3,66.8 60.2,72.7 60.2,80L60.2,113C60.2,120.3 54.3,126.2 47,126.2C39.7,126.2 33.8,120.3 33.8,113L33.8,80Z" style="fill:rgb(224,30,90);fill-rule:nonzero;"/>
                            <path d="M47,27C39.7,27 33.8,21.1 33.8,13.8C33.8,6.5 39.7,0.6 47,0.6C54.3,0.6 60.2,6.5 60.2,13.8L60.2,27L47,27ZM47,33.7C54.3,33.7 60.2,39.6 60.2,46.9C60.2,54.2 54.3,60.1 47,60.1L13.9,60.1C6.6,60.1 0.7,54.2 0.7,46.9C0.7,39.6 6.6,33.7 13.9,33.7L47,33.7Z" style="fill:rgb(54,197,240);fill-rule:nonzero;"/>
                            <path d="M99.9,46.9C99.9,39.6 105.8,33.7 113.1,33.7C120.4,33.7 126.3,39.6 126.3,46.9C126.3,54.2 120.4,60.1 113.1,60.1L99.9,60.1L99.9,46.9ZM93.3,46.9C93.3,54.2 87.4,60.1 80.1,60.1C72.8,60.1 66.9,54.2 66.9,46.9L66.9,13.8C66.9,6.5 72.8,0.6 80.1,0.6C87.4,0.6 93.3,6.5 93.3,13.8L93.3,46.9Z" style="fill:rgb(46,182,125);fill-rule:nonzero;"/>
                            <path d="M80.1,99.8C87.4,99.8 93.3,105.7 93.3,113C93.3,120.3 87.4,126.2 80.1,126.2C72.8,126.2 66.9,120.3 66.9,113L66.9,99.8L80.1,99.8ZM80.1,93.2C72.8,93.2 66.9,87.3 66.9,80C66.9,72.7 72.8,66.8 80.1,66.8L113.2,66.8C120.5,66.8 126.4,72.7 126.4,80C126.4,87.3 120.5,93.2 113.2,93.2L80.1,93.2Z" style="fill:rgb(236,178,46);fill-rule:nonzero;"/>
                        </g>
                    </g>
                </g>
            </g>
            <g transform="matrix(1,0,0,1,-475,-395)">
                <g id="slack2" serif:id="slack">
                    <g>
                        <g transform="matrix(1,0,0,1,475,395)">
                            <circle cx="0" cy="0" r="34.32" style="fill:rgb(88,30,90);"/>
                        </g>
                        <g transform="matrix(0.35828,0,0,0.35828,452.231,372.285)">
                            <path d="M27.2,80C27.2,87.3 21.3,93.2 14,93.2C6.7,93.2 0.8,87.3 0.8,80C0.8,72.7 6.7,66.8 14,66.8L27.2,66.8L27.2,80ZM33.8,80C33.8,72.7 39.7,66.8 47,66.8C54.3,66.8 60.2,72.7 60.2,80L60.2,113C60.2,120.3 54.3,126.2 47,126.2C39.7,126.2 33.8,120.3 33.8,113L33.8,80Z" style="fill:rgb(224,30,90);fill-rule:nonzero;"/>
                            <path d="M47,27C39.7,27 33.8,21.1 33.8,13.8C33.8,6.5 39.7,0.6 47,0.6C54.3,0.6 60.2,6.5 60.2,13.8L60.2,27L47,27ZM47,33.7C54.3,33.7 60.2,39.6 60.2,46.9C60.2,54.2 54.3,60.1 47,60.1L13.9,60.1C6.6,60.1 0.7,54.2 0.7,46.9C0.7,39.6 6.6,33.7 13.9,33.7L47,33.7Z" style="fill:rgb(54,197,240);fill-rule:nonzero;"/>
                            <path d="M99.9,46.9C99.9,39.6 105.8,33.7 113.1,33.7C120.4,33.7 126.3,39.6 126.3,46.9C126.3,54.2 120.4,60.1 113.1,60.1L99.9,60.1L99.9,46.9ZM93.3,46.9C93.3,54.2 87.4,60.1 80.1,60.1C72.8,60.1 66.9,54.2 66.9,46.9L66.9,13.8C66.9,6.5 72.8,0.6 80.1,0.6C87.4,0.6 93.3,6.5 93.3,13.8L93.3,46.9Z" style="fill:rgb(46,182,125);fill-rule:nonzero;"/>
                            <path d="M80.1,99.8C87.4,99.8 93.3,105.7 93.3,113C93.3,120.3 87.4,126.2 80.1,126.2C72.8,126.2 66.9,120.3 66.9,113L66.9,99.8L80.1,99.8ZM80.1,93.2C72.8,93.2 66.9,87.3 66.9,80C66.9,72.7 72.8,66.8 80.1,66.8L113.2,66.8C120.5,66.8 126.4,72.7 126.4,80C126.4,87.3 120.5,93.2 113.2,93.2L80.1,93.2Z" style="fill:rgb(236,178,46);fill-rule:nonzero;"/>
                        </g>
                    </g>
                </g>
            </g>
        </g>
        <g id="discord" transform="matrix(1,0,0,1,493.618,62.51)"  filter="url(#shadow)">
            <g transform="matrix(1,0,0,1,-155,-526)">
                <g id="discord1" serif:id="discord">
                    <g>
                        <g transform="matrix(1,0,0,1,155,526)">
                            <circle cx="0" cy="0" r="53.41" style="fill:rgb(88,101,242);"/>
                        </g>
                        <g transform="matrix(0.0862901,0,0,0.0862901,120.484,491.596)">
                            <path d="M677.676,140.927C625.891,116.698 570.519,99.089 512.63,89.063C505.52,101.916 497.214,119.205 491.488,132.958C429.95,123.703 368.978,123.703 308.572,132.958C302.846,119.205 294.352,101.916 287.179,89.063C229.227,99.089 173.792,116.762 122.006,141.055C17.555,298.895 -10.76,452.815 3.397,604.549C72.675,656.284 139.814,687.712 205.819,708.277C222.116,685.847 236.651,662.004 249.173,636.876C225.325,627.814 202.484,616.632 180.902,603.65C186.628,599.408 192.229,594.973 197.639,590.41C329.273,651.979 472.297,651.979 602.358,590.41C607.832,594.973 613.432,599.408 619.095,603.65C597.449,616.695 574.546,627.878 550.699,636.941C563.22,662.004 577.692,685.912 594.052,708.34C660.121,687.775 727.322,656.349 796.6,604.549C813.212,428.651 768.222,276.145 677.676,140.927ZM267.106,511.234C227.591,511.234 195.185,474.344 195.185,429.422C195.185,384.499 226.899,347.545 267.106,347.545C307.314,347.545 339.719,384.434 339.027,429.422C339.089,474.344 307.314,511.234 267.106,511.234ZM532.891,511.234C493.376,511.234 460.971,474.344 460.971,429.422C460.971,384.499 492.683,347.545 532.891,347.545C573.098,347.545 605.504,384.434 604.812,429.422C604.812,474.344 573.098,511.234 532.891,511.234Z" style="fill:white;fill-rule:nonzero;"/>
                        </g>
                    </g>
                </g>
            </g>
            <g transform="matrix(1,0,0,1,-155,-526)">
                <g id="discord2" serif:id="discord">
                    <g>
                        <g transform="matrix(1,0,0,1,155,526)">
                            <circle cx="0" cy="0" r="53.41" style="fill:rgb(88,101,242);"/>
                        </g>
                        <g transform="matrix(0.0862901,0,0,0.0862901,120.484,491.596)">
                            <path d="M677.676,140.927C625.891,116.698 570.519,99.089 512.63,89.063C505.52,101.916 497.214,119.205 491.488,132.958C429.95,123.703 368.978,123.703 308.572,132.958C302.846,119.205 294.352,101.916 287.179,89.063C229.227,99.089 173.792,116.762 122.006,141.055C17.555,298.895 -10.76,452.815 3.397,604.549C72.675,656.284 139.814,687.712 205.819,708.277C222.116,685.847 236.651,662.004 249.173,636.876C225.325,627.814 202.484,616.632 180.902,603.65C186.628,599.408 192.229,594.973 197.639,590.41C329.273,651.979 472.297,651.979 602.358,590.41C607.832,594.973 613.432,599.408 619.095,603.65C597.449,616.695 574.546,627.878 550.699,636.941C563.22,662.004 577.692,685.912 594.052,708.34C660.121,687.775 727.322,656.349 796.6,604.549C813.212,428.651 768.222,276.145 677.676,140.927ZM267.106,511.234C227.591,511.234 195.185,474.344 195.185,429.422C195.185,384.499 226.899,347.545 267.106,347.545C307.314,347.545 339.719,384.434 339.027,429.422C339.089,474.344 307.314,511.234 267.106,511.234ZM532.891,511.234C493.376,511.234 460.971,474.344 460.971,429.422C460.971,384.499 492.683,347.545 532.891,347.545C573.098,347.545 605.504,384.434 604.812,429.422C604.812,474.344 573.098,511.234 532.891,511.234Z" style="fill:white;fill-rule:nonzero;"/>
                        </g>
                    </g>
                </g>
            </g>
        </g>
    </g>
    <defs>
          <filter id='shadow' color-interpolation-filters="sRGB">
            <feDropShadow dx="2" dy="2" stdDeviation="3" flood-opacity="0.5"/>
          </filter>
        <linearGradient id="_Linear1" x1="0" y1="0" x2="1" y2="0" gradientUnits="userSpaceOnUse" gradientTransform="matrix(317.386,35.2642,0.0354504,-0.319062,217.514,352.862)"><stop offset="0" style="stop-color:rgb(128,68,253);stop-opacity:1"/><stop offset="0.18" style="stop-color:rgb(128,68,253);stop-opacity:1"/><stop offset="1" style="stop-color:rgb(87,38,192);stop-opacity:1"/></linearGradient>
        <linearGradient id="_Linear4" x1="0" y1="0" x2="1" y2="0" gradientUnits="userSpaceOnUse" gradientTransform="matrix(315.734,69.2995,-69.2995,315.734,228.266,996.802)"><stop offset="0" style="stop-color:white;stop-opacity:1"/><stop offset="0.18" style="stop-color:white;stop-opacity:1"/><stop offset="1" style="stop-color:white;stop-opacity:0.41"/></linearGradient>
        <linearGradient id="_Linear7" x1="0" y1="0" x2="1" y2="0" gradientUnits="userSpaceOnUse" gradientTransform="matrix(-14.71,15.17,-15.17,-14.71,81.0326,100.473)"><stop offset="0" style="stop-color:white;stop-opacity:0.4"/><stop offset="0.15" style="stop-color:white;stop-opacity:0.4"/><stop offset="0.29" style="stop-color:white;stop-opacity:0.47"/><stop offset="0.56" style="stop-color:white;stop-opacity:0.66"/><stop offset="0.95" style="stop-color:white;stop-opacity:0.96"/><stop offset="1" style="stop-color:white;stop-opacity:1"/></linearGradient>
        <linearGradient id="_Linear8" x1="0" y1="0" x2="1" y2="0" gradientUnits="userSpaceOnUse" gradientTransform="matrix(-17.01,16.55,-16.55,-17.01,64.8974,117.797)"><stop offset="0" style="stop-color:white;stop-opacity:0.4"/><stop offset="0.15" style="stop-color:white;stop-opacity:0.4"/><stop offset="0.29" style="stop-color:white;stop-opacity:0.47"/><stop offset="0.56" style="stop-color:white;stop-opacity:0.66"/><stop offset="0.95" style="stop-color:white;stop-opacity:0.96"/><stop offset="1" style="stop-color:white;stop-opacity:1"/></linearGradient>
        <linearGradient id="_Linear9" x1="0" y1="0" x2="1" y2="0" gradientUnits="userSpaceOnUse" gradientTransform="matrix(-14.71,15.17,-15.17,-14.71,81.0326,100.473)"><stop offset="0" style="stop-color:white;stop-opacity:0.4"/><stop offset="0.15" style="stop-color:white;stop-opacity:0.4"/><stop offset="0.29" style="stop-color:white;stop-opacity:0.47"/><stop offset="0.56" style="stop-color:white;stop-opacity:0.66"/><stop offset="0.95" style="stop-color:white;stop-opacity:0.96"/><stop offset="1" style="stop-color:white;stop-opacity:1"/></linearGradient>
        <linearGradient id="_Linear10" x1="0" y1="0" x2="1" y2="0" gradientUnits="userSpaceOnUse" gradientTransform="matrix(-17.01,16.55,-16.55,-17.01,64.8974,117.797)"><stop offset="0" style="stop-color:white;stop-opacity:0.4"/><stop offset="0.15" style="stop-color:white;stop-opacity:0.4"/><stop offset="0.29" style="stop-color:white;stop-opacity:0.47"/><stop offset="0.56" style="stop-color:white;stop-opacity:0.66"/><stop offset="0.95" style="stop-color:white;stop-opacity:0.96"/><stop offset="1" style="stop-color:white;stop-opacity:1"/></linearGradient>
        <linearGradient id="_Linear11" x1="0" y1="0" x2="1" y2="0" gradientUnits="userSpaceOnUse" gradientTransform="matrix(27.1742,0,0,27.1742,5.61511,31.179)"><stop offset="0" style="stop-color:rgb(137,48,253);stop-opacity:1"/><stop offset="1" style="stop-color:rgb(73,204,249);stop-opacity:1"/></linearGradient>
        <linearGradient id="_Linear12" x1="0" y1="0" x2="1" y2="0" gradientUnits="userSpaceOnUse" gradientTransform="matrix(26.0369,0,0,26.0369,5.94116,13.0864)"><stop offset="0" style="stop-color:rgb(255,2,240);stop-opacity:1"/><stop offset="1" style="stop-color:rgb(255,200,0);stop-opacity:1"/></linearGradient>
        <linearGradient id="_Linear13" x1="0" y1="0" x2="1" y2="0" gradientUnits="userSpaceOnUse" gradientTransform="matrix(27.1742,0,0,27.1742,5.61511,31.179)"><stop offset="0" style="stop-color:rgb(137,48,253);stop-opacity:1"/><stop offset="1" style="stop-color:rgb(73,204,249);stop-opacity:1"/></linearGradient>
        <linearGradient id="_Linear14" x1="0" y1="0" x2="1" y2="0" gradientUnits="userSpaceOnUse" gradientTransform="matrix(26.0369,0,0,26.0369,5.94116,13.0864)"><stop offset="0" style="stop-color:rgb(255,2,240);stop-opacity:1"/><stop offset="1" style="stop-color:rgb(255,200,0);stop-opacity:1"/></linearGradient>
    </defs>
</svg>
