<?xml version="1.0" encoding="UTF-8" standalone="no"?>
<!DOCTYPE svg PUBLIC "-//W3C//DTD SVG 1.1//EN" "http://www.w3.org/Graphics/SVG/1.1/DTD/svg11.dtd">
<svg width="100%" height="100%" viewBox="0 0 1100 650" version="1.1" xmlns="http://www.w3.org/2000/svg" xmlns:xlink="http://www.w3.org/1999/xlink" xml:space="preserve" xmlns:serif="http://www.serif.com/" style="fill-rule:evenodd;clip-rule:evenodd;stroke-linecap:round;stroke-miterlimit:1.5;">
    <g>
        <g id="lines" class="dark:hidden block" style="stroke:rgb(109,51,232);" transform="matrix(1,0,0,1,-142.286,-104.443)">
            <path d="M559.751,428L935.533,427.99L1088.6,217.316L1183.21,347.526L935.533,427.99L1183.21,514.2L1088.6,638.684L935.533,427.99L935.533,688.42L779.792,635.01L935.533,427.99L935.533,167.58L782.462,217.316L935.533,427.99" style="fill:none;stroke-opacity:0.75;stroke-width:1.5px;stroke-dasharray:15,15,0,0,0,0;stroke-dashoffset:6;"/>
            <path d="M935.533,167.58L1088.6,217.316" style="fill:none;stroke-opacity:0.75;stroke-width:1.5px;stroke-dasharray:15,15,0,0,0,0;stroke-dashoffset:6;"/>
            <path d="M1183.21,514.2L1183.21,347.526" style="fill:none;stroke-opacity:0.75;stroke-width:1.5px;stroke-dasharray:15,15,0,0,0,0;stroke-dashoffset:6;"/>
            <path d="M935.533,688.42L1088.6,638.684" style="fill:none;stroke-opacity:0.75;stroke-width:1.5px;stroke-dasharray:15,15,0,0,0,0;stroke-dashoffset:6;"/>
            <g id="center-circle" serif:id="center circle" transform="matrix(0.292224,0,0,0.292224,665.323,305.019)">
                <circle cx="924.394" cy="420.844" r="34.22" style="fill:rgb(109,51,232);"/>
            </g>
            <g transform="matrix(1.11158,1.43767e-16,1.46976e-16,0.944026,-45.6846,23.9571)">
                <path d="M463.561,428L356.076,428" style="fill:none;stroke-opacity:0.75;stroke-width:1.45px;stroke-dasharray:14.55,14.55,0,0,0,0;stroke-dashoffset:5.82;"/>
            </g>
        </g>
        <g id="lines-dark" class="dark:block hidden" style="stroke:rgb(255,255,255);" transform="matrix(1,0,0,1,-142.286,-104.443)">
            <path d="M559.751,428L935.533,427.99L1088.6,217.316L1183.21,347.526L935.533,427.99L1183.21,514.2L1088.6,638.684L935.533,427.99L935.533,688.42L779.792,635.01L935.533,427.99L935.533,167.58L782.462,217.316L935.533,427.99" style="fill:none;stroke-opacity:0.75;stroke-width:1.5px;stroke-dasharray:15,15,0,0,0,0;stroke-dashoffset:6;"/>
            <path d="M935.533,167.58L1088.6,217.316" style="fill:none;stroke-opacity:0.75;stroke-width:1.5px;stroke-dasharray:15,15,0,0,0,0;stroke-dashoffset:6;"/>
            <path d="M1183.21,514.2L1183.21,347.526" style="fill:none;stroke-opacity:0.75;stroke-width:1.5px;stroke-dasharray:15,15,0,0,0,0;stroke-dashoffset:6;"/>
            <path d="M935.533,688.42L1088.6,638.684" style="fill:none;stroke-opacity:0.75;stroke-width:1.5px;stroke-dasharray:15,15,0,0,0,0;stroke-dashoffset:6;"/>
            <g id="center-circle" serif:id="center circle" transform="matrix(0.292224,0,0,0.292224,665.323,305.019)">
                <circle cx="924.394" cy="420.844" r="34.22" style="fill:rgb(198,195,204);"/>
            </g>
            <g transform="matrix(1.11158,1.43767e-16,1.46976e-16,0.944026,-45.6846,23.9571)">
                <path d="M463.561,428L356.076,428" style="fill:none;stroke-opacity:0.75;stroke-width:1.45px;stroke-dasharray:14.55,14.55,0,0,0,0;stroke-dashoffset:5.82;"/>
            </g>
        </g>
        <g class="dark:hidden block" filter="url(#shadow)">
            <g id="Logo" transform="matrix(0.350985,0,0,0.350985,-16.7939,236.004)">
                <g id="Sol">
                    <g transform="matrix(1,0,0,1,-64,-77.1015)">
                        <path d="M339.334,181.528C402.494,202.939 448,262.748 448,333.102C448,421.408 376.306,493.102 288,493.102C199.694,493.102 128,421.408 128,333.102C128,313.886 131.395,295.457 137.618,278.378L137.592,278.368L192.316,128.017L339.334,181.528Z" style="fill:url(#_Linear1);"/>
                        <clipPath id="_clip2">
                            <path d="M339.334,181.528C402.494,202.939 448,262.748 448,333.102C448,421.408 376.306,493.102 288,493.102C199.694,493.102 128,421.408 128,333.102C128,313.886 131.395,295.457 137.618,278.378L137.592,278.368L192.316,128.017L339.334,181.528Z"/>
                        </clipPath>
                        <g clip-path="url(#_clip2)">
                            <g transform="matrix(0.838433,0,0,1.09308,144.034,38.9693)">
                                <path d="M329.429,309.399L374.858,380.076L329.429,450.753L284,380.076L329.429,309.399Z" style="fill-opacity:0.11;"/>
                            </g>
                        </g>
                    </g>
                    <g transform="matrix(1.21212,0,0,1.21212,-49.9394,-44.1318)">
                        <circle cx="226" cy="250" r="66" style="fill:white;"/>
                    </g>
                    <g transform="matrix(2.77778,0,0,2.77778,-581.556,-657.768)">
                        <circle cx="290" cy="330" r="18" style="fill:rgb(128,68,253);"/>
                    </g>
                    <g transform="matrix(0.800694,0,0,0.7923,-5.70686,-7.10906)">
                        <ellipse cx="326.85" cy="295.352" rx="19.983" ry="20.194" style="fill:white;"/>
                    </g>
                </g>
                <g id="Sag" transform="matrix(1,0,0,1,-64,7.10543e-14)">
                    <g transform="matrix(1,0,0,1,0,-77.1015)">
                        <path d="M693.336,275.591L639.618,128L489.267,182.723L489.267,182.723C427.876,205.104 384,264.019 384,333.102C384,421.408 455.694,493.102 544,493.102C632.306,493.102 704,421.408 704,333.102C704,312.835 700.224,293.444 693.336,275.591Z" style="fill:rgb(128,68,253);"/>
                        <clipPath id="_clip3">
                            <path d="M693.336,275.591L639.618,128L489.267,182.723L489.267,182.723C427.876,205.104 384,264.019 384,333.102C384,421.408 455.694,493.102 544,493.102C632.306,493.102 704,421.408 704,333.102C704,312.835 700.224,293.444 693.336,275.591Z"/>
                        </clipPath>
                        <g clip-path="url(#_clip3)">
                            <g transform="matrix(0.727883,0,0,0.91085,175.43,109.714)">
                                <path d="M329.429,309.399L374.858,380.076L329.429,450.753L284,380.076L329.429,309.399Z" style="fill-opacity:0.2;"/>
                            </g>
                        </g>
                    </g>
                    <g transform="matrix(1.21212,0,0,1.21212,270.061,-44.1318)">
                        <circle cx="226" cy="250" r="66" style="fill:white;"/>
                    </g>
                    <g transform="matrix(2.77778,0,0,2.77778,-261.556,-657.768)">
                        <circle cx="290" cy="330" r="18" style="fill:rgb(128,68,253);"/>
                    </g>
                    <g transform="matrix(0.800694,0,0,0.7923,314.293,-7.10906)">
                        <ellipse cx="326.85" cy="295.352" rx="19.983" ry="20.194" style="fill:white;"/>
                    </g>
                </g>
                <g transform="matrix(0.704758,0,0,0.90553,119.816,39.8296)">
                    <g id="Burun">
                        <path d="M329.429,309.399L374.858,380.076L329.429,450.753L284,380.076L329.429,309.399Z" style="fill:rgb(128,68,253);"/>
                    </g>
                </g>
            </g>
        </g>
        <g class="dark:block hidden" filter="url(#shadow)">
            <g id="LogoWhite" transform="matrix(0.350985,0,0,0.350985,-16.7939,236.004)">
                <g transform="matrix(1,0,0,1,-64,-730.102)">
                    <g id="Sol1" serif:id="Sol">
                        <path d="M339.334,834.528C402.494,855.939 448,915.748 448,986.102C448,1074.41 376.306,1146.1 288,1146.1C199.694,1146.1 128,1074.41 128,986.102C128,966.886 131.395,948.457 137.618,931.378L137.592,931.368L192.316,781.017L339.334,834.528ZM288,909C243.847,909 208,944.847 208,989C208,1033.15 243.847,1069 288,1069C332.153,1069 368,1033.15 368,989C368,944.847 332.153,909 288,909ZM332.743,966.672C336.107,973.394 338,980.978 338,989C338,1016.6 315.596,1039 288,1039C260.404,1039 238,1016.6 238,989C238,961.404 260.404,939 288,939C296.022,939 303.606,940.893 310.328,944.257C306.484,947.181 304,951.803 304,957C304,965.831 311.169,973 320,973C325.197,973 329.819,970.516 332.743,966.672Z" style="fill:url(#_Linear4);"/>
                        <clipPath id="_clip5">
                            <path d="M339.334,834.528C402.494,855.939 448,915.748 448,986.102C448,1074.41 376.306,1146.1 288,1146.1C199.694,1146.1 128,1074.41 128,986.102C128,966.886 131.395,948.457 137.618,931.378L137.592,931.368L192.316,781.017L339.334,834.528ZM288,909C243.847,909 208,944.847 208,989C208,1033.15 243.847,1069 288,1069C332.153,1069 368,1033.15 368,989C368,944.847 332.153,909 288,909ZM332.743,966.672C336.107,973.394 338,980.978 338,989C338,1016.6 315.596,1039 288,1039C260.404,1039 238,1016.6 238,989C238,961.404 260.404,939 288,939C296.022,939 303.606,940.893 310.328,944.257C306.484,947.181 304,951.803 304,957C304,965.831 311.169,973 320,973C325.197,973 329.819,970.516 332.743,966.672Z"/>
                        </clipPath>
                        <g clip-path="url(#_clip5)">
                            <g transform="matrix(0.838433,0,0,1.09308,144.034,691.969)">
                                <path d="M329.429,309.399L374.858,380.076L329.429,450.753L284,380.076L329.429,309.399Z" style="fill-opacity:0.2;"/>
                            </g>
                        </g>
                    </g>
                </g>
                <g transform="matrix(1,0,0,1,-64,-730.102)">
                    <g id="Sag1" serif:id="Sag">
                        <path d="M693.336,928.591C700.224,946.444 704,965.835 704,986.102C704,1074.41 632.306,1146.1 544,1146.1C455.694,1146.1 384,1074.41 384,986.102C384,917.019 427.876,858.104 489.267,835.723L639.618,781L693.336,928.591ZM544,909C499.847,909 464,944.847 464,989C464,1033.15 499.847,1069 544,1069C588.153,1069 624,1033.15 624,989C624,944.847 588.153,909 544,909ZM588.743,966.672C592.107,973.394 594,980.978 594,989C594,1016.6 571.596,1039 544,1039C516.404,1039 494,1016.6 494,989C494,961.404 516.404,939 544,939C552.022,939 559.606,940.893 566.328,944.257C562.484,947.181 560,951.803 560,957C560,965.831 567.169,973 576,973C581.197,973 585.819,970.516 588.743,966.672Z" style="fill:white;"/>
                        <clipPath id="_clip6">
                            <path d="M693.336,928.591C700.224,946.444 704,965.835 704,986.102C704,1074.41 632.306,1146.1 544,1146.1C455.694,1146.1 384,1074.41 384,986.102C384,917.019 427.876,858.104 489.267,835.723L639.618,781L693.336,928.591ZM544,909C499.847,909 464,944.847 464,989C464,1033.15 499.847,1069 544,1069C588.153,1069 624,1033.15 624,989C624,944.847 588.153,909 544,909ZM588.743,966.672C592.107,973.394 594,980.978 594,989C594,1016.6 571.596,1039 544,1039C516.404,1039 494,1016.6 494,989C494,961.404 516.404,939 544,939C552.022,939 559.606,940.893 566.328,944.257C562.484,947.181 560,951.803 560,957C560,965.831 567.169,973 576,973C581.197,973 585.819,970.516 588.743,966.672Z"/>
                        </clipPath>
                        <g clip-path="url(#_clip6)">
                            <g transform="matrix(0.727883,0,0,0.91085,175.43,762.714)">
                                <path d="M329.429,309.399L374.858,380.076L329.429,450.753L284,380.076L329.429,309.399Z" style="fill-opacity:0.2;"/>
                            </g>
                        </g>
                    </g>
                </g>
                <g transform="matrix(0.704758,0,0,0.90553,119.816,39.8296)">
                    <g id="Burun1" serif:id="Burun">
                        <path d="M329.429,309.399L374.858,380.076L329.429,450.753L284,380.076L329.429,309.399Z" style="fill:white;"/>
                    </g>
                </g>
            </g>
        </g>
        <g id="Zapier-Logo" serif:id="Zapier Logo" transform="matrix(2.51164,0,0,2.51164,413.514,323.557)" filter="url(#shadow)">
            <g transform="matrix(1,0,0,1,-175,-395)">
                <g id="Zapier-Logo1" serif:id="Zapier Logo">
                    <g>
                        <g transform="matrix(1,0,0,1,175,395)">
                            <circle cx="0" cy="0" r="34.32" style="fill:rgb(255,243,234);"/>
                        </g>
                        <g transform="matrix(0.120001,0,0,0.120001,145,386.87)">
                            <path d="M117.414,92.844L117.344,92.62L161.801,51.921L161.801,32.311L90.477,32.311L90.477,51.921L133.079,51.921L133.149,52.109L89.126,92.844L89.126,112.454L162.517,112.454L162.517,92.844L117.414,92.844Z" style="fill:rgb(32,21,21);fill-rule:nonzero;"/>
                            <path d="M206.296,30.444C198.069,30.444 191.364,31.685 186.181,34.166C181.354,36.329 177.287,39.892 174.509,44.394C171.852,48.925 170.183,53.967 169.613,59.189L191.254,62.231C192.037,57.62 193.603,54.352 195.951,52.426C198.621,50.412 201.911,49.394 205.251,49.549C209.643,49.549 212.829,50.723 214.81,53.072C216.771,55.42 217.769,58.673 217.769,62.959L217.769,65.096L196.961,65.096C186.369,65.096 178.76,67.444 174.134,72.141C169.507,76.838 167.198,83.039 167.206,90.742C167.206,98.632 169.515,104.504 174.134,108.355C178.752,112.207 184.561,114.121 191.56,114.097C200.241,114.097 206.919,111.111 211.592,105.138C214.352,101.467 216.323,97.266 217.381,92.797L218.168,92.797L221.151,112.406L240.761,112.406L240.761,62.748C240.761,52.484 238.056,44.535 232.647,38.899C227.237,33.262 218.454,30.444 206.296,30.444ZM213.154,91.658C210.042,94.253 205.968,95.544 200.895,95.544C196.714,95.544 193.81,94.812 192.182,93.348C191.389,92.656 190.757,91.797 190.333,90.833C189.909,89.869 189.702,88.824 189.728,87.771C189.681,86.778 189.838,85.786 190.187,84.855C190.536,83.925 191.071,83.075 191.759,82.357C192.503,81.659 193.381,81.12 194.34,80.771C195.299,80.421 196.318,80.27 197.337,80.326L217.804,80.326L217.804,81.676C217.846,83.585 217.448,85.478 216.642,87.209C215.835,88.939 214.642,90.461 213.154,91.658Z" style="fill:rgb(32,21,21);fill-rule:nonzero;"/>
                            <rect x="336.161" y="32.311" width="23.168" height="80.154" style="fill:rgb(32,21,21);fill-rule:nonzero;"/>
                            <path d="M496.109,32.311C489.565,32.311 484.406,34.62 480.633,39.239C477.924,42.558 475.865,47.463 474.456,53.952L473.775,53.952L470.746,32.311L450.959,32.311L450.959,112.454L474.128,112.454L474.128,71.355C474.128,66.173 475.341,62.2 477.768,59.436C480.194,56.673 484.672,55.291 491.201,55.291L499.996,55.291L499.996,32.311L496.109,32.311Z" style="fill:rgb(32,21,21);fill-rule:nonzero;"/>
                            <path d="M427.991,34.931C422.582,31.714 415.76,30.109 407.524,30.117C394.561,30.117 384.415,33.808 377.088,41.19C369.76,48.572 366.097,58.749 366.097,71.72C365.91,79.563 367.622,87.334 371.087,94.372C374.259,100.643 379.199,105.848 385.296,109.343C391.433,112.89 398.733,114.667 407.195,114.674C414.515,114.674 420.629,113.547 425.537,111.293C430.152,109.268 434.17,106.094 437.209,102.075C440.103,98.129 442.252,93.688 443.55,88.97L423.588,83.381C422.748,86.449 421.13,89.247 418.891,91.506C416.636,93.761 412.859,94.888 407.559,94.888C401.258,94.888 396.561,93.084 393.468,89.475C391.226,86.868 389.817,83.146 389.194,78.32L443.856,78.32C444.079,76.065 444.196,74.175 444.196,72.648L444.196,67.657C444.328,60.953 442.943,54.306 440.145,48.212C437.526,42.661 433.289,38.031 427.991,34.931ZM406.855,49.222C416.249,49.222 421.576,53.844 422.836,63.09L389.605,63.09C390.133,60.005 391.411,57.097 393.328,54.623C396.373,51.014 400.882,49.214 406.855,49.222Z" style="fill:rgb(32,21,21);fill-rule:nonzero;"/>
                            <path d="M347.993,0.008C346.25,-0.052 344.513,0.24 342.885,0.865C341.257,1.491 339.772,2.437 338.517,3.648C337.28,4.87 336.31,6.336 335.669,7.954C335.028,9.571 334.73,11.303 334.795,13.041C334.732,14.791 335.031,16.535 335.672,18.164C336.314,19.793 337.284,21.272 338.522,22.509C339.761,23.746 341.241,24.715 342.87,25.355C344.5,25.995 346.244,26.292 347.993,26.228C349.731,26.294 351.465,25.997 353.082,25.356C354.699,24.715 356.165,23.744 357.387,22.506C358.599,21.254 359.545,19.771 360.168,18.144C360.792,16.518 361.08,14.782 361.015,13.041C361.095,11.311 360.814,9.583 360.188,7.968C359.563,6.352 358.608,4.885 357.384,3.659C356.159,2.434 354.693,1.477 353.078,0.851C351.463,0.224 349.735,-0.059 348.005,0.019L347.993,0.008Z" style="fill:rgb(32,21,21);fill-rule:nonzero;"/>
                            <path d="M300.14,30.117C292.25,30.117 285.909,32.594 281.118,37.55C277.571,41.221 274.969,46.701 273.309,53.989L272.569,53.989L269.54,32.348L249.753,32.348L249.753,135.494L272.921,135.494L272.921,93.01L273.767,93.01C274.474,95.842 275.465,98.596 276.726,101.229C278.686,105.518 281.9,109.113 285.944,111.539C290.137,113.827 294.86,114.966 299.635,114.839C309.335,114.839 316.721,111.062 321.794,103.507C326.866,95.953 329.403,85.412 329.403,71.885C329.403,58.819 326.949,48.592 322.04,41.202C317.132,33.812 309.832,30.117 300.14,30.117ZM302.489,88.195C299.788,92.109 295.561,94.066 289.807,94.066C287.435,94.176 285.07,93.719 282.91,92.732C280.749,91.746 278.855,90.259 277.384,88.395C274.385,84.629 272.89,79.474 272.898,72.93L272.898,71.403C272.898,64.757 274.393,59.669 277.384,56.138C280.374,52.608 284.515,50.862 289.807,50.901C295.663,50.901 299.917,52.76 302.571,56.478C305.225,60.197 306.552,65.383 306.552,72.037C306.568,78.918 305.221,84.304 302.512,88.195L302.489,88.195Z" style="fill:rgb(32,21,21);fill-rule:nonzero;"/>
                            <rect x="0" y="92.843" width="80.154" height="19.634" style="fill:rgb(255,79,0);fill-rule:nonzero;"/>
                        </g>
                    </g>
                </g>
            </g>
            <g transform="matrix(1,0,0,1,-175,-395)">
                <g id="Zapier-Logo2" serif:id="Zapier Logo">
                    <g>
                        <g transform="matrix(1,0,0,1,175,395)">
                            <circle cx="0" cy="0" r="34.32" style="fill:rgb(255,243,234);"/>
                        </g>
                        <g transform="matrix(0.120001,0,0,0.120001,145,386.87)">
                            <path d="M117.414,92.844L117.344,92.62L161.801,51.921L161.801,32.311L90.477,32.311L90.477,51.921L133.079,51.921L133.149,52.109L89.126,92.844L89.126,112.454L162.517,112.454L162.517,92.844L117.414,92.844Z" style="fill:rgb(32,21,21);fill-rule:nonzero;"/>
                            <path d="M206.296,30.444C198.069,30.444 191.364,31.685 186.181,34.166C181.354,36.329 177.287,39.892 174.509,44.394C171.852,48.925 170.183,53.967 169.613,59.189L191.254,62.231C192.037,57.62 193.603,54.352 195.951,52.426C198.621,50.412 201.911,49.394 205.251,49.549C209.643,49.549 212.829,50.723 214.81,53.072C216.771,55.42 217.769,58.673 217.769,62.959L217.769,65.096L196.961,65.096C186.369,65.096 178.76,67.444 174.134,72.141C169.507,76.838 167.198,83.039 167.206,90.742C167.206,98.632 169.515,104.504 174.134,108.355C178.752,112.207 184.561,114.121 191.56,114.097C200.241,114.097 206.919,111.111 211.592,105.138C214.352,101.467 216.323,97.266 217.381,92.797L218.168,92.797L221.151,112.406L240.761,112.406L240.761,62.748C240.761,52.484 238.056,44.535 232.647,38.899C227.237,33.262 218.454,30.444 206.296,30.444ZM213.154,91.658C210.042,94.253 205.968,95.544 200.895,95.544C196.714,95.544 193.81,94.812 192.182,93.348C191.389,92.656 190.757,91.797 190.333,90.833C189.909,89.869 189.702,88.824 189.728,87.771C189.681,86.778 189.838,85.786 190.187,84.855C190.536,83.925 191.071,83.075 191.759,82.357C192.503,81.659 193.381,81.12 194.34,80.771C195.299,80.421 196.318,80.27 197.337,80.326L217.804,80.326L217.804,81.676C217.846,83.585 217.448,85.478 216.642,87.209C215.835,88.939 214.642,90.461 213.154,91.658Z" style="fill:rgb(32,21,21);fill-rule:nonzero;"/>
                            <rect x="336.161" y="32.311" width="23.168" height="80.154" style="fill:rgb(32,21,21);fill-rule:nonzero;"/>
                            <path d="M496.109,32.311C489.565,32.311 484.406,34.62 480.633,39.239C477.924,42.558 475.865,47.463 474.456,53.952L473.775,53.952L470.746,32.311L450.959,32.311L450.959,112.454L474.128,112.454L474.128,71.355C474.128,66.173 475.341,62.2 477.768,59.436C480.194,56.673 484.672,55.291 491.201,55.291L499.996,55.291L499.996,32.311L496.109,32.311Z" style="fill:rgb(32,21,21);fill-rule:nonzero;"/>
                            <path d="M427.991,34.931C422.582,31.714 415.76,30.109 407.524,30.117C394.561,30.117 384.415,33.808 377.088,41.19C369.76,48.572 366.097,58.749 366.097,71.72C365.91,79.563 367.622,87.334 371.087,94.372C374.259,100.643 379.199,105.848 385.296,109.343C391.433,112.89 398.733,114.667 407.195,114.674C414.515,114.674 420.629,113.547 425.537,111.293C430.152,109.268 434.17,106.094 437.209,102.075C440.103,98.129 442.252,93.688 443.55,88.97L423.588,83.381C422.748,86.449 421.13,89.247 418.891,91.506C416.636,93.761 412.859,94.888 407.559,94.888C401.258,94.888 396.561,93.084 393.468,89.475C391.226,86.868 389.817,83.146 389.194,78.32L443.856,78.32C444.079,76.065 444.196,74.175 444.196,72.648L444.196,67.657C444.328,60.953 442.943,54.306 440.145,48.212C437.526,42.661 433.289,38.031 427.991,34.931ZM406.855,49.222C416.249,49.222 421.576,53.844 422.836,63.09L389.605,63.09C390.133,60.005 391.411,57.097 393.328,54.623C396.373,51.014 400.882,49.214 406.855,49.222Z" style="fill:rgb(32,21,21);fill-rule:nonzero;"/>
                            <path d="M347.993,0.008C346.25,-0.052 344.513,0.24 342.885,0.865C341.257,1.491 339.772,2.437 338.517,3.648C337.28,4.87 336.31,6.336 335.669,7.954C335.028,9.571 334.73,11.303 334.795,13.041C334.732,14.791 335.031,16.535 335.672,18.164C336.314,19.793 337.284,21.272 338.522,22.509C339.761,23.746 341.241,24.715 342.87,25.355C344.5,25.995 346.244,26.292 347.993,26.228C349.731,26.294 351.465,25.997 353.082,25.356C354.699,24.715 356.165,23.744 357.387,22.506C358.599,21.254 359.545,19.771 360.168,18.144C360.792,16.518 361.08,14.782 361.015,13.041C361.095,11.311 360.814,9.583 360.188,7.968C359.563,6.352 358.608,4.885 357.384,3.659C356.159,2.434 354.693,1.477 353.078,0.851C351.463,0.224 349.735,-0.059 348.005,0.019L347.993,0.008Z" style="fill:rgb(32,21,21);fill-rule:nonzero;"/>
                            <path d="M300.14,30.117C292.25,30.117 285.909,32.594 281.118,37.55C277.571,41.221 274.969,46.701 273.309,53.989L272.569,53.989L269.54,32.348L249.753,32.348L249.753,135.494L272.921,135.494L272.921,93.01L273.767,93.01C274.474,95.842 275.465,98.596 276.726,101.229C278.686,105.518 281.9,109.113 285.944,111.539C290.137,113.827 294.86,114.966 299.635,114.839C309.335,114.839 316.721,111.062 321.794,103.507C326.866,95.953 329.403,85.412 329.403,71.885C329.403,58.819 326.949,48.592 322.04,41.202C317.132,33.812 309.832,30.117 300.14,30.117ZM302.489,88.195C299.788,92.109 295.561,94.066 289.807,94.066C287.435,94.176 285.07,93.719 282.91,92.732C280.749,91.746 278.855,90.259 277.384,88.395C274.385,84.629 272.89,79.474 272.898,72.93L272.898,71.403C272.898,64.757 274.393,59.669 277.384,56.138C280.374,52.608 284.515,50.862 289.807,50.901C295.663,50.901 299.917,52.76 302.571,56.478C305.225,60.197 306.552,65.383 306.552,72.037C306.568,78.918 305.221,84.304 302.512,88.195L302.489,88.195Z" style="fill:rgb(32,21,21);fill-rule:nonzero;"/>
                            <rect x="0" y="92.843" width="80.154" height="19.634" style="fill:rgb(255,79,0);fill-rule:nonzero;"/>
                        </g>
                    </g>
                </g>
            </g>
        </g>
        <g id="asana" transform="matrix(1,0,0,1,793.247,63.1372)" filter="url(#shadow)">
            <g transform="matrix(1,0,0,1,-530,-150)">
                <g id="asana1" serif:id="asana">
                    <g>
                        <g transform="matrix(1,0,0,1,530,150)">
                            <circle cx="0" cy="0" r="53.41" style="fill:rgb(240,111,111);"/>
                        </g>
                        <g transform="matrix(0.304215,0,0,0.304215,497.5,116.96)">
                            <path d="M167.197,104.554C141.533,104.554 120.729,125.359 120.729,151.024C120.729,176.688 141.533,197.493 167.197,197.493C192.861,197.493 213.665,176.688 213.665,151.024C213.665,125.359 192.861,104.554 167.197,104.554ZM46.468,104.558C20.805,104.558 0,125.359 0,151.024C0,176.688 20.805,197.493 46.468,197.493C72.133,197.493 92.939,176.688 92.939,151.024C92.939,125.359 72.133,104.558 46.468,104.558ZM153.3,46.467C153.3,72.133 132.496,92.94 106.833,92.94C81.168,92.94 60.364,72.133 60.364,46.467C60.364,20.807 81.168,0 106.833,0C132.496,0 153.3,20.807 153.3,46.467Z" style="fill:white;"/>
                        </g>
                    </g>
                </g>
            </g>
            <g transform="matrix(1,0,0,1,-530,-150)">
                <g id="asana2" serif:id="asana">
                    <g>
                        <g transform="matrix(1,0,0,1,530,150)">
                            <circle cx="0" cy="0" r="53.41" style="fill:rgb(240,111,111);"/>
                        </g>
                        <g transform="matrix(0.304215,0,0,0.304215,497.5,116.96)">
                            <path d="M167.197,104.554C141.533,104.554 120.729,125.359 120.729,151.024C120.729,176.688 141.533,197.493 167.197,197.493C192.861,197.493 213.665,176.688 213.665,151.024C213.665,125.359 192.861,104.554 167.197,104.554ZM46.468,104.558C20.805,104.558 0,125.359 0,151.024C0,176.688 20.805,197.493 46.468,197.493C72.133,197.493 92.939,176.688 92.939,151.024C92.939,125.359 72.133,104.558 46.468,104.558ZM153.3,46.467C153.3,72.133 132.496,92.94 106.833,92.94C81.168,92.94 60.364,72.133 60.364,46.467C60.364,20.807 81.168,0 106.833,0C132.496,0 153.3,20.807 153.3,46.467Z" style="fill:white;"/>
                        </g>
                    </g>
                </g>
            </g>
        </g>
        <g id="jira" transform="matrix(0.642202,0,0,0.642202,871.942,215.243)" filter="url(#shadow)">
            <g transform="matrix(1,0,0,1,-125,-150)">
                <g id="jira1" serif:id="jira">
                    <g>
                        <g transform="matrix(1,0,0,1,125,150)">
                            <circle cx="0" cy="0" r="53.41" style="fill:rgb(8,100,249);"/>
                        </g>
                        <g transform="matrix(0.905292,0,0,0.905292,63.4274,46.7168)">
                            <path d="M95.9,83.2L61.3,83.2C61.3,91.8 68.3,98.8 76.9,98.8L83.3,98.8L83.3,104.9C83.3,113.5 90.3,120.5 98.9,120.5L98.9,86.2C98.9,84.5 97.5,83.2 95.9,83.2Z" style="fill:white;fill-rule:nonzero;"/>
                            <path d="M78.8,100.4L44.2,100.4C44.2,109 51.2,116 59.8,116L66.2,116L66.2,122.2C66.2,130.8 73.2,137.8 81.8,137.8L81.8,103.5C81.8,101.8 80.4,100.4 78.8,100.4Z" style="fill:url(#_Linear7);fill-rule:nonzero;"/>
                            <path d="M61.7,117.6L27.1,117.6C27.1,126.2 34.1,133.2 42.7,133.2L49,133.2L49,139.3C49,147.9 56,154.9 64.6,154.9L64.6,120.5C64.7,119 63.3,117.6 61.7,117.6Z" style="fill:url(#_Linear8);fill-rule:nonzero;"/>
                        </g>
                    </g>
                </g>
            </g>
            <g transform="matrix(1,0,0,1,-125,-150)">
                <g id="jira2" serif:id="jira">
                    <g>
                        <g transform="matrix(1,0,0,1,125,150)">
                            <circle cx="0" cy="0" r="53.41" style="fill:rgb(8,100,249);"/>
                        </g>
                        <g transform="matrix(0.905292,0,0,0.905292,63.4274,46.7168)">
                            <path d="M95.9,83.2L61.3,83.2C61.3,91.8 68.3,98.8 76.9,98.8L83.3,98.8L83.3,104.9C83.3,113.5 90.3,120.5 98.9,120.5L98.9,86.2C98.9,84.5 97.5,83.2 95.9,83.2Z" style="fill:white;fill-rule:nonzero;"/>
                            <path d="M78.8,100.4L44.2,100.4C44.2,109 51.2,116 59.8,116L66.2,116L66.2,122.2C66.2,130.8 73.2,137.8 81.8,137.8L81.8,103.5C81.8,101.8 80.4,100.4 78.8,100.4Z" style="fill:url(#_Linear9);fill-rule:nonzero;"/>
                            <path d="M61.7,117.6L27.1,117.6C27.1,126.2 34.1,133.2 42.7,133.2L49,133.2L49,139.3C49,147.9 56,154.9 64.6,154.9L64.6,120.5C64.7,119 63.3,117.6 61.7,117.6Z" style="fill:url(#_Linear10);fill-rule:nonzero;"/>
                        </g>
                    </g>
                </g>
            </g>
        </g>
        <g id="slack" transform="matrix(1,0,0,1,920.575,364.934)" filter="url(#shadow)">
            <g transform="matrix(1,0,0,1,-475,-395)">
                <g id="slack1" serif:id="slack">
                    <g>
                        <g transform="matrix(1,0,0,1,475,395)">
                            <circle cx="0" cy="0" r="34.32" style="fill:rgb(88,30,90);"/>
                        </g>
                        <g transform="matrix(0.35828,0,0,0.35828,452.231,372.285)">
                            <path d="M27.2,80C27.2,87.3 21.3,93.2 14,93.2C6.7,93.2 0.8,87.3 0.8,80C0.8,72.7 6.7,66.8 14,66.8L27.2,66.8L27.2,80ZM33.8,80C33.8,72.7 39.7,66.8 47,66.8C54.3,66.8 60.2,72.7 60.2,80L60.2,113C60.2,120.3 54.3,126.2 47,126.2C39.7,126.2 33.8,120.3 33.8,113L33.8,80Z" style="fill:rgb(224,30,90);fill-rule:nonzero;"/>
                            <path d="M47,27C39.7,27 33.8,21.1 33.8,13.8C33.8,6.5 39.7,0.6 47,0.6C54.3,0.6 60.2,6.5 60.2,13.8L60.2,27L47,27ZM47,33.7C54.3,33.7 60.2,39.6 60.2,46.9C60.2,54.2 54.3,60.1 47,60.1L13.9,60.1C6.6,60.1 0.7,54.2 0.7,46.9C0.7,39.6 6.6,33.7 13.9,33.7L47,33.7Z" style="fill:rgb(54,197,240);fill-rule:nonzero;"/>
                            <path d="M99.9,46.9C99.9,39.6 105.8,33.7 113.1,33.7C120.4,33.7 126.3,39.6 126.3,46.9C126.3,54.2 120.4,60.1 113.1,60.1L99.9,60.1L99.9,46.9ZM93.3,46.9C93.3,54.2 87.4,60.1 80.1,60.1C72.8,60.1 66.9,54.2 66.9,46.9L66.9,13.8C66.9,6.5 72.8,0.6 80.1,0.6C87.4,0.6 93.3,6.5 93.3,13.8L93.3,46.9Z" style="fill:rgb(46,182,125);fill-rule:nonzero;"/>
                            <path d="M80.1,99.8C87.4,99.8 93.3,105.7 93.3,113C93.3,120.3 87.4,126.2 80.1,126.2C72.8,126.2 66.9,120.3 66.9,113L66.9,99.8L80.1,99.8ZM80.1,93.2C72.8,93.2 66.9,87.3 66.9,80C66.9,72.7 72.8,66.8 80.1,66.8L113.2,66.8C120.5,66.8 126.4,72.7 126.4,80C126.4,87.3 120.5,93.2 113.2,93.2L80.1,93.2Z" style="fill:rgb(236,178,46);fill-rule:nonzero;"/>
                        </g>
                    </g>
                </g>
            </g>
            <g transform="matrix(1,0,0,1,-475,-395)">
                <g id="slack2" serif:id="slack">
                    <g>
                        <g transform="matrix(1,0,0,1,475,395)">
                            <circle cx="0" cy="0" r="34.32" style="fill:rgb(88,30,90);"/>
                        </g>
                        <g transform="matrix(0.35828,0,0,0.35828,452.231,372.285)">
                            <path d="M27.2,80C27.2,87.3 21.3,93.2 14,93.2C6.7,93.2 0.8,87.3 0.8,80C0.8,72.7 6.7,66.8 14,66.8L27.2,66.8L27.2,80ZM33.8,80C33.8,72.7 39.7,66.8 47,66.8C54.3,66.8 60.2,72.7 60.2,80L60.2,113C60.2,120.3 54.3,126.2 47,126.2C39.7,126.2 33.8,120.3 33.8,113L33.8,80Z" style="fill:rgb(224,30,90);fill-rule:nonzero;"/>
                            <path d="M47,27C39.7,27 33.8,21.1 33.8,13.8C33.8,6.5 39.7,0.6 47,0.6C54.3,0.6 60.2,6.5 60.2,13.8L60.2,27L47,27ZM47,33.7C54.3,33.7 60.2,39.6 60.2,46.9C60.2,54.2 54.3,60.1 47,60.1L13.9,60.1C6.6,60.1 0.7,54.2 0.7,46.9C0.7,39.6 6.6,33.7 13.9,33.7L47,33.7Z" style="fill:rgb(54,197,240);fill-rule:nonzero;"/>
                            <path d="M99.9,46.9C99.9,39.6 105.8,33.7 113.1,33.7C120.4,33.7 126.3,39.6 126.3,46.9C126.3,54.2 120.4,60.1 113.1,60.1L99.9,60.1L99.9,46.9ZM93.3,46.9C93.3,54.2 87.4,60.1 80.1,60.1C72.8,60.1 66.9,54.2 66.9,46.9L66.9,13.8C66.9,6.5 72.8,0.6 80.1,0.6C87.4,0.6 93.3,6.5 93.3,13.8L93.3,46.9Z" style="fill:rgb(46,182,125);fill-rule:nonzero;"/>
                            <path d="M80.1,99.8C87.4,99.8 93.3,105.7 93.3,113C93.3,120.3 87.4,126.2 80.1,126.2C72.8,126.2 66.9,120.3 66.9,113L66.9,99.8L80.1,99.8ZM80.1,93.2C72.8,93.2 66.9,87.3 66.9,80C66.9,72.7 72.8,66.8 80.1,66.8L113.2,66.8C120.5,66.8 126.4,72.7 126.4,80C126.4,87.3 120.5,93.2 113.2,93.2L80.1,93.2Z" style="fill:rgb(236,178,46);fill-rule:nonzero;"/>
                        </g>
                    </g>
                </g>
            </g>
        </g>
        <g id="github" transform="matrix(1,0,0,1,637.506,529.562)" filter="url(#shadow)">
            <g transform="matrix(1,0,0,1,-520,-510)">
                <g id="github1" serif:id="github">
                    <g>
                        <g transform="matrix(0.969654,0,0,1,520.01,512)">
                            <circle cx="0" cy="0" r="53.41" style="fill:white;"/>
                        </g>
                        <g transform="matrix(1.09396,0,0,1.1125,466.59,456.6)">
                            <path d="M48.854,0C21.839,0 0,22 0,49.217C0,70.973 13.993,89.389 33.405,95.907C35.832,96.397 36.721,94.848 36.721,93.545C36.721,92.404 36.641,88.493 36.641,84.418C23.051,87.352 20.221,78.551 20.221,78.551C18.037,72.847 14.801,71.381 14.801,71.381C10.353,68.366 15.125,68.366 15.125,68.366C20.059,68.692 22.648,73.418 22.648,73.418C27.015,80.914 34.052,78.796 36.883,77.492C37.287,74.314 38.582,72.114 39.957,70.892C29.118,69.751 17.714,65.514 17.714,46.609C17.714,41.231 19.654,36.831 22.728,33.409C22.243,32.187 20.544,27.134 23.214,20.371C23.214,20.371 27.339,19.067 36.64,25.423C40.622,24.346 44.729,23.798 48.854,23.793C52.979,23.793 57.184,24.364 61.067,25.423C70.369,19.067 74.494,20.371 74.494,20.371C77.164,27.134 75.464,32.187 74.979,33.409C78.134,36.831 79.994,41.231 79.994,46.609C79.994,65.514 68.59,69.669 57.67,70.892C59.45,72.44 60.986,75.373 60.986,80.018C60.986,86.618 60.906,91.915 60.906,93.544C60.906,94.848 61.796,96.397 64.222,95.908C83.634,89.388 97.627,70.973 97.627,49.217C97.707,22 75.788,0 48.854,0Z" style="fill:rgb(36,41,47);"/>
                        </g>
                    </g>
                </g>
            </g>
            <g transform="matrix(1,0,0,1,-520,-510)">
                <g id="github2" serif:id="github">
                    <g>
                        <g transform="matrix(0.969654,0,0,1,520.01,512)">
                            <circle cx="0" cy="0" r="53.41" style="fill:white;"/>
                        </g>
                        <g transform="matrix(1.09396,0,0,1.1125,466.59,456.6)">
                            <path d="M48.854,0C21.839,0 0,22 0,49.217C0,70.973 13.993,89.389 33.405,95.907C35.832,96.397 36.721,94.848 36.721,93.545C36.721,92.404 36.641,88.493 36.641,84.418C23.051,87.352 20.221,78.551 20.221,78.551C18.037,72.847 14.801,71.381 14.801,71.381C10.353,68.366 15.125,68.366 15.125,68.366C20.059,68.692 22.648,73.418 22.648,73.418C27.015,80.914 34.052,78.796 36.883,77.492C37.287,74.314 38.582,72.114 39.957,70.892C29.118,69.751 17.714,65.514 17.714,46.609C17.714,41.231 19.654,36.831 22.728,33.409C22.243,32.187 20.544,27.134 23.214,20.371C23.214,20.371 27.339,19.067 36.64,25.423C40.622,24.346 44.729,23.798 48.854,23.793C52.979,23.793 57.184,24.364 61.067,25.423C70.369,19.067 74.494,20.371 74.494,20.371C77.164,27.134 75.464,32.187 74.979,33.409C78.134,36.831 79.994,41.231 79.994,46.609C79.994,65.514 68.59,69.669 57.67,70.892C59.45,72.44 60.986,75.373 60.986,80.018C60.986,86.618 60.906,91.915 60.906,93.544C60.906,94.848 61.796,96.397 64.222,95.908C83.634,89.388 97.627,70.973 97.627,49.217C97.707,22 75.788,0 48.854,0Z" style="fill:rgb(36,41,47);"/>
                        </g>
                    </g>
                </g>
            </g>
        </g>
        <g id="mailchimp" transform="matrix(1,0,0,1,946.318,534.241)" filter="url(#shadow)">
            <g transform="matrix(1,0,0,1,-155,-526)">
                <g id="mailchimp1" serif:id="mailchimp">
                    <g>
                        <g transform="matrix(1,0,0,1,155,526)">
                            <circle cx="0" cy="0" r="53.41" style="fill:white;"/>
                        </g>
                        <g transform="matrix(0.0938041,0,0,0.0938041,117.478,488.438)">
                            <path d="M183.425,444.05L183.1,444.05C172.8,444.05 163.5,448.425 156.975,455.4L156.95,455.425C149.525,463.325 144.975,473.975 144.975,485.675C144.975,488.125 145.175,490.525 145.55,492.85L145.525,492.6C146.375,494.875 147.7,495.525 148.65,495.65C150.65,495.9 153.65,494.425 155.525,489.4L156.05,487.775C157.3,483.375 158.975,479.55 161.075,476L160.95,476.225C164.85,470.325 171.45,466.475 178.975,466.475C183.375,466.475 187.475,467.8 190.875,470.05L190.8,470C196.525,473.8 200.25,480.225 200.25,487.525C200.25,490.325 199.7,493 198.7,495.425L198.75,495.275C196.125,501.75 194.6,509.275 194.6,517.15L194.6,517.825L194.6,517.8C194.6,518.05 194.575,518.35 194.575,518.65C194.575,530.175 203.3,539.65 214.475,540.85L214.575,540.85C215.05,540.9 215.6,540.925 216.15,540.925C222.25,540.925 227.6,537.725 230.625,532.925L230.675,532.85C230.95,532.35 231.125,531.775 231.125,531.15C231.125,530.3 230.825,529.55 230.325,528.95C228.975,527.3 226.8,527.8 224.7,528.3C223.2,528.725 221.475,528.975 219.7,528.975L219.4,528.975C215.75,528.975 212.5,527.15 210.55,524.375L210.525,524.35C209.425,522.175 208.8,519.6 208.8,516.875C208.8,513.85 209.6,511 210.975,508.525L210.925,508.6C211.275,507.725 211.7,506.8 212.175,505.725C216.375,498.875 218.875,490.575 218.875,481.675C218.875,475.525 217.675,469.625 215.5,464.25L215.6,464.55C210.275,453.7 200.025,446 187.875,444.275L187.675,444.25C186.4,444.075 184.9,443.95 183.375,443.95L183.35,443.95L183.425,444.05ZM185.625,415.1C187.125,415.1 188.675,415.1 190.275,415.2C225.325,419.4 252.5,448.075 254.375,483.425L254.375,483.6C261.15,527.65 250.375,572.425 209.1,579.475C206.025,580 202.5,580.3 198.875,580.3C198.35,580.3 197.85,580.3 197.325,580.275L197.4,580.275C155.075,577.175 120.975,545.575 114.05,504.75L113.975,504.225C113.125,500 112.65,495.125 112.65,490.15C112.65,453.825 138.4,423.5 172.675,416.475L173.15,416.4C176.875,415.625 181.15,415.15 185.55,415.1L185.625,415.1ZM549.125,414.35C548.9,414.325 548.65,414.325 548.375,414.325C544.95,414.325 541.925,416.175 540.3,418.925L540.275,418.975C540.175,419.575 540.125,420.25 540.125,420.95C540.125,428.7 546.4,434.975 554.15,434.975C558.1,434.975 561.65,433.35 564.2,430.725C564.475,429.75 564.65,428.625 564.65,427.475C564.65,422.225 561.275,417.775 556.6,416.15L556.525,416.125C554.375,415.025 551.825,414.35 549.125,414.325L549.125,414.35ZM478.5,401.85L478.3,401.85C476.675,401.85 475.05,401.95 473.475,402.125L473.675,402.1C466.575,402.9 460.225,405.675 455.075,409.875L455.15,409.825C452.725,411.575 451.025,414.175 450.425,417.15L450.4,417.225L450.4,417.25C450.4,418.55 451.45,419.6 452.75,419.6C455.425,419.2 457.825,418.525 460.075,417.55L459.875,417.625C466.35,415.1 473.85,413.65 481.7,413.65C485.025,413.65 488.3,413.925 491.5,414.425L491.15,414.375C496.05,414.925 498.325,415.225 499.425,413.575C499.65,413.2 499.775,412.725 499.775,412.25C499.775,411.575 499.525,410.95 499.125,410.45C494.275,405.15 487.3,401.825 479.575,401.825C479.2,401.825 478.825,401.825 478.45,401.85L478.5,401.85ZM590.35,396.475C585,396.375 580.575,402.275 580.45,409.6C580.325,416.975 584.55,423.025 589.925,423.1C595.3,423.2 599.725,417.325 599.85,409.975C599.975,402.6 595.725,396.575 590.35,396.475ZM462.825,371.175L462.6,371.175C450.75,371.175 439.825,375 430.925,381.475L431.075,381.375C426.075,385.025 421.35,390.125 422.025,393.175C422.275,394.175 423,394.925 424.775,395.15C434.05,392.375 445.875,389.65 457.925,387.6L459.825,387.325C460.425,387.3 461.1,387.3 461.8,387.3C471.575,387.3 480.825,389.625 489,393.75L488.65,393.6C496.125,396.85 500.7,399 502.5,397.125C503.65,395.95 503.3,393.7 501.525,390.75C496.725,383.9 490.175,378.55 482.5,375.325L482.2,375.225C476.475,372.7 469.825,371.225 462.825,371.2L462.8,371.2L462.825,371.175ZM577.175,322.875C576.5,322.875 575.85,322.95 575.225,323.05L575.3,323.05C564.825,324.725 564.45,337.675 568.175,355.55C569.875,364.625 573.375,372.675 578.3,379.65L578.175,379.45C580.5,379.125 583.2,378.95 585.95,378.95C588.7,378.95 591.4,379.125 594.05,379.475L593.75,379.45C595.325,374.65 596.225,369.15 596.225,363.425C596.225,358.65 595.6,354.05 594.425,349.65L594.5,350.025C591,333.3 586.35,322.775 577.2,322.9L577.175,322.875ZM576.475,254.75L578.225,254.775C583.55,255 588.45,256.675 592.575,259.4L592.475,259.325C609.15,270.425 611.525,297.325 612.4,316.975C612.875,328.225 614.25,355.375 614.7,363.15C615.75,381 620.45,383.5 629.925,386.6C635.225,388.375 640.225,389.65 647.525,391.725C664.25,395.15 678.9,402.35 691.125,412.425L690.95,412.275C695.075,416.325 697.925,421.675 698.825,427.65L698.85,427.8C701.45,446.8 684.1,470.3 638.175,491.575C601.725,507.95 559.175,517.5 514.4,517.5C504.025,517.5 493.8,517 483.675,516L484.95,516.1L470.225,514.45C436.55,509.925 417.325,553.4 437.55,583.2C457,602.95 484.025,615.175 513.925,615.175C516.6,615.175 519.25,615.075 521.875,614.875L521.525,614.9C524.675,615.05 528.35,615.15 532.025,615.15C593.2,615.15 648.6,590.325 688.65,550.175C689.25,549.4 689.875,548.55 690.45,547.65L690.525,547.525C691.65,545.8 690.725,544.875 689.275,545.85C643.65,577.575 587.1,596.55 526.1,596.55C515.35,596.55 504.725,595.95 494.3,594.8L495.6,594.925C487.6,593.5 480.55,591.525 473.8,588.975L474.625,589.25C466.65,586.125 450,578.5 447.975,561.425C466.125,568.35 487.125,572.35 509.05,572.35C529.7,572.35 549.525,568.8 567.95,562.275L566.725,562.65C567.5,562.275 568.05,561.5 568.05,560.6L568.05,560.4C567.95,559.325 567.05,558.525 565.975,558.525C565.9,558.525 565.825,558.525 565.75,558.55C556.225,559.75 545.2,560.45 534.025,560.45C503.825,560.45 474.775,555.425 447.7,546.2L449.575,546.75C455.725,526.75 472.075,534 496.75,535.975C502.85,536.35 509.975,536.575 517.175,536.575C550.475,536.575 582.675,531.85 613.125,523.05L610.7,523.65C643.275,514.2 671.65,499.7 696.55,480.825L695.9,481.3C701.125,493.025 705.25,506.65 707.625,520.875L707.775,521.875C708.65,521.725 709.675,521.65 710.7,521.65C714.225,521.65 717.525,522.575 720.375,524.2L720.275,524.15C725.675,527.45 729.625,534.325 726.925,552.1C721.425,585.575 705.9,614.725 683.6,637.075C669.025,652.8 651.8,665.825 632.575,675.475L631.55,675.95C622.025,681.1 610.8,685.975 599.125,689.875L597.575,690.325C578.4,698.625 556.1,703.45 532.65,703.45C470.525,703.45 416.325,669.575 387.475,619.3L387.05,618.475C384.925,613.95 382.925,608.55 381.325,602.95L381.125,602.175C377.775,590.625 375.825,577.35 375.825,563.625C375.825,526.75 389.8,493.125 412.725,467.75L412.625,467.875C414.9,465.875 416.425,463.075 416.75,459.925L416.75,459.875C416.45,456.95 415.3,454.35 413.55,452.25L413.575,452.275C386.475,429.375 369.375,395.35 369.375,357.325C369.375,354.95 369.45,352.625 369.575,350.275L369.55,350.6C374.3,313.45 405.275,284.875 443.075,283.9L443.175,283.9C445.95,284.025 448.7,284.2 451.475,284.375C465.625,285.225 478.025,287.025 489.675,287.5C491.725,287.7 494.1,287.8 496.525,287.8C516.2,287.8 534.125,280.35 547.65,268.125L547.575,268.175C553.45,262.125 560.975,257.7 569.45,255.7L569.75,255.65C571.75,255.1 574.025,254.775 576.375,254.775L576.475,254.775L576.475,254.75ZM482.05,154.625L482.1,154.625C482.825,154.625 483.4,155.2 483.4,155.925C483.4,156.325 483.2,156.7 482.925,156.925C478.025,160.7 473.8,164.95 470.15,169.7L470.025,169.875C469.875,170.075 469.775,170.35 469.775,170.625C469.775,171.3 470.325,171.85 471,171.875C496.15,172.75 519.6,179.275 540.35,190.225L539.475,189.8C540.75,190.525 539.85,193.025 538.4,192.675C519.975,188.325 498.8,185.85 477.075,185.85C454.85,185.85 433.225,188.45 412.475,193.375L414.375,193C376.05,201.825 342.325,217.25 312.75,238.15L313.65,237.55C313.45,237.7 313.175,237.8 312.9,237.8C312.2,237.8 311.625,237.225 311.625,236.525C311.625,236.2 311.75,235.925 311.925,235.7C337.95,205.175 368.825,179.725 403.55,160.325L405.225,159.45C405.4,159.35 405.575,159.3 405.8,159.3C406.45,159.3 407,159.825 407,160.5C407,160.7 406.95,160.9 406.85,161.075C403.325,167.175 400.35,174.2 398.325,181.625L398.175,182.25C398.15,182.325 398.15,182.425 398.15,182.5C398.15,183.2 398.725,183.775 399.425,183.775C399.675,183.775 399.925,183.7 400.125,183.55C423.35,168.1 451.225,157.725 481.275,154.675L482.05,154.6L482.05,154.625ZM379.375,52.375L379.875,52.375C384.875,52.375 389.7,53.025 394.3,54.275L393.925,54.175C409,65.45 422.125,78.025 433.6,92.025L433.925,92.425C392.175,116.525 356.225,141.575 322.575,169.3L323.95,168.2C253.3,225.35 199.05,300.15 167.7,385.975L166.6,389.45C141.15,394.3 119.7,408.525 105.475,428.3L105.275,428.6C95.575,421.05 87.025,412.8 79.425,403.75L79.225,403.5C57.425,362.075 103,281.6 134.875,236.15C207.425,132.575 317.875,52.2 379.425,52.4L379.375,52.375ZM377.1,25.1C237.275,24.625 -31.75,345.2 68.75,430.1L93.425,451C88.575,463.575 85.775,478.15 85.775,493.35C85.775,498.15 86.05,502.9 86.6,507.55L86.55,506.975C90.1,535.5 104.1,560.225 124.5,577.65L124.65,577.775C144.375,595.75 170.475,607.05 199.2,607.875L199.375,607.875C245.75,707.15 344.75,774.7 459.55,774.7L461.475,774.7L461.375,774.7C468.75,775.4 477.3,775.8 485.95,775.8C597.5,775.8 693.625,709.7 737.275,614.525L737.975,612.8C746.45,591.925 751.925,567.775 753.2,542.5L753.225,541.975C753.225,512.1 736.35,499.725 725.575,499.725C725.275,498.575 723.15,490.8 720.2,481.425C718.225,475 716.2,469.7 713.9,464.6L714.275,465.5C721.125,456.1 725.225,444.325 725.225,431.575C725.225,428.675 725,425.8 724.6,423L724.65,423.325C722.775,411.425 717.2,401.05 709.175,393.225C694.05,380.3 675.575,370.825 655.25,366.275L654.4,366.125L640.475,362.25C640.4,361.65 639.725,329.35 639.125,315.475C638.825,300.75 636.6,286.625 632.675,273.25L632.95,274.375C627.9,254.4 617.95,237.225 604.475,223.525L604.5,223.55C635.225,195.925 655.925,157.7 660.775,114.65L660.85,113.85C660.75,48.4 580.375,28.6 481.35,69.625L460.35,78.525C447.533,65.942 434.7,53.375 421.85,40.825C410.35,31.025 395.325,25.05 378.925,25.05C378.275,25.05 377.625,25.05 377,25.075L377.1,25.075L377.1,25.1Z" style="fill-rule:nonzero;"/>
                        </g>
                    </g>
                </g>
            </g>
            <g transform="matrix(1,0,0,1,-155,-526)">
                <g id="mailchimp2" serif:id="mailchimp">
                    <g>
                        <g transform="matrix(1,0,0,1,155,526)">
                            <circle cx="0" cy="0" r="53.41" style="fill:white;"/>
                        </g>
                        <g transform="matrix(0.0938041,0,0,0.0938041,117.478,488.438)">
                            <path d="M183.425,444.05L183.1,444.05C172.8,444.05 163.5,448.425 156.975,455.4L156.95,455.425C149.525,463.325 144.975,473.975 144.975,485.675C144.975,488.125 145.175,490.525 145.55,492.85L145.525,492.6C146.375,494.875 147.7,495.525 148.65,495.65C150.65,495.9 153.65,494.425 155.525,489.4L156.05,487.775C157.3,483.375 158.975,479.55 161.075,476L160.95,476.225C164.85,470.325 171.45,466.475 178.975,466.475C183.375,466.475 187.475,467.8 190.875,470.05L190.8,470C196.525,473.8 200.25,480.225 200.25,487.525C200.25,490.325 199.7,493 198.7,495.425L198.75,495.275C196.125,501.75 194.6,509.275 194.6,517.15L194.6,517.825L194.6,517.8C194.6,518.05 194.575,518.35 194.575,518.65C194.575,530.175 203.3,539.65 214.475,540.85L214.575,540.85C215.05,540.9 215.6,540.925 216.15,540.925C222.25,540.925 227.6,537.725 230.625,532.925L230.675,532.85C230.95,532.35 231.125,531.775 231.125,531.15C231.125,530.3 230.825,529.55 230.325,528.95C228.975,527.3 226.8,527.8 224.7,528.3C223.2,528.725 221.475,528.975 219.7,528.975L219.4,528.975C215.75,528.975 212.5,527.15 210.55,524.375L210.525,524.35C209.425,522.175 208.8,519.6 208.8,516.875C208.8,513.85 209.6,511 210.975,508.525L210.925,508.6C211.275,507.725 211.7,506.8 212.175,505.725C216.375,498.875 218.875,490.575 218.875,481.675C218.875,475.525 217.675,469.625 215.5,464.25L215.6,464.55C210.275,453.7 200.025,446 187.875,444.275L187.675,444.25C186.4,444.075 184.9,443.95 183.375,443.95L183.35,443.95L183.425,444.05ZM185.625,415.1C187.125,415.1 188.675,415.1 190.275,415.2C225.325,419.4 252.5,448.075 254.375,483.425L254.375,483.6C261.15,527.65 250.375,572.425 209.1,579.475C206.025,580 202.5,580.3 198.875,580.3C198.35,580.3 197.85,580.3 197.325,580.275L197.4,580.275C155.075,577.175 120.975,545.575 114.05,504.75L113.975,504.225C113.125,500 112.65,495.125 112.65,490.15C112.65,453.825 138.4,423.5 172.675,416.475L173.15,416.4C176.875,415.625 181.15,415.15 185.55,415.1L185.625,415.1ZM549.125,414.35C548.9,414.325 548.65,414.325 548.375,414.325C544.95,414.325 541.925,416.175 540.3,418.925L540.275,418.975C540.175,419.575 540.125,420.25 540.125,420.95C540.125,428.7 546.4,434.975 554.15,434.975C558.1,434.975 561.65,433.35 564.2,430.725C564.475,429.75 564.65,428.625 564.65,427.475C564.65,422.225 561.275,417.775 556.6,416.15L556.525,416.125C554.375,415.025 551.825,414.35 549.125,414.325L549.125,414.35ZM478.5,401.85L478.3,401.85C476.675,401.85 475.05,401.95 473.475,402.125L473.675,402.1C466.575,402.9 460.225,405.675 455.075,409.875L455.15,409.825C452.725,411.575 451.025,414.175 450.425,417.15L450.4,417.225L450.4,417.25C450.4,418.55 451.45,419.6 452.75,419.6C455.425,419.2 457.825,418.525 460.075,417.55L459.875,417.625C466.35,415.1 473.85,413.65 481.7,413.65C485.025,413.65 488.3,413.925 491.5,414.425L491.15,414.375C496.05,414.925 498.325,415.225 499.425,413.575C499.65,413.2 499.775,412.725 499.775,412.25C499.775,411.575 499.525,410.95 499.125,410.45C494.275,405.15 487.3,401.825 479.575,401.825C479.2,401.825 478.825,401.825 478.45,401.85L478.5,401.85ZM590.35,396.475C585,396.375 580.575,402.275 580.45,409.6C580.325,416.975 584.55,423.025 589.925,423.1C595.3,423.2 599.725,417.325 599.85,409.975C599.975,402.6 595.725,396.575 590.35,396.475ZM462.825,371.175L462.6,371.175C450.75,371.175 439.825,375 430.925,381.475L431.075,381.375C426.075,385.025 421.35,390.125 422.025,393.175C422.275,394.175 423,394.925 424.775,395.15C434.05,392.375 445.875,389.65 457.925,387.6L459.825,387.325C460.425,387.3 461.1,387.3 461.8,387.3C471.575,387.3 480.825,389.625 489,393.75L488.65,393.6C496.125,396.85 500.7,399 502.5,397.125C503.65,395.95 503.3,393.7 501.525,390.75C496.725,383.9 490.175,378.55 482.5,375.325L482.2,375.225C476.475,372.7 469.825,371.225 462.825,371.2L462.8,371.2L462.825,371.175ZM577.175,322.875C576.5,322.875 575.85,322.95 575.225,323.05L575.3,323.05C564.825,324.725 564.45,337.675 568.175,355.55C569.875,364.625 573.375,372.675 578.3,379.65L578.175,379.45C580.5,379.125 583.2,378.95 585.95,378.95C588.7,378.95 591.4,379.125 594.05,379.475L593.75,379.45C595.325,374.65 596.225,369.15 596.225,363.425C596.225,358.65 595.6,354.05 594.425,349.65L594.5,350.025C591,333.3 586.35,322.775 577.2,322.9L577.175,322.875ZM576.475,254.75L578.225,254.775C583.55,255 588.45,256.675 592.575,259.4L592.475,259.325C609.15,270.425 611.525,297.325 612.4,316.975C612.875,328.225 614.25,355.375 614.7,363.15C615.75,381 620.45,383.5 629.925,386.6C635.225,388.375 640.225,389.65 647.525,391.725C664.25,395.15 678.9,402.35 691.125,412.425L690.95,412.275C695.075,416.325 697.925,421.675 698.825,427.65L698.85,427.8C701.45,446.8 684.1,470.3 638.175,491.575C601.725,507.95 559.175,517.5 514.4,517.5C504.025,517.5 493.8,517 483.675,516L484.95,516.1L470.225,514.45C436.55,509.925 417.325,553.4 437.55,583.2C457,602.95 484.025,615.175 513.925,615.175C516.6,615.175 519.25,615.075 521.875,614.875L521.525,614.9C524.675,615.05 528.35,615.15 532.025,615.15C593.2,615.15 648.6,590.325 688.65,550.175C689.25,549.4 689.875,548.55 690.45,547.65L690.525,547.525C691.65,545.8 690.725,544.875 689.275,545.85C643.65,577.575 587.1,596.55 526.1,596.55C515.35,596.55 504.725,595.95 494.3,594.8L495.6,594.925C487.6,593.5 480.55,591.525 473.8,588.975L474.625,589.25C466.65,586.125 450,578.5 447.975,561.425C466.125,568.35 487.125,572.35 509.05,572.35C529.7,572.35 549.525,568.8 567.95,562.275L566.725,562.65C567.5,562.275 568.05,561.5 568.05,560.6L568.05,560.4C567.95,559.325 567.05,558.525 565.975,558.525C565.9,558.525 565.825,558.525 565.75,558.55C556.225,559.75 545.2,560.45 534.025,560.45C503.825,560.45 474.775,555.425 447.7,546.2L449.575,546.75C455.725,526.75 472.075,534 496.75,535.975C502.85,536.35 509.975,536.575 517.175,536.575C550.475,536.575 582.675,531.85 613.125,523.05L610.7,523.65C643.275,514.2 671.65,499.7 696.55,480.825L695.9,481.3C701.125,493.025 705.25,506.65 707.625,520.875L707.775,521.875C708.65,521.725 709.675,521.65 710.7,521.65C714.225,521.65 717.525,522.575 720.375,524.2L720.275,524.15C725.675,527.45 729.625,534.325 726.925,552.1C721.425,585.575 705.9,614.725 683.6,637.075C669.025,652.8 651.8,665.825 632.575,675.475L631.55,675.95C622.025,681.1 610.8,685.975 599.125,689.875L597.575,690.325C578.4,698.625 556.1,703.45 532.65,703.45C470.525,703.45 416.325,669.575 387.475,619.3L387.05,618.475C384.925,613.95 382.925,608.55 381.325,602.95L381.125,602.175C377.775,590.625 375.825,577.35 375.825,563.625C375.825,526.75 389.8,493.125 412.725,467.75L412.625,467.875C414.9,465.875 416.425,463.075 416.75,459.925L416.75,459.875C416.45,456.95 415.3,454.35 413.55,452.25L413.575,452.275C386.475,429.375 369.375,395.35 369.375,357.325C369.375,354.95 369.45,352.625 369.575,350.275L369.55,350.6C374.3,313.45 405.275,284.875 443.075,283.9L443.175,283.9C445.95,284.025 448.7,284.2 451.475,284.375C465.625,285.225 478.025,287.025 489.675,287.5C491.725,287.7 494.1,287.8 496.525,287.8C516.2,287.8 534.125,280.35 547.65,268.125L547.575,268.175C553.45,262.125 560.975,257.7 569.45,255.7L569.75,255.65C571.75,255.1 574.025,254.775 576.375,254.775L576.475,254.775L576.475,254.75ZM482.05,154.625L482.1,154.625C482.825,154.625 483.4,155.2 483.4,155.925C483.4,156.325 483.2,156.7 482.925,156.925C478.025,160.7 473.8,164.95 470.15,169.7L470.025,169.875C469.875,170.075 469.775,170.35 469.775,170.625C469.775,171.3 470.325,171.85 471,171.875C496.15,172.75 519.6,179.275 540.35,190.225L539.475,189.8C540.75,190.525 539.85,193.025 538.4,192.675C519.975,188.325 498.8,185.85 477.075,185.85C454.85,185.85 433.225,188.45 412.475,193.375L414.375,193C376.05,201.825 342.325,217.25 312.75,238.15L313.65,237.55C313.45,237.7 313.175,237.8 312.9,237.8C312.2,237.8 311.625,237.225 311.625,236.525C311.625,236.2 311.75,235.925 311.925,235.7C337.95,205.175 368.825,179.725 403.55,160.325L405.225,159.45C405.4,159.35 405.575,159.3 405.8,159.3C406.45,159.3 407,159.825 407,160.5C407,160.7 406.95,160.9 406.85,161.075C403.325,167.175 400.35,174.2 398.325,181.625L398.175,182.25C398.15,182.325 398.15,182.425 398.15,182.5C398.15,183.2 398.725,183.775 399.425,183.775C399.675,183.775 399.925,183.7 400.125,183.55C423.35,168.1 451.225,157.725 481.275,154.675L482.05,154.6L482.05,154.625ZM379.375,52.375L379.875,52.375C384.875,52.375 389.7,53.025 394.3,54.275L393.925,54.175C409,65.45 422.125,78.025 433.6,92.025L433.925,92.425C392.175,116.525 356.225,141.575 322.575,169.3L323.95,168.2C253.3,225.35 199.05,300.15 167.7,385.975L166.6,389.45C141.15,394.3 119.7,408.525 105.475,428.3L105.275,428.6C95.575,421.05 87.025,412.8 79.425,403.75L79.225,403.5C57.425,362.075 103,281.6 134.875,236.15C207.425,132.575 317.875,52.2 379.425,52.4L379.375,52.375ZM377.1,25.1C237.275,24.625 -31.75,345.2 68.75,430.1L93.425,451C88.575,463.575 85.775,478.15 85.775,493.35C85.775,498.15 86.05,502.9 86.6,507.55L86.55,506.975C90.1,535.5 104.1,560.225 124.5,577.65L124.65,577.775C144.375,595.75 170.475,607.05 199.2,607.875L199.375,607.875C245.75,707.15 344.75,774.7 459.55,774.7L461.475,774.7L461.375,774.7C468.75,775.4 477.3,775.8 485.95,775.8C597.5,775.8 693.625,709.7 737.275,614.525L737.975,612.8C746.45,591.925 751.925,567.775 753.2,542.5L753.225,541.975C753.225,512.1 736.35,499.725 725.575,499.725C725.275,498.575 723.15,490.8 720.2,481.425C718.225,475 716.2,469.7 713.9,464.6L714.275,465.5C721.125,456.1 725.225,444.325 725.225,431.575C725.225,428.675 725,425.8 724.6,423L724.65,423.325C722.775,411.425 717.2,401.05 709.175,393.225C694.05,380.3 675.575,370.825 655.25,366.275L654.4,366.125L640.475,362.25C640.4,361.65 639.725,329.35 639.125,315.475C638.825,300.75 636.6,286.625 632.675,273.25L632.95,274.375C627.9,254.4 617.95,237.225 604.475,223.525L604.5,223.55C635.225,195.925 655.925,157.7 660.775,114.65L660.85,113.85C660.75,48.4 580.375,28.6 481.35,69.625L460.35,78.525C447.533,65.942 434.7,53.375 421.85,40.825C410.35,31.025 395.325,25.05 378.925,25.05C378.275,25.05 377.625,25.05 377,25.075L377.1,25.075L377.1,25.1Z" style="fill-rule:nonzero;"/>
                        </g>
                    </g>
                </g>
            </g>
        </g>
        <g id="gmail" transform="matrix(1,0,0,1,640.176,112.873)" filter="url(#shadow)">
            <g transform="matrix(1,0,0,1,-155,-526)">
                <g id="gmail1" serif:id="gmail">
                    <g>
                        <g transform="matrix(1,0,0,1,155,526)">
                            <circle cx="0" cy="0" r="53.41" style="fill:white;"/>
                        </g>
                        <g transform="matrix(0.784226,0,0,0.784226,120.494,500.127)">
                            <g transform="matrix(1,0,0,1,-52,-42)">
                                <path d="M58,108L72,108L72,74L52,59L52,102C52,105.32 54.69,108 58,108" style="fill:rgb(66,133,244);fill-rule:nonzero;"/>
                            </g>
                            <g transform="matrix(1,0,0,1,-52,-42)">
                                <path d="M120,108L134,108C137.32,108 140,105.31 140,102L140,59L120,74" style="fill:rgb(52,168,83);fill-rule:nonzero;"/>
                            </g>
                            <g transform="matrix(1,0,0,1,-52,-42)">
                                <path d="M120,48L120,74L140,59L140,51C140,43.58 131.53,39.35 125.6,43.8" style="fill:rgb(251,188,4);fill-rule:nonzero;"/>
                            </g>
                            <g transform="matrix(1,0,0,1,-52,-42)">
                                <path d="M72,74L72,48L96,66L120,48L120,74L96,92" style="fill:rgb(234,67,53);fill-rule:nonzero;"/>
                            </g>
                            <g transform="matrix(1,0,0,1,-52,-42)">
                                <path d="M52,51L52,59L72,74L72,48L66.4,43.8C60.46,39.35 52,43.58 52,51" style="fill:rgb(197,34,31);fill-rule:nonzero;"/>
                            </g>
                        </g>
                    </g>
                </g>
            </g>
            <g transform="matrix(1,0,0,1,-155,-526)">
                <g id="gmail2" serif:id="gmail">
                    <g>
                        <g transform="matrix(1,0,0,1,155,526)">
                            <circle cx="0" cy="0" r="53.41" style="fill:white;"/>
                        </g>
                        <g transform="matrix(0.784226,0,0,0.784226,120.494,500.127)">
                            <g transform="matrix(1,0,0,1,-52,-42)">
                                <path d="M58,108L72,108L72,74L52,59L52,102C52,105.32 54.69,108 58,108" style="fill:rgb(66,133,244);fill-rule:nonzero;"/>
                            </g>
                            <g transform="matrix(1,0,0,1,-52,-42)">
                                <path d="M120,108L134,108C137.32,108 140,105.31 140,102L140,59L120,74" style="fill:rgb(52,168,83);fill-rule:nonzero;"/>
                            </g>
                            <g transform="matrix(1,0,0,1,-52,-42)">
                                <path d="M120,48L120,74L140,59L140,51C140,43.58 131.53,39.35 125.6,43.8" style="fill:rgb(251,188,4);fill-rule:nonzero;"/>
                            </g>
                            <g transform="matrix(1,0,0,1,-52,-42)">
                                <path d="M72,74L72,48L96,66L120,48L120,74L96,92" style="fill:rgb(234,67,53);fill-rule:nonzero;"/>
                            </g>
                            <g transform="matrix(1,0,0,1,-52,-42)">
                                <path d="M52,51L52,59L72,74L72,48L66.4,43.8C60.46,39.35 52,43.58 52,51" style="fill:rgb(197,34,31);fill-rule:nonzero;"/>
                            </g>
                        </g>
                    </g>
                </g>
            </g>
        </g>
        <g id="airtable" transform="matrix(1,0,0,1,946.318,112.873)" filter="url(#shadow)">
            <g transform="matrix(1,0,0,1,-155,-526)">
                <g id="airtable1" serif:id="airtable">
                    <g>
                        <g transform="matrix(1,0,0,1,155,526)">
                            <circle cx="0" cy="0" r="53.41" style="fill:white;"/>
                        </g>
                        <g transform="matrix(0.0973576,0,0,0.0973576,114.753,487.2)">
                            <path d="M357.059,72.503L58.939,195.861C42.36,202.722 42.532,226.27 59.214,232.883L358.582,351.599C384.887,362.031 414.179,362.031 440.48,351.599L739.852,232.883C756.53,226.27 756.706,202.722 740.123,195.861L442.008,72.503C414.808,61.249 384.254,61.249 357.059,72.503" style="fill:rgb(255,191,0);fill-rule:nonzero;"/>
                            <path d="M426.091,416.428L426.091,712.997C426.091,727.103 440.315,736.762 453.426,731.564L787.013,602.082C794.629,599.063 799.623,591.705 799.623,583.515L799.623,286.945C799.623,272.839 785.399,263.18 772.287,268.378L438.701,397.86C431.09,400.88 426.091,408.238 426.091,416.428" style="fill:rgb(38,181,248);fill-rule:nonzero;"/>
                            <path d="M348.196,431.73L249.195,479.531L239.143,484.39L30.158,584.525C16.91,590.916 0.002,581.262 0.002,566.546L0.002,288.191C0.002,282.867 2.732,278.27 6.393,274.808C7.92,273.276 9.652,272.015 11.45,271.016C16.445,268.019 23.568,267.219 29.624,269.615L346.533,395.178C362.641,401.569 363.907,424.141 348.196,431.73" style="fill:rgb(237,48,73);fill-rule:nonzero;"/>
                            <path d="M348.196,431.73L249.195,479.531L6.393,274.808C7.92,273.276 9.652,272.015 11.45,271.016C16.445,268.019 23.568,267.219 29.624,269.615L346.533,395.178C362.641,401.569 363.907,424.141 348.196,431.73" style="fill-opacity:0.25;fill-rule:nonzero;"/>
                        </g>
                    </g>
                </g>
            </g>
            <g transform="matrix(1,0,0,1,-155,-526)">
                <g id="airtable2" serif:id="airtable">
                    <g>
                        <g transform="matrix(1,0,0,1,155,526)">
                            <circle cx="0" cy="0" r="53.41" style="fill:white;"/>
                        </g>
                        <g transform="matrix(0.0973576,0,0,0.0973576,114.753,487.2)">
                            <path d="M357.059,72.503L58.939,195.861C42.36,202.722 42.532,226.27 59.214,232.883L358.582,351.599C384.887,362.031 414.179,362.031 440.48,351.599L739.852,232.883C756.53,226.27 756.706,202.722 740.123,195.861L442.008,72.503C414.808,61.249 384.254,61.249 357.059,72.503" style="fill:rgb(255,191,0);fill-rule:nonzero;"/>
                            <path d="M426.091,416.428L426.091,712.997C426.091,727.103 440.315,736.762 453.426,731.564L787.013,602.082C794.629,599.063 799.623,591.705 799.623,583.515L799.623,286.945C799.623,272.839 785.399,263.18 772.287,268.378L438.701,397.86C431.09,400.88 426.091,408.238 426.091,416.428" style="fill:rgb(38,181,248);fill-rule:nonzero;"/>
                            <path d="M348.196,431.73L249.195,479.531L239.143,484.39L30.158,584.525C16.91,590.916 0.002,581.262 0.002,566.546L0.002,288.191C0.002,282.867 2.732,278.27 6.393,274.808C7.92,273.276 9.652,272.015 11.45,271.016C16.445,268.019 23.568,267.219 29.624,269.615L346.533,395.178C362.641,401.569 363.907,424.141 348.196,431.73" style="fill:rgb(237,48,73);fill-rule:nonzero;"/>
                            <path d="M348.196,431.73L249.195,479.531L6.393,274.808C7.92,273.276 9.652,272.015 11.45,271.016C16.445,268.019 23.568,267.219 29.624,269.615L346.533,395.178C362.641,401.569 363.907,424.141 348.196,431.73" style="fill-opacity:0.25;fill-rule:nonzero;"/>
                        </g>
                    </g>
                </g>
            </g>
        </g>
        <g id="hubspot" transform="matrix(1,0,0,1,1040.92,243.083)" filter="url(#shadow)">
            <g transform="matrix(1,0,0,1,-155,-526)">
                <g id="hubspot1" serif:id="hubspot">
                    <g>
                        <g transform="matrix(1,0,0,1,155,526)">
                            <circle cx="0" cy="0" r="53.41" style="fill:rgb(255,122,89);"/>
                        </g>
                        <g transform="matrix(0.169713,0,0,0.169713,87.116,458.115)">
                            <path d="M487.344,488.234C457.477,488.234 433.25,464.273 433.25,434.711C433.25,405.148 457.469,381.18 487.344,381.18C517.219,381.18 541.453,405.141 541.453,434.711C541.453,464.281 517.234,488.234 487.344,488.234M503.547,331.656L503.547,284C516.461,278.086 524.811,265.164 524.898,250.961L524.898,249.859C524.898,229.719 508.242,213.25 487.906,213.25L486.789,213.25C466.477,213.25 449.797,229.727 449.797,249.859L449.797,250.961C449.888,265.163 458.237,278.083 471.148,284L471.148,331.656C452.908,334.408 435.703,341.895 421.258,353.367L289.148,251.672C290.073,248.326 290.569,244.877 290.625,241.406C290.625,218.586 271.961,200.063 248.906,200C225.852,199.938 207.148,218.43 207.125,241.258C207.102,264.086 225.758,282.57 248.813,282.609C256.033,282.578 263.123,280.669 269.383,277.07L399.367,377.148C375.478,412.733 376.124,459.657 400.984,494.57L361.438,533.711C358.154,532.682 354.733,532.158 351.291,532.158C332.682,532.158 317.37,547.471 317.37,566.08C317.37,584.689 332.682,600.002 351.291,600.002C351.408,600.002 351.524,600.001 351.641,600C370.578,600 385.938,584.797 385.938,566.055C385.904,562.76 385.377,559.49 384.375,556.352L423.438,517.664C441.823,531.599 464.274,539.139 487.344,539.125C545.633,539.125 592.859,492.383 592.859,434.711C592.859,382.508 554.094,339.398 503.539,331.656" style="fill:white;"/>
                        </g>
                    </g>
                </g>
            </g>
            <g transform="matrix(1,0,0,1,-155,-526)">
                <g id="hubspot2" serif:id="hubspot">
                    <g>
                        <g transform="matrix(1,0,0,1,155,526)">
                            <circle cx="0" cy="0" r="53.41" style="fill:rgb(255,122,89);"/>
                        </g>
                        <g transform="matrix(0.169713,0,0,0.169713,87.116,458.115)">
                            <path d="M487.344,488.234C457.477,488.234 433.25,464.273 433.25,434.711C433.25,405.148 457.469,381.18 487.344,381.18C517.219,381.18 541.453,405.141 541.453,434.711C541.453,464.281 517.234,488.234 487.344,488.234M503.547,331.656L503.547,284C516.461,278.086 524.811,265.164 524.898,250.961L524.898,249.859C524.898,229.719 508.242,213.25 487.906,213.25L486.789,213.25C466.477,213.25 449.797,229.727 449.797,249.859L449.797,250.961C449.888,265.163 458.237,278.083 471.148,284L471.148,331.656C452.908,334.408 435.703,341.895 421.258,353.367L289.148,251.672C290.073,248.326 290.569,244.877 290.625,241.406C290.625,218.586 271.961,200.063 248.906,200C225.852,199.938 207.148,218.43 207.125,241.258C207.102,264.086 225.758,282.57 248.813,282.609C256.033,282.578 263.123,280.669 269.383,277.07L399.367,377.148C375.478,412.733 376.124,459.657 400.984,494.57L361.438,533.711C358.154,532.682 354.733,532.158 351.291,532.158C332.682,532.158 317.37,547.471 317.37,566.08C317.37,584.689 332.682,600.002 351.291,600.002C351.408,600.002 351.524,600.001 351.641,600C370.578,600 385.938,584.797 385.938,566.055C385.904,562.76 385.377,559.49 384.375,556.352L423.438,517.664C441.823,531.599 464.274,539.139 487.344,539.125C545.633,539.125 592.859,492.383 592.859,434.711C592.859,382.508 554.094,339.398 503.539,331.656" style="fill:white;"/>
                        </g>
                    </g>
                </g>
            </g>
        </g>
        <g id="drive" transform="matrix(1,0,0,1,793.247,583.977)" filter="url(#shadow)">
            <g transform="matrix(1,0,0,1,-155,-526)">
                <g id="drive1" serif:id="drive">
                    <g>
                        <g transform="matrix(1,0,0,1,155,526)">
                            <circle cx="0" cy="0" r="53.41" style="fill:white;"/>
                        </g>
                        <g transform="matrix(0.0851738,0,0,0.0851738,120.93,491.966)">
                            <path d="M60.482,654.794L95.763,715.734C103.094,728.563 113.632,738.643 126.003,745.974C161.438,700.995 186.104,666.478 200.002,642.423C214.105,618.011 231.441,579.828 252.007,527.874C196.583,520.579 154.581,516.931 126.003,516.931C98.58,516.931 56.578,520.579 0,527.874C0,542.078 3.666,556.282 10.997,569.111L60.482,654.794Z" style="fill:rgb(0,102,218);fill-rule:nonzero;"/>
                            <path d="M674.005,745.974C686.376,738.643 696.914,728.563 704.245,715.734L718.907,690.533L789.011,569.111C796.342,556.282 800.008,542.078 800.008,527.874C743.102,520.579 701.177,516.931 674.233,516.931C645.277,516.931 603.352,520.579 548.459,527.874C568.783,580.113 585.889,618.296 599.777,642.423C613.788,666.762 638.53,701.279 674.005,745.974Z" style="fill:rgb(234,67,53);fill-rule:nonzero;"/>
                            <path d="M400.004,271.285C441.004,221.767 469.259,183.584 484.77,156.736C497.26,135.118 511.005,100.6 526.007,53.184C513.636,45.853 499.432,42.188 484.77,42.188L315.238,42.188C300.575,42.188 286.371,46.311 274,53.184C293.082,107.566 309.274,146.268 322.575,169.292C337.274,194.735 363.084,228.733 400.004,271.285Z" style="fill:rgb(0,131,45);fill-rule:nonzero;"/>
                            <path d="M548,527.874L252.007,527.874L126.003,745.974C138.375,753.306 152.579,756.971 167.241,756.971L632.767,756.971C647.429,756.971 661.633,752.847 674.005,745.974L548,527.874Z" style="fill:rgb(38,132,252);fill-rule:nonzero;"/>
                            <path d="M400.004,271.285L274.001,53.184C261.629,60.515 251.09,70.595 243.76,83.425L10.997,486.636C3.666,499.466 0,513.67 0,527.874L252.007,527.874L400.004,271.285Z" style="fill:rgb(0,172,71);fill-rule:nonzero;"/>
                            <path d="M672.63,285.031L556.248,83.425C548.918,70.595 538.379,60.515 526.007,53.184L400.004,271.285L548,527.874L799.55,527.874C799.55,513.67 795.884,499.466 788.553,486.636L672.63,285.031Z" style="fill:rgb(255,186,0);fill-rule:nonzero;"/>
                        </g>
                    </g>
                </g>
            </g>
            <g transform="matrix(1,0,0,1,-155,-526)">
                <g id="drive2" serif:id="drive">
                    <g>
                        <g transform="matrix(1,0,0,1,155,526)">
                            <circle cx="0" cy="0" r="53.41" style="fill:white;"/>
                        </g>
                        <g transform="matrix(0.0851738,0,0,0.0851738,120.93,491.966)">
                            <path d="M60.482,654.794L95.763,715.734C103.094,728.563 113.632,738.643 126.003,745.974C161.438,700.995 186.104,666.478 200.002,642.423C214.105,618.011 231.441,579.828 252.007,527.874C196.583,520.579 154.581,516.931 126.003,516.931C98.58,516.931 56.578,520.579 0,527.874C0,542.078 3.666,556.282 10.997,569.111L60.482,654.794Z" style="fill:rgb(0,102,218);fill-rule:nonzero;"/>
                            <path d="M674.005,745.974C686.376,738.643 696.914,728.563 704.245,715.734L718.907,690.533L789.011,569.111C796.342,556.282 800.008,542.078 800.008,527.874C743.102,520.579 701.177,516.931 674.233,516.931C645.277,516.931 603.352,520.579 548.459,527.874C568.783,580.113 585.889,618.296 599.777,642.423C613.788,666.762 638.53,701.279 674.005,745.974Z" style="fill:rgb(234,67,53);fill-rule:nonzero;"/>
                            <path d="M400.004,271.285C441.004,221.767 469.259,183.584 484.77,156.736C497.26,135.118 511.005,100.6 526.007,53.184C513.636,45.853 499.432,42.188 484.77,42.188L315.238,42.188C300.575,42.188 286.371,46.311 274,53.184C293.082,107.566 309.274,146.268 322.575,169.292C337.274,194.735 363.084,228.733 400.004,271.285Z" style="fill:rgb(0,131,45);fill-rule:nonzero;"/>
                            <path d="M548,527.874L252.007,527.874L126.003,745.974C138.375,753.306 152.579,756.971 167.241,756.971L632.767,756.971C647.429,756.971 661.633,752.847 674.005,745.974L548,527.874Z" style="fill:rgb(38,132,252);fill-rule:nonzero;"/>
                            <path d="M400.004,271.285L274.001,53.184C261.629,60.515 251.09,70.595 243.76,83.425L10.997,486.636C3.666,499.466 0,513.67 0,527.874L252.007,527.874L400.004,271.285Z" style="fill:rgb(0,172,71);fill-rule:nonzero;"/>
                            <path d="M672.63,285.031L556.248,83.425C548.918,70.595 538.379,60.515 526.007,53.184L400.004,271.285L548,527.874L799.55,527.874C799.55,513.67 795.884,499.466 788.553,486.636L672.63,285.031Z" style="fill:rgb(255,186,0);fill-rule:nonzero;"/>
                        </g>
                    </g>
                </g>
            </g>
        </g>
        <g id="zendesk" transform="matrix(1,0,0,1,1040.92,404.031)" filter="url(#shadow)">
            <g transform="matrix(1,0,0,1,-155,-526)">
                <g id="zendesk1" serif:id="zendesk">
                    <g>
                        <g transform="matrix(1,0,0,1,155,526)">
                            <circle cx="0" cy="0" r="53.41" style="fill:rgb(3,54,61);"/>
                        </g>
                        <g transform="matrix(0.091486,0,0,0.091486,118.406,489.548)">
                            <path d="M369.529,255.414L369.529,701.58L0,701.58L369.529,255.414ZM369.529,95.313C369.529,197.325 286.777,280.077 184.764,280.077C82.752,280.077 0,197.325 0,95.313L369.529,95.313ZM430.471,701.58C430.471,599.465 513.121,516.816 615.236,516.816C717.35,516.816 800,599.567 800,701.58L430.471,701.58ZM430.471,541.376L430.471,95.313L800,95.313L430.471,541.376Z" style="fill:white;fill-rule:nonzero;"/>
                        </g>
                    </g>
                </g>
            </g>
            <g transform="matrix(1,0,0,1,-155,-526)">
                <g id="zendesk2" serif:id="zendesk">
                    <g>
                        <g transform="matrix(1,0,0,1,155,526)">
                            <circle cx="0" cy="0" r="53.41" style="fill:rgb(3,54,61);"/>
                        </g>
                        <g transform="matrix(0.091486,0,0,0.091486,118.406,489.548)">
                            <path d="M369.529,255.414L369.529,701.58L0,701.58L369.529,255.414ZM369.529,95.313C369.529,197.325 286.777,280.077 184.764,280.077C82.752,280.077 0,197.325 0,95.313L369.529,95.313ZM430.471,701.58C430.471,599.465 513.121,516.816 615.236,516.816C717.35,516.816 800,599.567 800,701.58L430.471,701.58ZM430.471,541.376L430.471,95.313L800,95.313L430.471,541.376Z" style="fill:white;fill-rule:nonzero;"/>
                        </g>
                    </g>
                </g>
            </g>
        </g>
        <g id="outer-green-logo" transform="matrix(0.642202,0,0,0.642202,920.575,282.181)" filter="url(#shadow)">
            <g transform="matrix(1,0,0,1,-155,-526)">
                <g id="outer-green-logo1" serif:id="outer-green-logo">
                    <g>
                        <g transform="matrix(1,0,0,1,155,526)">
                            <circle cx="0" cy="0" r="53.41" style="fill:white;"/>
                        </g>
                        <g transform="matrix(1.83998,0,0,1.83998,119.668,491.979)">
                            <path d="M5.615,27.259L10.63,23.409C13.294,26.894 16.124,28.501 19.275,28.501C22.409,28.501 25.159,26.913 27.703,23.455L32.789,27.213C29.119,32.199 24.557,34.834 19.275,34.834C14.01,34.834 9.404,32.216 5.615,27.259Z" style="fill:url(#_Linear11);"/>
                            <path d="M18.992,10.523L10.067,18.233L5.941,13.436L19.011,2.146L31.978,13.445L27.833,18.224L18.992,10.523Z" style="fill:url(#_Linear12);"/>
                        </g>
                    </g>
                </g>
            </g>
            <g transform="matrix(1,0,0,1,-155,-526)">
                <g id="outer-green-logo2" serif:id="outer-green-logo">
                    <g>
                        <g transform="matrix(1,0,0,1,155,526)">
                            <circle cx="0" cy="0" r="53.41" style="fill:white;"/>
                        </g>
                        <g transform="matrix(1.83998,0,0,1.83998,119.668,491.979)">
                            <path d="M5.615,27.259L10.63,23.409C13.294,26.894 16.124,28.501 19.275,28.501C22.409,28.501 25.159,26.913 27.703,23.455L32.789,27.213C29.119,32.199 24.557,34.834 19.275,34.834C14.01,34.834 9.404,32.216 5.615,27.259Z" style="fill:url(#_Linear13);"/>
                            <path d="M18.992,10.523L10.067,18.233L5.941,13.436L19.011,2.146L31.978,13.445L27.833,18.224L18.992,10.523Z" style="fill:url(#_Linear14);"/>
                        </g>
                    </g>
                </g>
            </g>
        </g>
        <g id="notion" transform="matrix(0.642202,0,0,0.642202,793.247,189.673)" filter="url(#shadow)">
            <g transform="matrix(1,0,0,1,-155,-526)">
                <g id="notion1" serif:id="notion">
                    <g>
                        <g transform="matrix(1,0,0,1,155,526)">
                            <circle cx="0" cy="0" r="53.41" style="fill:white;"/>
                        </g>
                        <g transform="matrix(0.106038,0,0,0.106038,112.585,483.585)">
                            <path d="M142.9,730.445L56.916,623.328C36.228,597.558 25,565.865 25,533.247L25,145.375C25,96.516 64.09,55.974 114.518,52.531L513.303,25.305C542.275,23.327 571.07,31.027 594.87,47.118L734.98,141.848C760.063,158.805 775,186.525 775,216.106L775,657.08C775,704.895 736.565,744.483 687.19,747.523L244.583,774.768C205.183,777.193 167.1,760.593 142.9,730.445Z" style="fill:white;"/>
                            <path d="M281.203,339.467L281.203,334.39C281.203,321.518 291.513,310.842 304.8,309.955L401.583,303.493L535.425,500.587L535.425,327.603L500.975,323.01L500.975,320.6C500.975,307.575 511.52,296.83 524.978,296.14L613.04,291.63L613.04,304.303C613.04,310.25 608.615,315.34 602.553,316.365L581.36,319.95L581.36,600.093L554.765,609.238C532.545,616.88 507.81,608.7 495.09,589.508L365.152,393.43L365.152,580.575L405.145,588.228L404.59,591.938C402.843,603.558 392.81,612.348 380.675,612.887L281.203,617.315C279.888,604.818 289.253,593.64 302.173,592.282L315.258,590.907L315.258,341.38L281.203,339.467Z" style="fill-rule:nonzero;"/>
                            <path d="M516.873,74.17L118.087,101.396C94.2,103.027 75.684,122.231 75.684,145.375L75.684,533.247C75.684,554.992 83.169,576.12 96.961,593.303L182.945,700.418C196.847,717.735 218.725,727.273 241.359,725.88L683.965,698.635C706.65,697.238 724.31,679.048 724.31,657.08L724.31,216.106C724.31,202.515 717.448,189.779 705.923,181.988L565.813,87.257C551.533,77.603 534.255,72.983 516.873,74.17ZM137.862,151.425C132.315,147.319 134.955,138.764 141.922,138.264L519.555,111.178C531.588,110.315 543.543,113.628 553.273,120.522L629.043,174.203C631.918,176.241 630.57,180.641 627.008,180.835L227.097,202.584C214.994,203.242 203.048,199.687 193.425,192.563L137.862,151.425ZM208.339,270.768C208.339,257.775 218.835,247.044 232.257,246.313L655.075,223.286C668.157,222.574 679.168,232.633 679.168,245.296L679.168,627.133C679.168,640.1 668.71,650.82 655.315,651.583L235.172,675.488C220.615,676.318 208.339,665.13 208.339,651.038L208.339,270.768Z"/>
                        </g>
                    </g>
                </g>
            </g>
            <g transform="matrix(1,0,0,1,-155,-526)">
                <g id="notion2" serif:id="notion">
                    <g>
                        <g transform="matrix(1,0,0,1,155,526)">
                            <circle cx="0" cy="0" r="53.41" style="fill:white;"/>
                        </g>
                        <g transform="matrix(0.106038,0,0,0.106038,112.585,483.585)">
                            <path d="M142.9,730.445L56.916,623.328C36.228,597.558 25,565.865 25,533.247L25,145.375C25,96.516 64.09,55.974 114.518,52.531L513.303,25.305C542.275,23.327 571.07,31.027 594.87,47.118L734.98,141.848C760.063,158.805 775,186.525 775,216.106L775,657.08C775,704.895 736.565,744.483 687.19,747.523L244.583,774.768C205.183,777.193 167.1,760.593 142.9,730.445Z" style="fill:white;"/>
                            <path d="M281.203,339.467L281.203,334.39C281.203,321.518 291.513,310.842 304.8,309.955L401.583,303.493L535.425,500.587L535.425,327.603L500.975,323.01L500.975,320.6C500.975,307.575 511.52,296.83 524.978,296.14L613.04,291.63L613.04,304.303C613.04,310.25 608.615,315.34 602.553,316.365L581.36,319.95L581.36,600.093L554.765,609.238C532.545,616.88 507.81,608.7 495.09,589.508L365.152,393.43L365.152,580.575L405.145,588.228L404.59,591.938C402.843,603.558 392.81,612.348 380.675,612.887L281.203,617.315C279.888,604.818 289.253,593.64 302.173,592.282L315.258,590.907L315.258,341.38L281.203,339.467Z" style="fill-rule:nonzero;"/>
                            <path d="M516.873,74.17L118.087,101.396C94.2,103.027 75.684,122.231 75.684,145.375L75.684,533.247C75.684,554.992 83.169,576.12 96.961,593.303L182.945,700.418C196.847,717.735 218.725,727.273 241.359,725.88L683.965,698.635C706.65,697.238 724.31,679.048 724.31,657.08L724.31,216.106C724.31,202.515 717.448,189.779 705.923,181.988L565.813,87.257C551.533,77.603 534.255,72.983 516.873,74.17ZM137.862,151.425C132.315,147.319 134.955,138.764 141.922,138.264L519.555,111.178C531.588,110.315 543.543,113.628 553.273,120.522L629.043,174.203C631.918,176.241 630.57,180.641 627.008,180.835L227.097,202.584C214.994,203.242 203.048,199.687 193.425,192.563L137.862,151.425ZM208.339,270.768C208.339,257.775 218.835,247.044 232.257,246.313L655.075,223.286C668.157,222.574 679.168,232.633 679.168,245.296L679.168,627.133C679.168,640.1 668.71,650.82 655.315,651.583L235.172,675.488C220.615,676.318 208.339,665.13 208.339,651.038L208.339,270.768Z"/>
                        </g>
                    </g>
                </g>
            </g>
        </g>
        <g id="evernote" transform="matrix(0.642202,0,0,0.642202,793.247,457.441)" filter="url(#shadow)">
            <g transform="matrix(1,0,0,1,-155,-526)">
                <g id="evernote1" serif:id="evernote">
                    <g>
                        <g transform="matrix(1,0,0,1,155,526)">
                            <circle cx="0" cy="0" r="53.41" style="fill:rgb(0,168,45);"/>
                        </g>
                        <g transform="matrix(0.616801,0,0,0.616801,122.609,488.106)">
                            <path d="M32.91,27.61C32.91,28.83 32.81,30.87 31.58,32.19C30.26,33.41 28.22,33.51 27,33.51L13.96,33.51C10.19,33.51 7.95,33.51 6.42,33.71C5.61,33.81 4.59,34.22 4.08,34.42C3.88,34.52 3.88,34.42 3.98,34.32L33.72,4.08C33.82,3.98 33.92,3.98 33.82,4.18C33.62,4.69 33.21,5.71 33.11,6.52C32.91,8.05 32.91,10.29 32.91,14.06L32.91,27.61ZM60.62,119.1C57.16,116.86 55.32,113.9 54.61,112.07C53.9,110.34 53.49,108.4 53.49,106.47C53.49,98.01 60.42,91.09 68.98,91.09C71.53,91.09 73.56,93.13 73.56,95.67C73.56,97.4 72.64,98.83 71.22,99.64C70.71,99.95 70,100.15 69.49,100.25C68.98,100.35 67.05,100.56 66.13,101.37C65.11,102.19 64.3,103.51 64.3,104.94C64.3,106.47 64.91,107.9 65.93,108.91C67.76,110.74 70.21,111.76 72.86,111.76C79.79,111.76 85.39,106.16 85.39,99.23C85.39,93.02 81.21,87.51 75.71,85.07C74.9,84.66 73.57,84.36 72.35,84.05C70.82,83.74 69.4,83.54 69.29,83.54C65,83.03 54.3,79.67 53.59,70.2C53.59,70.2 50.43,84.46 44.11,88.33C43.5,88.64 42.68,88.94 41.77,89.15C40.86,89.36 39.83,89.45 39.53,89.45C29.24,90.06 18.34,86.8 10.8,79.06C10.8,79.06 5.71,74.88 3.06,63.17C2.45,60.32 1.23,55.22 0.51,50.43C0.2,48.7 0.1,47.38 0,46.15C0,41.16 3.06,37.8 6.93,37.29L27.71,37.29C31.28,37.29 33.31,36.37 34.64,35.15C36.37,33.52 36.78,31.18 36.78,28.43L36.78,6.93C37.29,3.16 40.65,0 45.64,0L48.09,0C49.11,0 50.33,0.1 51.45,0.2C52.27,0.3 52.98,0.51 54.2,0.81C60.41,2.34 61.74,8.65 61.74,8.65C61.74,8.65 73.46,10.69 79.37,11.71C84.97,12.73 98.83,13.65 101.48,27.6C107.69,60.81 103.93,93.01 103.62,93.01C99.24,124.39 73.16,122.86 73.16,122.86C67.54,122.87 63.37,121.03 60.62,119.1ZM84.05,52.37C80.69,52.06 77.84,53.39 76.82,55.94C76.62,56.45 76.41,57.06 76.51,57.37C76.61,57.68 76.82,57.78 77.02,57.88C78.24,58.49 80.28,58.8 83.23,59.1C86.18,59.41 88.22,59.61 89.55,59.41C89.75,59.41 89.96,59.31 90.16,59C90.36,58.69 90.26,58.08 90.26,57.57C89.86,54.71 87.41,52.77 84.05,52.37Z" style="fill:white;fill-rule:nonzero;"/>
                        </g>
                    </g>
                </g>
            </g>
            <g transform="matrix(1,0,0,1,-155,-526)">
                <g id="evernote2" serif:id="evernote">
                    <g>
                        <g transform="matrix(1,0,0,1,155,526)">
                            <circle cx="0" cy="0" r="53.41" style="fill:rgb(0,168,45);"/>
                        </g>
                        <g transform="matrix(0.616801,0,0,0.616801,122.609,488.106)">
                            <path d="M32.91,27.61C32.91,28.83 32.81,30.87 31.58,32.19C30.26,33.41 28.22,33.51 27,33.51L13.96,33.51C10.19,33.51 7.95,33.51 6.42,33.71C5.61,33.81 4.59,34.22 4.08,34.42C3.88,34.52 3.88,34.42 3.98,34.32L33.72,4.08C33.82,3.98 33.92,3.98 33.82,4.18C33.62,4.69 33.21,5.71 33.11,6.52C32.91,8.05 32.91,10.29 32.91,14.06L32.91,27.61ZM60.62,119.1C57.16,116.86 55.32,113.9 54.61,112.07C53.9,110.34 53.49,108.4 53.49,106.47C53.49,98.01 60.42,91.09 68.98,91.09C71.53,91.09 73.56,93.13 73.56,95.67C73.56,97.4 72.64,98.83 71.22,99.64C70.71,99.95 70,100.15 69.49,100.25C68.98,100.35 67.05,100.56 66.13,101.37C65.11,102.19 64.3,103.51 64.3,104.94C64.3,106.47 64.91,107.9 65.93,108.91C67.76,110.74 70.21,111.76 72.86,111.76C79.79,111.76 85.39,106.16 85.39,99.23C85.39,93.02 81.21,87.51 75.71,85.07C74.9,84.66 73.57,84.36 72.35,84.05C70.82,83.74 69.4,83.54 69.29,83.54C65,83.03 54.3,79.67 53.59,70.2C53.59,70.2 50.43,84.46 44.11,88.33C43.5,88.64 42.68,88.94 41.77,89.15C40.86,89.36 39.83,89.45 39.53,89.45C29.24,90.06 18.34,86.8 10.8,79.06C10.8,79.06 5.71,74.88 3.06,63.17C2.45,60.32 1.23,55.22 0.51,50.43C0.2,48.7 0.1,47.38 0,46.15C0,41.16 3.06,37.8 6.93,37.29L27.71,37.29C31.28,37.29 33.31,36.37 34.64,35.15C36.37,33.52 36.78,31.18 36.78,28.43L36.78,6.93C37.29,3.16 40.65,0 45.64,0L48.09,0C49.11,0 50.33,0.1 51.45,0.2C52.27,0.3 52.98,0.51 54.2,0.81C60.41,2.34 61.74,8.65 61.74,8.65C61.74,8.65 73.46,10.69 79.37,11.71C84.97,12.73 98.83,13.65 101.48,27.6C107.69,60.81 103.93,93.01 103.62,93.01C99.24,124.39 73.16,122.86 73.16,122.86C67.54,122.87 63.37,121.03 60.62,119.1ZM84.05,52.37C80.69,52.06 77.84,53.39 76.82,55.94C76.62,56.45 76.41,57.06 76.51,57.37C76.61,57.68 76.82,57.78 77.02,57.88C78.24,58.49 80.28,58.8 83.23,59.1C86.18,59.41 88.22,59.61 89.55,59.41C89.75,59.41 89.96,59.31 90.16,59C90.36,58.69 90.26,58.08 90.26,57.57C89.86,54.71 87.41,52.77 84.05,52.37Z" style="fill:white;fill-rule:nonzero;"/>
                        </g>
                    </g>
                </g>
            </g>
        </g>
        <g id="inner-red-logo" transform="matrix(1,0,0,1,871.942,431.872)" filter="url(#shadow)">
            <g transform="matrix(1,0,0,1,-315,-160)">
                <g id="inner-red-logo1" serif:id="inner-red-logo">
                    <g>
                        <g transform="matrix(1,0,0,1,315,160)">
                            <circle cx="0" cy="0" r="34.32" style="fill:rgb(8,124,213);"/>
                        </g>
                        <g transform="matrix(2.5,0,0,2.5,292.5,137.475)">
                            <path d="M17,4L17,13.74L13,17.02L6.8,14.76L6.8,17L3.29,12.41L13.52,13.21L13.52,4.44L17,4ZM13.59,4.49L7.85,1L7.85,3.29L2.58,4.84L1,6.87L1,11.48L3.26,12.48L3.26,6.57L13.59,4.49Z" style="fill:white;fill-rule:nonzero;"/>
                        </g>
                    </g>
                </g>
            </g>
            <g transform="matrix(1,0,0,1,-315,-160)">
                <g id="inner-red-logo2" serif:id="inner-red-logo">
                    <g>
                        <g transform="matrix(1,0,0,1,315,160)">
                            <circle cx="0" cy="0" r="34.32" style="fill:rgb(8,124,213);"/>
                        </g>
                        <g transform="matrix(2.5,0,0,2.5,292.5,137.475)">
                            <path d="M17,4L17,13.74L13,17.02L6.8,14.76L6.8,17L3.29,12.41L13.52,13.21L13.52,4.44L17,4ZM13.59,4.49L7.85,1L7.85,3.29L2.58,4.84L1,6.87L1,11.48L3.26,12.48L3.26,6.57L13.59,4.49Z" style="fill:white;fill-rule:nonzero;"/>
                        </g>
                    </g>
                </g>
            </g>
        </g>
    </g>
    <defs>
          <filter id='shadow' color-interpolation-filters="sRGB">
            <feDropShadow dx="2" dy="2" stdDeviation="3" flood-opacity="0.5"/>
          </filter>
        <linearGradient id="_Linear1" x1="0" y1="0" x2="1" y2="0" gradientUnits="userSpaceOnUse" gradientTransform="matrix(317.386,35.2642,0.0354504,-0.319062,217.514,352.862)"><stop offset="0" style="stop-color:rgb(128,68,253);stop-opacity:1"/><stop offset="0.18" style="stop-color:rgb(128,68,253);stop-opacity:1"/><stop offset="1" style="stop-color:rgb(87,38,192);stop-opacity:1"/></linearGradient>
        <linearGradient id="_Linear4" x1="0" y1="0" x2="1" y2="0" gradientUnits="userSpaceOnUse" gradientTransform="matrix(315.734,69.2995,-69.2995,315.734,228.266,996.802)"><stop offset="0" style="stop-color:white;stop-opacity:1"/><stop offset="0.18" style="stop-color:white;stop-opacity:1"/><stop offset="1" style="stop-color:white;stop-opacity:0.41"/></linearGradient>
        <linearGradient id="_Linear7" x1="0" y1="0" x2="1" y2="0" gradientUnits="userSpaceOnUse" gradientTransform="matrix(-14.71,15.17,-15.17,-14.71,81.0326,100.473)"><stop offset="0" style="stop-color:white;stop-opacity:0.4"/><stop offset="0.15" style="stop-color:white;stop-opacity:0.4"/><stop offset="0.29" style="stop-color:white;stop-opacity:0.47"/><stop offset="0.56" style="stop-color:white;stop-opacity:0.66"/><stop offset="0.95" style="stop-color:white;stop-opacity:0.96"/><stop offset="1" style="stop-color:white;stop-opacity:1"/></linearGradient>
        <linearGradient id="_Linear8" x1="0" y1="0" x2="1" y2="0" gradientUnits="userSpaceOnUse" gradientTransform="matrix(-17.01,16.55,-16.55,-17.01,64.8974,117.797)"><stop offset="0" style="stop-color:white;stop-opacity:0.4"/><stop offset="0.15" style="stop-color:white;stop-opacity:0.4"/><stop offset="0.29" style="stop-color:white;stop-opacity:0.47"/><stop offset="0.56" style="stop-color:white;stop-opacity:0.66"/><stop offset="0.95" style="stop-color:white;stop-opacity:0.96"/><stop offset="1" style="stop-color:white;stop-opacity:1"/></linearGradient>
        <linearGradient id="_Linear9" x1="0" y1="0" x2="1" y2="0" gradientUnits="userSpaceOnUse" gradientTransform="matrix(-14.71,15.17,-15.17,-14.71,81.0326,100.473)"><stop offset="0" style="stop-color:white;stop-opacity:0.4"/><stop offset="0.15" style="stop-color:white;stop-opacity:0.4"/><stop offset="0.29" style="stop-color:white;stop-opacity:0.47"/><stop offset="0.56" style="stop-color:white;stop-opacity:0.66"/><stop offset="0.95" style="stop-color:white;stop-opacity:0.96"/><stop offset="1" style="stop-color:white;stop-opacity:1"/></linearGradient>
        <linearGradient id="_Linear10" x1="0" y1="0" x2="1" y2="0" gradientUnits="userSpaceOnUse" gradientTransform="matrix(-17.01,16.55,-16.55,-17.01,64.8974,117.797)"><stop offset="0" style="stop-color:white;stop-opacity:0.4"/><stop offset="0.15" style="stop-color:white;stop-opacity:0.4"/><stop offset="0.29" style="stop-color:white;stop-opacity:0.47"/><stop offset="0.56" style="stop-color:white;stop-opacity:0.66"/><stop offset="0.95" style="stop-color:white;stop-opacity:0.96"/><stop offset="1" style="stop-color:white;stop-opacity:1"/></linearGradient>
        <linearGradient id="_Linear11" x1="0" y1="0" x2="1" y2="0" gradientUnits="userSpaceOnUse" gradientTransform="matrix(27.1742,0,0,27.1742,5.61511,31.179)"><stop offset="0" style="stop-color:rgb(137,48,253);stop-opacity:1"/><stop offset="1" style="stop-color:rgb(73,204,249);stop-opacity:1"/></linearGradient>
        <linearGradient id="_Linear12" x1="0" y1="0" x2="1" y2="0" gradientUnits="userSpaceOnUse" gradientTransform="matrix(26.0369,0,0,26.0369,5.94116,13.0864)"><stop offset="0" style="stop-color:rgb(255,2,240);stop-opacity:1"/><stop offset="1" style="stop-color:rgb(255,200,0);stop-opacity:1"/></linearGradient>
        <linearGradient id="_Linear13" x1="0" y1="0" x2="1" y2="0" gradientUnits="userSpaceOnUse" gradientTransform="matrix(27.1742,0,0,27.1742,5.61511,31.179)"><stop offset="0" style="stop-color:rgb(137,48,253);stop-opacity:1"/><stop offset="1" style="stop-color:rgb(73,204,249);stop-opacity:1"/></linearGradient>
        <linearGradient id="_Linear14" x1="0" y1="0" x2="1" y2="0" gradientUnits="userSpaceOnUse" gradientTransform="matrix(26.0369,0,0,26.0369,5.94116,13.0864)"><stop offset="0" style="stop-color:rgb(255,2,240);stop-opacity:1"/><stop offset="1" style="stop-color:rgb(255,200,0);stop-opacity:1"/></linearGradient>
    </defs>
</svg>
