<?xml version="1.0" encoding="UTF-8" standalone="no"?>
<!DOCTYPE svg PUBLIC "-//W3C//DTD SVG 1.1//EN" "http://www.w3.org/Graphics/SVG/1.1/DTD/svg11.dtd">
<svg width="100%" height="100%" viewBox="0 0 2234 398" version="1.1"
	xmlns="http://www.w3.org/2000/svg"
	xmlns:xlink="http://www.w3.org/1999/xlink" xml:space="preserve"
	xmlns:serif="http://www.serif.com/" style="fill-rule:evenodd;clip-rule:evenodd;stroke-linejoin:round;stroke-miterlimit:2;">
	<g>
		<path id="LogoMark" d="M704,274.47l-0,-36.635l57.134,0l-0,35.671c-0,16.222 4.254,27.919 12.763,35.092c8.509,7.174 20.331,10.76 35.465,10.76c9.845,0 18.131,-0.98 24.857,-2.941c6.727,-1.962 11.897,-3.962 15.51,-6l-0,-72.582l57.134,0l-0,77.422c-0,7.087 -1.222,13.008 -3.667,17.763c-2.444,4.756 -6.912,9.061 -13.405,12.916c-8.728,5.357 -19.987,9.853 -33.776,13.488c-13.789,3.635 -29.495,5.453 -47.117,5.453c-21.293,-0 -39.832,-3.163 -55.619,-9.489c-15.786,-6.325 -27.946,-16.157 -36.479,-29.494c-8.533,-13.337 -12.8,-30.478 -12.8,-51.424Zm202.863,-14.528l-57.134,0l-0,-120.419c2.435,-0.768 6.018,-1.576 10.749,-2.424c4.732,-0.847 9.762,-1.271 15.09,-1.271c10.956,-0 18.91,1.908 23.864,5.724c4.954,3.816 7.431,10.818 7.431,21.006l-0,97.384Zm-145.729,0l-57.134,0l-0,-120.419c2.439,-0.768 6.024,-1.576 10.753,-2.424c4.729,-0.847 9.84,-1.271 15.332,-1.271c10.796,-0 18.67,1.908 23.622,5.724c4.951,3.816 7.427,10.818 7.427,21.006l-0,97.384Z" style="fill:#fff;fill-rule:nonzero;"/>
		<path d="M1128.93,296.244c0,21.569 -8.044,38.437 -24.132,50.605c-16.088,12.168 -39.448,18.253 -70.079,18.253c-24.834,-0 -45.152,-3.708 -60.956,-11.123c-15.803,-7.415 -23.704,-17.231 -23.704,-29.447c-0,-5.488 1.264,-10.417 3.793,-14.789c2.529,-4.372 5.877,-7.864 10.046,-10.477c8.642,5.429 18.639,10.358 29.991,14.785c11.352,4.427 24.36,6.641 39.026,6.641c26.221,-0 39.331,-8.075 39.331,-24.223c-0,-6.739 -2.297,-12.189 -6.891,-16.351c-4.594,-4.161 -11.702,-7.256 -21.325,-9.285l-26.694,-6.645c-22.568,-4.932 -39.294,-12.675 -50.177,-23.23c-10.883,-10.555 -16.325,-24.58 -16.325,-42.077c-0,-19.651 7.982,-35.727 23.947,-48.228c15.966,-12.502 38.292,-18.753 66.981,-18.753c14.83,0 28.064,1.469 39.7,4.406c11.637,2.937 20.803,7.172 27.499,12.706c6.695,5.533 10.042,12.121 10.042,19.763c0,5.352 -1.153,10.093 -3.46,14.223c-2.306,4.13 -5.307,7.415 -9.003,9.855c-3.56,-2.329 -8.571,-4.775 -15.035,-7.34c-6.463,-2.565 -13.707,-4.742 -21.73,-6.529c-8.024,-1.787 -16.006,-2.681 -23.948,-2.681c-11.97,0 -21.461,1.923 -28.472,5.768c-7.012,3.845 -10.518,9.448 -10.518,16.81c0,5.169 1.988,9.599 5.964,13.289c3.975,3.691 10.774,6.625 20.397,8.804l23.534,5.659c25.182,5.835 43.511,14.383 54.986,25.643c11.475,11.26 17.212,25.916 17.212,43.968Z" style="fill:#fff;fill-rule:nonzero;"/>
		<path d="M1193.91,277.6l-2.304,-40.12l124.245,-18.347c-0.937,-11.81 -5.474,-22.052 -13.611,-30.726c-8.138,-8.673 -19.851,-13.01 -35.139,-13.01c-15.903,0 -29.076,5.506 -39.519,16.517c-10.444,11.012 -15.813,26.751 -16.108,47.218l1.333,24.006c2.609,19.684 10.205,34.198 22.789,43.54c12.583,9.342 28.49,14.014 47.721,14.014c12.985,-0 25.03,-1.941 36.135,-5.822c11.106,-3.882 19.972,-8.074 26.6,-12.576c4.14,2.609 7.549,6.012 10.227,10.21c2.679,4.198 4.018,8.746 4.018,13.644c0,7.951 -3.547,14.848 -10.64,20.69c-7.094,5.843 -16.684,10.31 -28.77,13.402c-12.086,3.091 -25.822,4.637 -41.207,4.637c-23.955,-0 -45.111,-4.439 -63.467,-13.318c-18.356,-8.879 -32.695,-22.157 -43.015,-39.834c-10.321,-17.678 -15.481,-39.552 -15.481,-65.622c0,-18.956 2.921,-35.572 8.764,-49.848c5.842,-14.277 13.807,-26.134 23.893,-35.57c10.086,-9.437 21.727,-16.557 34.922,-21.361c13.194,-4.804 27.137,-7.206 41.826,-7.206c20.342,-0 38.183,4.13 53.522,12.39c15.34,8.261 27.365,19.653 36.077,34.179c8.712,14.526 13.068,31.21 13.068,50.054c0,8.584 -2.212,14.975 -6.637,19.173c-4.425,4.198 -10.608,6.828 -18.549,7.891l-150.693,21.795Z" style="fill:#fff;fill-rule:nonzero;"/>
		<path d="M1466.48,191.164l-0,63.474l-57.134,0l0,-67.814c0,-8.004 1.835,-14.686 5.503,-20.046c3.669,-5.359 8.965,-10.271 15.887,-14.734c9.376,-5.85 21.168,-10.596 35.374,-14.238c14.207,-3.642 29.443,-5.464 45.707,-5.464c29.037,0 43.555,8.93 43.555,26.788c0,4.275 -0.612,8.246 -1.837,11.913c-1.224,3.666 -2.759,6.799 -4.604,9.397c-3.092,-0.618 -6.962,-1.162 -11.612,-1.633c-4.649,-0.471 -9.52,-0.707 -14.611,-0.707c-11.106,0 -21.549,1.209 -31.331,3.627c-9.782,2.417 -18.081,5.563 -24.897,9.437Zm-57.134,44.591l57.134,2.892l-0,118.832c-2.435,0.763 -5.977,1.569 -10.626,2.416c-4.65,0.848 -9.721,1.272 -15.213,1.272c-10.647,0 -18.524,-1.944 -23.632,-5.833c-5.109,-3.889 -7.663,-10.772 -7.663,-20.651l0,-98.928Z" style="fill:#fff;fill-rule:nonzero;"/>
		<path d="M1797.27,248.385c-0,23.771 -4.65,44.375 -13.949,61.811c-9.299,17.436 -22.415,30.908 -39.348,40.417c-16.934,9.509 -36.854,14.264 -59.761,14.264c-22.824,-0 -42.752,-4.711 -59.782,-14.133c-17.03,-9.422 -30.208,-22.858 -39.533,-40.309c-9.326,-17.45 -13.988,-38.134 -13.988,-62.05c-0,-23.849 4.74,-44.44 14.22,-61.775c9.48,-17.334 22.736,-30.75 39.769,-40.247c17.032,-9.497 36.83,-14.245 59.394,-14.245c22.564,-0 42.306,4.782 59.228,14.347c16.921,9.564 30.11,23.034 39.566,40.41c9.456,17.375 14.184,37.879 14.184,61.51Zm-113.116,-70.749c-16.82,0 -30.149,6.231 -39.986,18.691c-9.837,12.461 -14.756,29.813 -14.756,52.058c-0,22.709 4.817,40.215 14.452,52.518c9.634,12.304 23.084,18.455 40.348,18.455c17.163,0 30.546,-6.229 40.15,-18.687c9.603,-12.458 14.404,-29.887 14.404,-52.286c0,-22.095 -4.833,-39.41 -14.499,-51.946c-9.666,-12.535 -23.037,-18.803 -40.113,-18.803Z" style="fill:#fff;fill-rule:nonzero;"/>
		<path d="M1983.15,214.46c-4.227,16.955 -9.063,34.206 -14.51,51.754c-5.446,17.547 -10.662,33.932 -15.647,49.155c-4.985,15.224 -9.282,27.831 -12.891,37.82c-3.217,2.585 -7.447,4.675 -12.691,6.272c-5.243,1.596 -11.679,2.394 -19.306,2.394c-8.512,0 -16.115,-1.295 -22.81,-3.887c-6.696,-2.592 -11.188,-6.409 -13.478,-11.452c-2.942,-6.183 -6.234,-15.038 -9.876,-26.563c-3.642,-11.526 -7.402,-24.752 -11.278,-39.679c-3.877,-14.926 -7.757,-30.43 -11.641,-46.511c-3.883,-16.081 -7.417,-31.66 -10.6,-46.736c-3.184,-15.076 -5.862,-28.561 -8.036,-40.454c3.203,-3.207 7.391,-6.072 12.564,-8.593c5.174,-2.522 11.045,-3.783 17.615,-3.783c8.246,0 14.802,1.994 19.669,5.982c4.867,3.987 7.991,10.65 9.372,19.988c2.933,18.027 5.843,35.012 8.732,50.953c2.888,15.94 5.671,30.354 8.347,43.239c2.676,12.886 5.044,23.926 7.105,33.121c2.06,9.195 3.641,16.143 4.742,20.843l1.855,-0c2.024,-7.125 5.219,-18.444 9.586,-33.958c4.367,-15.513 9.553,-33.274 15.557,-53.282c6.005,-20.009 11.973,-40.251 17.905,-60.728c4.255,-2.44 8.751,-4.305 13.488,-5.598c4.736,-1.292 10.227,-1.938 16.473,-1.938c8.087,0 14.95,1.34 20.59,4.018c5.639,2.679 9.3,6.769 10.981,12.271c6.231,19.699 12.074,38.901 17.527,57.605c5.454,18.704 10.246,35.238 14.376,49.601c4.13,14.364 7.055,25.113 8.775,32.248l2.319,-0c5.328,-25.733 10.942,-52.994 16.843,-81.784c5.9,-28.79 10.884,-57.368 14.952,-85.733c7.593,-4.565 16.112,-6.848 25.556,-6.848c7.927,0 14.401,1.756 19.422,5.268c5.022,3.512 7.532,9.379 7.532,17.6c0,4.145 -0.893,11.047 -2.681,20.705c-1.787,9.659 -4.158,20.832 -7.111,33.52c-2.954,12.687 -6.296,26.114 -10.025,40.28c-3.729,14.165 -7.498,27.867 -11.307,41.105c-3.809,13.239 -7.424,25.163 -10.844,35.773c-3.42,10.611 -6.371,18.858 -8.854,24.741c-2.734,2.425 -7.215,4.476 -13.441,6.152c-6.227,1.676 -12.995,2.514 -20.303,2.514c-19.057,0 -30.261,-4.644 -33.614,-13.933c-3.434,-9.348 -7.563,-21.253 -12.387,-35.715c-4.823,-14.463 -9.69,-30.206 -14.6,-47.229c-4.91,-17.023 -9.561,-33.862 -13.952,-50.518Z" style="fill:#fff;fill-rule:nonzero;"/>
		<path d="M2176.62,235.755l57.134,2.892l-0,118.832c-2.435,0.763 -5.977,1.569 -10.626,2.416c-4.65,0.848 -9.721,1.272 -15.213,1.272c-10.647,0 -18.524,-1.944 -23.632,-5.833c-5.109,-3.889 -7.663,-10.772 -7.663,-20.651l0,-98.928Zm57.134,31.868l-57.134,-2.652l0,-208.181c2.439,-0.768 6.024,-1.575 10.753,-2.42c4.729,-0.846 9.758,-1.268 15.086,-1.268c10.956,-0 18.91,1.906 23.864,5.72c4.954,3.814 7.431,10.735 7.431,20.763l-0,188.038Z" style="fill:#fff;fill-rule:nonzero;"/>
		<g id="Logo">
			<g id="Sol">
				<path d="M211.334,53.528c63.16,21.411 108.666,81.22 108.666,151.574c-0,88.306 -71.694,160 -160,160c-88.306,-0 -160,-71.694 -160,-160c-0,-19.216 3.395,-37.645 9.618,-54.724l-0.026,-0.01l54.724,-150.351l147.018,53.511Zm-51.334,74.472c-44.153,-0 -80,35.847 -80,80c-0,44.153 35.847,80 80,80c44.153,-0 80,-35.847 80,-80c-0,-44.153 -35.847,-80 -80,-80Zm44.743,57.672c3.364,6.722 5.257,14.306 5.257,22.328c-0,27.596 -22.404,50 -50,50c-27.596,-0 -50,-22.404 -50,-50c-0,-27.596 22.404,-50 50,-50c8.022,-0 15.606,1.893 22.328,5.257c-3.844,2.924 -6.328,7.546 -6.328,12.743c-0,8.831 7.169,16 16,16c5.197,-0 9.819,-2.484 12.743,-6.328Z" style="fill:url(#_Linear1);"/>
				<clipPath id="_clip2">
					<path d="M211.334,53.528c63.16,21.411 108.666,81.22 108.666,151.574c-0,88.306 -71.694,160 -160,160c-88.306,-0 -160,-71.694 -160,-160c-0,-19.216 3.395,-37.645 9.618,-54.724l-0.026,-0.01l54.724,-150.351l147.018,53.511Zm-51.334,74.472c-44.153,-0 -80,35.847 -80,80c-0,44.153 35.847,80 80,80c44.153,-0 80,-35.847 80,-80c-0,-44.153 -35.847,-80 -80,-80Zm44.743,57.672c3.364,6.722 5.257,14.306 5.257,22.328c-0,27.596 -22.404,50 -50,50c-27.596,-0 -50,-22.404 -50,-50c-0,-27.596 22.404,-50 50,-50c8.022,-0 15.606,1.893 22.328,5.257c-3.844,2.924 -6.328,7.546 -6.328,12.743c-0,8.831 7.169,16 16,16c5.197,-0 9.819,-2.484 12.743,-6.328Z"/>
				</clipPath>
				<g clip-path="url(#_clip2)">
					<path d="M292.238,249.169l38.089,77.255l-38.089,77.256l-38.09,-77.256l38.09,-77.255Z" style="fill-opacity:0.2;"/>
				</g>
			</g>
			<g id="Sag">
				<path d="M565.336,147.591c6.888,17.853 10.664,37.244 10.664,57.511c-0,88.306 -71.694,160 -160,160c-88.306,-0 -160,-71.694 -160,-160c-0,-69.083 43.876,-127.998 105.267,-150.379l150.351,-54.723l53.718,147.591Zm-149.336,-19.591c-44.153,-0 -80,35.847 -80,80c-0,44.153 35.847,80 80,80c44.153,-0 80,-35.847 80,-80c-0,-44.153 -35.847,-80 -80,-80Zm44.743,57.672c3.364,6.722 5.257,14.306 5.257,22.328c-0,27.596 -22.404,50 -50,50c-27.596,-0 -50,-22.404 -50,-50c-0,-27.596 22.404,-50 50,-50c8.022,-0 15.606,1.893 22.328,5.257c-3.844,2.924 -6.328,7.546 -6.328,12.743c-0,8.831 7.169,16 16,16c5.197,-0 9.819,-2.484 12.743,-6.328Z" style="fill:#fff;"/>
				<clipPath id="_clip3">
					<path d="M565.336,147.591c6.888,17.853 10.664,37.244 10.664,57.511c-0,88.306 -71.694,160 -160,160c-88.306,-0 -160,-71.694 -160,-160c-0,-69.083 43.876,-127.998 105.267,-150.379l150.351,-54.723l53.718,147.591Zm-149.336,-19.591c-44.153,-0 -80,35.847 -80,80c-0,44.153 35.847,80 80,80c44.153,-0 80,-35.847 80,-80c-0,-44.153 -35.847,-80 -80,-80Zm44.743,57.672c3.364,6.722 5.257,14.306 5.257,22.328c-0,27.596 -22.404,50 -50,50c-27.596,-0 -50,-22.404 -50,-50c-0,-27.596 22.404,-50 50,-50c8.022,-0 15.606,1.893 22.328,5.257c-3.844,2.924 -6.328,7.546 -6.328,12.743c-0,8.831 7.169,16 16,16c5.197,-0 9.819,-2.484 12.743,-6.328Z"/>
				</clipPath>
				<g clip-path="url(#_clip3)">
					<path d="M287.215,263.53l33.067,64.376l-33.067,64.376l-33.067,-64.376l33.067,-64.376Z" style="fill-opacity:0.2;"/>
				</g>
			</g>
			<g id="Burun">
				<path d="M287.983,269.102l32.017,64l-32.017,64l-32.016,-64l32.016,-64Z" style="fill:#fff;"/>
			</g>
		</g>
	</g>
	<defs>
		<linearGradient id="_Linear1" x1="0" y1="0" x2="1" y2="0" gradientUnits="userSpaceOnUse" gradientTransform="matrix(315.734,69.2995,-69.2995,315.734,100.266,215.802)">
			<stop offset="0" style="stop-color:#fff;stop-opacity:1"/>
			<stop offset="0.18" style="stop-color:#fff;stop-opacity:1"/>
			<stop offset="1" style="stop-color:#fff;stop-opacity:0.41"/>
		</linearGradient>
	</defs>
</svg>